<svg width="36" height="36" viewBox="0 0 36 36" fill="none" xmlns="http://www.w3.org/2000/svg">
    <path fill-rule="evenodd" clip-rule="evenodd" d="M18 1.875C18.4261 1.875 18.8156 2.11575 19.0062 2.49689L23.25 10.9845L31.6849 12.3903C32.1006 12.4596 32.4427 12.7554 32.5713 13.1567C32.6999 13.558 32.5934 13.9975 32.2955 14.2955L25.9864 20.6046L28.0962 29.747C28.1941 30.1715 28.0382 30.6144 27.6959 30.8839C27.3536 31.1534 26.8865 31.2011 26.4969 31.0062L18 26.7578L9.50308 31.0062C9.11343 31.2011 8.64632 31.1534 8.30403 30.8839C7.96174 30.6144 7.80582 30.1715 7.90378 29.747L10.0136 20.6046L3.70447 14.2955C3.40649 13.9975 3.30003 13.558 3.42864 13.1567C3.55724 12.7554 3.89934 12.4596 4.31502 12.3903L12.7499 10.9845L16.9937 2.49688C17.1843 2.11575 17.5739 1.875 18 1.875ZM18 5.51558L14.5062 12.5031C14.3452 12.825 14.0399 13.0505 13.6849 13.1097L6.84126 14.2503L12.0455 19.4545C12.3197 19.7288 12.4334 20.125 12.3462 20.503L10.6332 27.9256L17.4969 24.4938C17.8136 24.3354 18.1864 24.3354 18.5031 24.4938L25.3667 27.9256L23.6538 20.503C23.5666 20.125 23.6802 19.7288 23.9545 19.4545L29.1587 14.2503L22.315 13.1097C21.96 13.0505 21.6547 12.825 21.4937 12.5031L18 5.51558Z" fill="#212121"/>
    <path fill-rule="evenodd" clip-rule="evenodd" d="M18 1.875C18.4262 1.875 18.8157 2.11575 19.0063 2.49689L23.5063 11.4969C23.7841 12.0526 23.5589 12.7284 23.0031 13.0062C22.4474 13.2841 21.7717 13.0588 21.4938 12.5031L18 5.51558L14.5063 12.5031C14.3453 12.825 14.04 13.0505 13.685 13.1097L6.84132 14.2503L12.0455 19.4545C12.3198 19.7288 12.4334 20.125 12.3462 20.503L10.0962 30.253C9.95651 30.8584 9.35247 31.2359 8.74706 31.0962C8.14165 30.9565 7.76413 30.3524 7.90384 29.747L10.0136 20.6046L3.70453 14.2955C3.40655 13.9975 3.30009 13.558 3.4287 13.1567C3.5573 12.7554 3.8994 12.4596 4.31508 12.3903L12.75 10.9845L16.9938 2.49688C17.1844 2.11575 17.5739 1.875 18 1.875Z" fill="#5138EE"/>
</svg>
