<svg width="36" height="36" viewBox="0 0 36 36" fill="none" xmlns="http://www.w3.org/2000/svg">
    <path fill-rule="evenodd" clip-rule="evenodd" d="M1.875 13.5C1.875 12.8787 2.37868 12.375 3 12.375H30C30.6213 12.375 31.125 12.8787 31.125 13.5C31.125 14.1213 30.6213 14.625 30 14.625H3C2.37868 14.625 1.875 14.1213 1.875 13.5ZM30 23.625C30.6213 23.625 31.125 24.1287 31.125 24.75V27.375H33.75C34.3713 27.375 34.875 27.8787 34.875 28.5C34.875 29.1214 34.3713 29.625 33.75 29.625H31.125V32.25C31.125 32.8713 30.6213 33.375 30 33.375C29.3787 33.375 28.875 32.8713 28.875 32.25V29.625H26.25C25.6287 29.625 25.125 29.1214 25.125 28.5C25.125 27.8787 25.6287 27.375 26.25 27.375H28.875V24.75C28.875 24.1287 29.3787 23.625 30 23.625ZM9 18.375C8.37868 18.375 7.875 18.8787 7.875 19.5C7.875 20.1213 8.37868 20.625 9 20.625H13.5C14.1213 20.625 14.625 20.1213 14.625 19.5C14.625 18.8787 14.1213 18.375 13.5 18.375H9Z" fill="#5138EE"/>
    <path fill-rule="evenodd" clip-rule="evenodd" d="M10.1518 6.375L10.2 6.375H22.8L22.8482 6.375C24.0674 6.37499 25.0508 6.37498 25.8472 6.44005C26.6672 6.50704 27.3874 6.64858 28.0537 6.98809C29.1121 7.52738 29.9726 8.38789 30.5119 9.4463C30.8514 10.1126 30.993 10.8328 31.06 11.6528C31.125 12.4492 31.125 13.4326 31.125 14.6518V14.7V19.5C31.125 20.1213 30.6213 20.625 30 20.625C29.3787 20.625 28.875 20.1213 28.875 19.5V14.7C28.875 13.4213 28.8741 12.53 28.8174 11.836C28.7618 11.1552 28.6581 10.7641 28.5071 10.4678C28.1836 9.83274 27.6673 9.31643 27.0322 8.99285C26.7359 8.84189 26.3448 8.7382 25.664 8.68257C24.97 8.62588 24.0787 8.625 22.8 8.625H10.2C8.92132 8.625 8.02997 8.62588 7.33602 8.68257C6.65521 8.7382 6.26406 8.84189 5.96778 8.99285C5.33274 9.31643 4.81643 9.83274 4.49285 10.4678C4.34189 10.7641 4.2382 11.1552 4.18257 11.836C4.12588 12.53 4.125 13.4213 4.125 14.7V21.3C4.125 22.5787 4.12588 23.47 4.18257 24.164C4.2382 24.8448 4.34189 25.2359 4.49285 25.5322C4.81643 26.1673 5.33274 26.6836 5.96778 27.0071C6.26406 27.1581 6.65521 27.2618 7.33602 27.3174C8.02997 27.3741 8.92132 27.375 10.2 27.375H21C21.6213 27.375 22.125 27.8787 22.125 28.5C22.125 29.1213 21.6213 29.625 21 29.625H10.2H10.1518C8.93257 29.625 7.94916 29.625 7.1528 29.56C6.33284 29.493 5.61263 29.3514 4.9463 29.0119C3.88789 28.4726 3.02738 27.6121 2.48809 26.5537C2.14858 25.8874 2.00704 25.1672 1.94005 24.3472C1.87498 23.5508 1.87499 22.5674 1.875 21.3482L1.875 21.3V14.7L1.875 14.6518C1.87499 13.4326 1.87498 12.4492 1.94005 11.6528C2.00704 10.8328 2.14858 10.1126 2.48809 9.4463C3.02738 8.38789 3.88789 7.52738 4.9463 6.98809C5.61263 6.64858 6.33284 6.50704 7.1528 6.44005C7.94916 6.37498 8.93259 6.37499 10.1518 6.375Z" fill="#212121"/>
</svg>
