<svg width="36" height="36" viewBox="0 0 36 36" fill="none" xmlns="http://www.w3.org/2000/svg">
    <g clip-path="url(#clip0_316_245)">
        <path fill-rule="evenodd" clip-rule="evenodd" d="M18 7.125C11.1655 7.125 5.62501 12.6655 5.62501 19.5C5.62501 20.1213 5.12133 20.625 4.50001 20.625C3.87868 20.625 3.37501 20.1213 3.37501 19.5C3.37501 11.4228 9.92284 4.875 18 4.875C26.0772 4.875 32.625 11.4228 32.625 19.5C32.625 27.5772 26.0772 34.125 18 34.125L10.5 34.125C9.87869 34.125 9.37501 33.6213 9.37501 33C9.37501 32.3787 9.87869 31.875 10.5 31.875L18 31.875C24.8345 31.875 30.375 26.3345 30.375 19.5C30.375 12.6655 24.8345 7.125 18 7.125Z" fill="#212121"/>
        <path fill-rule="evenodd" clip-rule="evenodd" d="M13.875 1.5C13.875 0.878683 14.3787 0.375003 15 0.375003L21 0.375003C21.6213 0.375003 22.125 0.878683 22.125 1.5C22.125 2.12132 21.6213 2.625 21 2.625L15 2.625C14.3787 2.625 13.875 2.12132 13.875 1.5ZM3 22.875C2.37868 22.875 1.875 23.3787 1.875 24C1.875 24.6213 2.37868 25.125 3 25.125L10.5 25.125C11.1213 25.125 11.625 24.6213 11.625 24C11.625 23.3787 11.1213 22.875 10.5 22.875L3 22.875ZM6 27.375C5.37868 27.375 4.875 27.8787 4.875 28.5C4.875 29.1213 5.37868 29.625 6 29.625L15 29.625C15.6213 29.625 16.125 29.1213 16.125 28.5C16.125 27.8787 15.6213 27.375 15 27.375L6 27.375ZM19.125 15C19.125 14.3787 18.6213 13.875 18 13.875C17.3787 13.875 16.875 14.3787 16.875 15L16.875 21C16.875 21.6213 17.3787 22.125 18 22.125C18.6213 22.125 19.125 21.6213 19.125 21L19.125 15Z" fill="#5138EE"/>
    </g>
    <defs>
        <clipPath id="clip0_316_245">
            <rect width="36" height="36" fill="white"/>
        </clipPath>
    </defs>
</svg>
