<svg width="36" height="36" viewBox="0 0 36 36" fill="none" xmlns="http://www.w3.org/2000/svg">
    <path fill-rule="evenodd" clip-rule="evenodd" d="M9.25435 6.375L9.3 6.375H26.7L26.7457 6.375C27.5469 6.37498 28.2157 6.37497 28.762 6.41961C29.3318 6.46617 29.8668 6.56683 30.3727 6.8246C31.1489 7.22008 31.7799 7.85112 32.1754 8.62729C32.4332 9.13318 32.5338 9.66817 32.5804 10.238C32.625 10.7843 32.625 11.4531 32.625 12.2543V12.3V25.5C32.625 26.1213 32.1213 26.625 31.5 26.625H4.5C3.87868 26.625 3.375 26.1213 3.375 25.5V12.3L3.375 12.2544C3.37498 11.4531 3.37497 10.7843 3.41961 10.238C3.46617 9.66817 3.56683 9.13318 3.8246 8.62729C4.22008 7.85112 4.85112 7.22008 5.62729 6.8246C6.13318 6.56683 6.66817 6.46617 7.238 6.41961C7.78435 6.37497 8.45312 6.37498 9.25435 6.375ZM7.42122 8.66214C6.99053 8.69733 6.78461 8.76015 6.64877 8.82936C6.29597 9.00913 6.00913 9.29597 5.82936 9.64877C5.76015 9.78461 5.69733 9.99053 5.66214 10.4212C5.62588 10.865 5.625 11.4414 5.625 12.3V24.375H30.375V12.3C30.375 11.4414 30.3741 10.865 30.3379 10.4212C30.3027 9.99053 30.2399 9.78461 30.1706 9.64877C29.9909 9.29597 29.704 9.00913 29.3512 8.82936C29.2154 8.76015 29.0095 8.69733 28.5788 8.66214C28.135 8.62588 27.5586 8.625 26.7 8.625H9.3C8.44136 8.625 7.86504 8.62588 7.42122 8.66214Z" fill="#212121"/>
    <path fill-rule="evenodd" clip-rule="evenodd" d="M0.375 26C0.375 25.1025 1.10254 24.375 2 24.375H34C34.8975 24.375 35.625 25.1025 35.625 26C35.625 28.8305 33.3305 31.125 30.5 31.125H5.5C2.66954 31.125 0.375 28.8305 0.375 26ZM2.69313 26.625C2.97849 27.9123 4.12682 28.875 5.5 28.875H30.5C31.8732 28.875 33.0215 27.9123 33.3069 26.625H2.69313Z" fill="#5138EE"/>
</svg>
