<svg width="36" height="36" viewBox="0 0 36 36" fill="none" xmlns="http://www.w3.org/2000/svg">
    <path fill-rule="evenodd" clip-rule="evenodd" d="M8.35195 5.08041C8.65099 4.86967 9.03384 4.8175 9.37838 4.94055L25.0819 10.5489L25.1329 10.5672C25.9235 10.8495 26.5882 11.0869 27.0856 11.3162C27.5631 11.5363 28.1278 11.8499 28.4536 12.4095C28.8725 13.1288 28.9254 14.0042 28.5961 14.7687C28.34 15.3634 27.8171 15.7427 27.3696 16.0187C26.9034 16.3062 26.272 16.6218 25.5211 16.9973L25.4727 17.0214L9.50312 25.0062C9.15438 25.1806 8.74022 25.162 8.40855 24.957C8.07688 24.752 7.875 24.3899 7.875 24V6.00001C7.875 5.63416 8.0529 5.29116 8.35195 5.08041ZM10.125 7.59639V22.1797L24.4665 15.009C25.2786 14.6029 25.8184 14.3318 26.1886 14.1035C26.4278 13.956 26.5169 13.8717 26.5414 13.8475C26.5713 13.7567 26.5653 13.6578 26.5247 13.5712C26.4975 13.5502 26.3989 13.4772 26.1437 13.3595C25.7487 13.1774 25.1802 12.9733 24.3251 12.6679L10.125 7.59639Z" fill="#5138EE"/>
    <path fill-rule="evenodd" clip-rule="evenodd" d="M9 1.875C9.62132 1.875 10.125 2.37868 10.125 3V33C10.125 33.6213 9.62132 34.125 9 34.125C8.37868 34.125 7.875 33.6213 7.875 33V3C7.875 2.37868 8.37868 1.875 9 1.875Z" fill="#212121"/>
</svg>
