<svg width="36" height="36" viewBox="0 0 36 36" fill="none" xmlns="http://www.w3.org/2000/svg">
    <path fill-rule="evenodd" clip-rule="evenodd" d="M30 14.6251C30.7509 14.6251 30.9621 14.6305 31.1158 14.6611C31.8596 14.8091 32.441 15.3905 32.589 16.1343C32.6196 16.288 32.625 16.4992 32.625 17.2501L32.625 18.7501C32.625 19.501 32.6196 19.7121 32.589 19.8659C32.441 20.6097 31.8596 21.1911 31.1158 21.339C30.9621 21.3696 30.7509 21.3751 30 21.3751L30 23.6251L30.1099 23.6251C30.699 23.6254 31.1535 23.6256 31.5548 23.5458C33.1911 23.2203 34.4703 21.9412 34.7957 20.3048C34.8756 19.9036 34.8753 19.4491 34.875 18.86L34.875 18.86L34.875 18.7501L34.875 17.2501L34.875 17.1402C34.8753 16.5511 34.8756 16.0966 34.7957 15.6953C34.4703 14.059 33.1911 12.7798 31.5548 12.4543C31.1535 12.3745 30.699 12.3747 30.1099 12.375L30 12.3751L30 14.6251ZM24 13.8751C24.6213 13.8751 25.125 14.3788 25.125 15.0001L25.125 21.0001C25.125 21.6214 24.6213 22.1251 24 22.1251C23.3787 22.1251 22.875 21.6214 22.875 21.0001L22.875 15.0001C22.875 14.3788 23.3787 13.8751 24 13.8751ZM17.625 15.0001C17.625 14.3788 17.1213 13.8751 16.5 13.8751C15.8787 13.8751 15.375 14.3788 15.375 15.0001L15.375 21.0001C15.375 21.6214 15.8787 22.1251 16.5 22.1251C17.1213 22.1251 17.625 21.6214 17.625 21.0001L17.625 15.0001ZM10.125 15.0001C10.125 14.3788 9.62132 13.8751 9 13.8751C8.37868 13.8751 7.875 14.3788 7.875 15.0001L7.875 21.0001C7.875 21.6214 8.37868 22.1251 9 22.1251C9.62132 22.1251 10.125 21.6214 10.125 21.0001L10.125 15.0001Z" fill="#5138EE"/>
    <path fill-rule="evenodd" clip-rule="evenodd" d="M10.1518 7.875L10.2 7.875L22.8 7.875L22.8482 7.875C24.0674 7.87499 25.0508 7.87498 25.8472 7.94005C26.6672 8.00704 27.3874 8.14858 28.0537 8.48809C29.1121 9.02738 29.9726 9.8879 30.5119 10.9463C30.8514 11.6126 30.993 12.3328 31.06 13.1528C31.125 13.9492 31.125 14.9326 31.125 16.1518L31.125 16.2L31.125 19.8L31.125 19.8482C31.125 21.0674 31.125 22.0509 31.06 22.8472C30.993 23.6672 30.8514 24.3874 30.5119 25.0537C29.9726 26.1121 29.1121 26.9726 28.0537 27.5119C27.3874 27.8514 26.6672 27.993 25.8472 28.06C25.0508 28.125 24.0674 28.125 22.8482 28.125L22.8 28.125L10.2 28.125L10.1518 28.125C8.93257 28.125 7.94916 28.125 7.1528 28.06C6.33284 27.993 5.61263 27.8514 4.9463 27.5119C3.88789 26.9726 3.02738 26.1121 2.48809 25.0537C2.14858 24.3874 2.00704 23.6672 1.94004 22.8472C1.87498 22.0508 1.87499 21.0674 1.875 19.8482L1.875 19.8L1.875 16.2L1.875 16.1518C1.87499 14.9326 1.87498 13.9492 1.94004 13.1528C2.00704 12.3328 2.14858 11.6126 2.48809 10.9463C3.02738 9.8879 3.88789 9.02738 4.9463 8.48809C5.61263 8.14858 6.33284 8.00704 7.1528 7.94005C7.94916 7.87498 8.93259 7.87499 10.1518 7.875ZM7.33602 10.1826C6.65521 10.2382 6.26406 10.3419 5.96778 10.4929C5.33273 10.8164 4.81642 11.3327 4.49285 11.9678C4.34189 12.2641 4.2382 12.6552 4.18257 13.336C4.12587 14.03 4.125 14.9213 4.125 16.2L4.125 19.8C4.125 21.0787 4.12587 21.97 4.18257 22.664C4.2382 23.3448 4.34189 23.7359 4.49285 24.0322C4.81643 24.6673 5.33273 25.1836 5.96778 25.5072C6.26406 25.6581 6.65521 25.7618 7.33602 25.8174C8.02997 25.8741 8.92132 25.875 10.2 25.875L22.8 25.875C24.0787 25.875 24.97 25.8741 25.664 25.8174C26.3448 25.7618 26.7359 25.6581 27.0322 25.5072C27.6673 25.1836 28.1836 24.6673 28.5071 24.0322C28.6581 23.7359 28.7618 23.3448 28.8174 22.664C28.8741 21.97 28.875 21.0787 28.875 19.8L28.875 16.2C28.875 14.9213 28.8741 14.03 28.8174 13.336C28.7618 12.6552 28.6581 12.2641 28.5071 11.9678C28.1836 11.3327 27.6673 10.8164 27.0322 10.4929C26.7359 10.3419 26.3448 10.2382 25.664 10.1826C24.97 10.1259 24.0787 10.125 22.8 10.125L10.2 10.125C8.92132 10.125 8.02997 10.1259 7.33602 10.1826Z" fill="#212121"/>
</svg>
