<svg width="35" height="28" viewBox="0 0 35 28" fill="none" xmlns="http://www.w3.org/2000/svg">
    <path fill-rule="evenodd" clip-rule="evenodd" d="M0.228516 13.875C0.228516 6.21205 6.44057 0 14.1035 0H20.4464C28.1093 0 34.3214 6.21205 34.3214 13.875C34.3214 21.538 28.1093 27.75 20.4464 27.75H14.1035C6.44056 27.75 0.228516 21.538 0.228516 13.875ZM14.1035 2.37857C7.75422 2.37857 2.60709 7.5257 2.60709 13.875C2.60709 20.2243 7.75421 25.3714 14.1035 25.3714H20.4464C26.7957 25.3714 31.9428 20.2243 31.9428 13.875C31.9428 7.5257 26.7957 2.37857 20.4464 2.37857H14.1035Z" fill="#212121"/>
    <circle cx="20.4464" cy="13.8751" r="6.34286" stroke="#5138EE" stroke-width="2.37857" stroke-linecap="round" stroke-linejoin="round"/>
</svg>
