<svg width="36" height="36" viewBox="0 0 36 36" fill="none" xmlns="http://www.w3.org/2000/svg">
    <path fill-rule="evenodd" clip-rule="evenodd" d="M7.125 10.5C7.125 7.80761 9.30761 5.625 12 5.625C14.6924 5.625 16.875 7.80761 16.875 10.5C16.875 13.1924 14.6924 15.375 12 15.375C9.30761 15.375 7.125 13.1924 7.125 10.5ZM12 3.375C8.06497 3.375 4.875 6.56497 4.875 10.5C4.875 14.435 8.06497 17.625 12 17.625C15.935 17.625 19.125 14.435 19.125 10.5C19.125 6.56497 15.935 3.375 12 3.375ZM4.125 28.5C4.125 25.8076 6.30761 23.625 9 23.625H15C17.6924 23.625 19.875 25.8076 19.875 28.5C19.875 29.5355 19.0355 30.375 18 30.375H6C4.96447 30.375 4.125 29.5355 4.125 28.5ZM9 21.375C5.06497 21.375 1.875 24.565 1.875 28.5C1.875 30.7782 3.72183 32.625 6 32.625H18C20.2782 32.625 22.125 30.7782 22.125 28.5C22.125 24.565 18.935 21.375 15 21.375H9Z" fill="#212121"/>
    <path fill-rule="evenodd" clip-rule="evenodd" d="M21 3.375C20.3787 3.375 19.875 3.87868 19.875 4.5C19.875 5.12132 20.3787 5.625 21 5.625C23.6924 5.625 25.875 7.80761 25.875 10.5C25.875 13.1924 23.6924 15.375 21 15.375C20.3787 15.375 19.875 15.8787 19.875 16.5C19.875 17.1213 20.3787 17.625 21 17.625C24.935 17.625 28.125 14.435 28.125 10.5C28.125 6.56497 24.935 3.375 21 3.375ZM24 21.375C23.3787 21.375 22.875 21.8787 22.875 22.5C22.875 23.1213 23.3787 23.625 24 23.625H27C29.6924 23.625 31.875 25.8076 31.875 28.5C31.875 29.5355 31.0355 30.375 30 30.375H24C23.3787 30.375 22.875 30.8787 22.875 31.5C22.875 32.1213 23.3787 32.625 24 32.625H30C32.2782 32.625 34.125 30.7782 34.125 28.5C34.125 24.565 30.935 21.375 27 21.375H24Z" fill="#5138EE"/>
</svg>
