<svg width="36" height="36" viewBox="0 0 36 36" fill="none" xmlns="http://www.w3.org/2000/svg">
    <path fill-rule="evenodd" clip-rule="evenodd" d="M22.5 6.375C22.95 6.375 23.3568 6.6432 23.534 7.05684L27.7418 16.875L33 16.875C33.6213 16.875 34.125 17.3787 34.125 18C34.125 18.6213 33.6213 19.125 33 19.125L27 19.125C26.55 19.125 26.1432 18.8568 25.966 18.4432L22.5 10.3559L14.534 28.9432C14.3568 29.3568 13.95 29.625 13.5 29.625C13.05 29.625 12.6432 29.3568 12.466 28.9432L8.25818 19.125L3 19.125C2.37868 19.125 1.875 18.6213 1.875 18C1.875 17.3787 2.37868 16.875 3 16.875L9 16.875C9.45003 16.875 9.85676 17.1432 10.034 17.5568L13.5 25.6441L21.466 7.05684C21.6432 6.6432 22.05 6.375 22.5 6.375Z" fill="#212121"/>
    <path fill-rule="evenodd" clip-rule="evenodd" d="M1.875 18C1.875 17.3787 2.37868 16.875 3 16.875L9 16.875C9.45003 16.875 9.85676 17.1432 10.034 17.5568L14.534 28.0568C14.7788 28.6279 14.5142 29.2893 13.9432 29.534C13.3721 29.7788 12.7107 29.5142 12.466 28.9432L8.25818 19.125L3 19.125C2.37868 19.125 1.875 18.6213 1.875 18ZM25.875 18C25.875 17.3787 26.3787 16.875 27 16.875L33 16.875C33.6213 16.875 34.125 17.3787 34.125 18C34.125 18.6213 33.6213 19.125 33 19.125L27 19.125C26.3787 19.125 25.875 18.6213 25.875 18Z" fill="#5138EE"/>
</svg>
