<svg width="36" height="36" viewBox="0 0 36 36" fill="none" xmlns="http://www.w3.org/2000/svg">
    <path fill-rule="evenodd" clip-rule="evenodd" d="M16.674 15.1742C17.4062 14.4419 18.5934 14.4419 19.3256 15.1742C20.0579 15.9064 20.0579 17.0936 19.3256 17.8258C18.5934 18.5581 17.4062 18.5581 16.674 17.8258C15.9418 17.0936 15.9418 15.9064 16.674 15.1742ZM20.9166 13.5832C19.3057 11.9723 16.6939 11.9723 15.083 13.5832C13.4721 15.1941 13.4721 17.8059 15.083 19.4168C16.6939 21.0277 19.3057 21.0277 20.9166 19.4168C22.5275 17.8059 22.5275 15.1941 20.9166 13.5832ZM7.5 30.375C6.87868 30.375 6.375 30.8787 6.375 31.5C6.375 32.1213 6.87868 32.625 7.5 32.625H28.5C29.1213 32.625 29.625 32.1213 29.625 31.5C29.625 30.8787 29.1213 30.375 28.5 30.375H7.5Z" fill="#5138EE"/>
    <path fill-rule="evenodd" clip-rule="evenodd" d="M10.1518 4.875H10.2L25.8 4.875H25.8482C26.2323 4.875 26.5931 4.87499 26.9319 4.87703C26.9544 4.87568 26.9771 4.875 27 4.875C27.0283 4.875 27.0563 4.87604 27.0841 4.87809C27.7562 4.88354 28.3397 4.89858 28.8472 4.94005C29.6672 5.00704 30.3874 5.14858 31.0537 5.48809C32.1121 6.02738 32.9726 6.88789 33.5119 7.9463C33.8514 8.61263 33.993 9.33284 34.06 10.1528C34.1014 10.6603 34.1165 11.2438 34.1219 11.9159C34.124 11.9437 34.125 11.9717 34.125 12C34.125 12.0229 34.1243 12.0455 34.123 12.0681C34.125 12.4069 34.125 12.7676 34.125 13.1517V13.1518V13.2V19.8V19.8482V19.8483V19.8526C34.125 20.2351 34.125 20.5944 34.123 20.9319C34.1243 20.9545 34.125 20.9771 34.125 21C34.125 21.0283 34.124 21.0563 34.1219 21.0841C34.1165 21.7562 34.1014 22.3397 34.06 22.8472C33.993 23.6672 33.8514 24.3874 33.5119 25.0537C32.9726 26.1121 32.1121 26.9726 31.0537 27.5119C30.3874 27.8514 29.6672 27.993 28.8472 28.06C28.3397 28.1014 27.7562 28.1165 27.0841 28.1219C27.0563 28.124 27.0283 28.125 27 28.125C26.9771 28.125 26.9545 28.1243 26.9319 28.123C26.5931 28.125 26.2324 28.125 25.8482 28.125H25.8482H25.8H10.2H10.1518H10.1518H10.1518C9.76764 28.125 9.40691 28.125 9.06806 28.123C9.04555 28.1243 9.02285 28.125 9 28.125C8.97173 28.125 8.9437 28.124 8.91595 28.1219C8.24384 28.1165 7.66033 28.1014 7.1528 28.06C6.33284 27.993 5.61263 27.8514 4.9463 27.5119C3.88789 26.9726 3.02738 26.1121 2.48809 25.0537C2.14858 24.3874 2.00704 23.6672 1.94005 22.8472C1.89858 22.3397 1.88354 21.7562 1.87809 21.0841C1.87604 21.0563 1.875 21.0283 1.875 21C1.875 20.9771 1.87568 20.9544 1.87703 20.9319C1.87499 20.5931 1.875 20.2323 1.875 19.8482V19.8L1.875 13.2V13.1518C1.875 12.7677 1.87499 12.4069 1.87703 12.0681C1.87568 12.0456 1.875 12.0229 1.875 12C1.875 11.9717 1.87604 11.9437 1.87809 11.9159C1.88354 11.2438 1.89858 10.6603 1.94005 10.1528C2.00704 9.33284 2.14858 8.61263 2.48809 7.9463C3.02738 6.88789 3.88789 6.02738 4.9463 5.48809C5.61263 5.14858 6.33284 5.00704 7.1528 4.94005C7.66033 4.89858 8.24383 4.88354 8.91594 4.87809C8.94369 4.87604 8.97172 4.875 9 4.875C9.02286 4.875 9.04555 4.87568 9.06807 4.87703C9.40693 4.87499 9.76768 4.875 10.1518 4.875ZM31.8492 10.8691C31.8413 10.6784 31.831 10.5016 31.8174 10.336C31.7618 9.65521 31.6581 9.26406 31.5071 8.96778C31.1836 8.33274 30.6673 7.81643 30.0322 7.49285C29.7359 7.34189 29.3448 7.2382 28.664 7.18257C28.4984 7.16904 28.3216 7.15869 28.1309 7.15077C28.1412 7.7861 28.1687 8.10729 28.24 8.37351C28.5521 9.5382 29.4618 10.4479 30.6265 10.76C30.8927 10.8313 31.2139 10.8588 31.8492 10.8691ZM25.879 7.125C25.8897 7.86347 25.9285 8.44039 26.0667 8.95586C26.5868 10.897 28.103 12.4132 30.0441 12.9333C30.5596 13.0715 31.1365 13.1103 31.875 13.121C31.875 13.1472 31.875 13.1735 31.875 13.2V19.8L31.875 19.879C31.1365 19.8897 30.5596 19.9285 30.0441 20.0667C28.103 20.5868 26.5868 22.103 26.0667 24.0441C25.9285 24.5596 25.8897 25.1365 25.879 25.875L25.8 25.875H10.2L10.121 25.875C10.1103 25.1365 10.0715 24.5596 9.93333 24.0441C9.41321 22.103 7.897 20.5868 5.95586 20.0667C5.44039 19.9285 4.86347 19.8897 4.125 19.879L4.125 19.8V13.2L4.125 13.121C4.86347 13.1103 5.44039 13.0715 5.95586 12.9333C7.897 12.4132 9.41321 10.897 9.93333 8.95586C10.0715 8.44039 10.1103 7.86347 10.121 7.125L10.2 7.125L25.8 7.125C25.8265 7.125 25.8528 7.125 25.879 7.125ZM7.33602 7.18257C7.50161 7.16904 7.67844 7.15869 7.86908 7.15077C7.85879 7.7861 7.83133 8.10729 7.76 8.37351C7.44792 9.5382 6.5382 10.4479 5.37351 10.76C5.10729 10.8313 4.7861 10.8588 4.15077 10.8691C4.15869 10.6784 4.16904 10.5016 4.18257 10.336C4.2382 9.65521 4.34189 9.26406 4.49285 8.96778C4.81643 8.33274 5.33274 7.81643 5.96778 7.49285C6.26406 7.34189 6.65521 7.2382 7.33602 7.18257ZM4.15077 22.1309C4.15869 22.3216 4.16904 22.4984 4.18257 22.664C4.2382 23.3448 4.34189 23.7359 4.49285 24.0322C4.81643 24.6673 5.33274 25.1836 5.96778 25.5071C6.26406 25.6581 6.65521 25.7618 7.33602 25.8174C7.50161 25.831 7.67844 25.8413 7.86908 25.8492C7.85879 25.2139 7.83133 24.8927 7.76 24.6265C7.44792 23.4618 6.5382 22.5521 5.37351 22.24C5.10729 22.1687 4.7861 22.1412 4.15077 22.1309ZM28.664 25.8174C28.4984 25.831 28.3216 25.8413 28.1309 25.8492C28.1412 25.2139 28.1687 24.8927 28.24 24.6265C28.5521 23.4618 29.4618 22.5521 30.6265 22.24C30.8927 22.1687 31.2139 22.1412 31.8492 22.1309C31.8413 22.3216 31.831 22.4984 31.8174 22.664C31.7618 23.3448 31.6581 23.7359 31.5071 24.0322C31.1836 24.6673 30.6673 25.1836 30.0322 25.5071C29.7359 25.6581 29.3448 25.7618 28.664 25.8174Z" fill="#212121"/>
</svg>
