<svg width="430" height="514" viewBox="0 0 430 514" fill="none" xmlns="http://www.w3.org/2000/svg">
    <g opacity="0.15">
        <path fill-rule="evenodd" clip-rule="evenodd" d="M162.22 416.972C169.509 432.284 169.4 449 170.355 465.933C171.323 483.102 176.175 501.162 167.816 516.198C159.201 531.696 141.423 538.379 125.611 546.419C107.642 555.556 90.006 567.932 69.9465 565.965C48.1757 563.831 23.8243 554.817 13.6931 535.447C3.69178 516.325 16.5634 493.813 21.181 472.728C24.5149 457.504 29.6777 443.735 36.8131 429.876C44.942 414.088 50.9536 396.697 65.5441 386.564C82.7366 374.623 104.313 362.852 124.275 369.131C144.188 375.394 153.253 398.134 162.22 416.972Z" stroke="#BFC0F0" stroke-width="1.5"/>
        <path fill-rule="evenodd" clip-rule="evenodd" d="M148.253 418.249C153.394 429.05 153.317 440.841 153.991 452.785C154.674 464.895 158.096 477.634 152.2 488.24C146.123 499.171 133.583 503.885 122.43 509.557C109.756 516.002 97.3155 524.731 83.1662 523.344C67.8098 521.838 50.6332 515.481 43.487 501.817C36.4325 488.329 45.5116 472.45 48.7687 457.577C51.1204 446.839 54.762 437.127 59.7951 427.351C65.5289 416.215 69.7693 403.948 80.0609 396.8C92.1879 388.378 107.407 380.075 121.488 384.504C135.534 388.922 141.928 404.962 148.253 418.249Z" stroke="#BFC0F0" stroke-width="1.5"/>
        <path fill-rule="evenodd" clip-rule="evenodd" d="M128.151 434.284C131.258 440.81 131.211 447.935 131.618 455.152C132.031 462.47 134.099 470.168 130.536 476.576C126.864 483.182 119.287 486.03 112.548 489.457C104.889 493.352 97.3718 498.627 88.8219 497.788C79.5426 496.879 69.1634 493.037 64.8453 484.781C60.5824 476.631 66.0686 467.035 68.0368 458.048C69.4578 451.56 71.6583 445.691 74.6996 439.784C78.1643 433.055 80.7266 425.642 86.9454 421.323C94.2734 416.234 103.47 411.216 111.978 413.893C120.465 416.562 124.329 426.255 128.151 434.284Z" stroke="#BFC0F0" stroke-width="1.5"/>
        <path fill-rule="evenodd" clip-rule="evenodd" d="M-85.8175 82.7218C-52.092 83.4187 -37.386 126.916 -9.89169 146.449C15.8078 164.707 50.627 168.54 69.9888 193.412C91.669 221.262 111.389 257.367 103.167 291.684C94.9609 325.936 53.1136 338.272 29.1045 364.053C6.24468 388.6 -4.31247 424.658 -34.4309 439.437C-66.5473 455.197 -105.055 456.933 -139.341 446.711C-173.558 436.51 -198.37 409.177 -222.904 383.248C-248.459 356.238 -278.352 329.735 -284.677 293.103C-291.057 256.152 -280.436 215.636 -256.885 186.446C-234.966 159.28 -193.642 161.37 -163.788 143.269C-135.067 125.854 -119.404 82.0277 -85.8175 82.7218Z" stroke="#BFC0F0" stroke-width="1.5"/>
        <path fill-rule="evenodd" clip-rule="evenodd" d="M-87.028 125.333C-61.0396 125.869 -49.7073 159.36 -28.5206 174.399C-8.71689 188.457 18.1144 191.408 33.0343 210.558C49.7408 232.001 64.9371 259.801 58.6013 286.222C52.2775 312.594 20.0305 322.092 1.52944 341.942C-16.0861 360.842 -24.2213 388.605 -47.4301 399.985C-72.1787 412.119 -101.852 413.455 -128.273 405.585C-154.64 397.731 -173.76 376.686 -192.665 356.722C-212.357 335.926 -235.393 315.519 -240.267 287.315C-245.183 258.864 -236.998 227.669 -218.85 205.195C-201.96 184.278 -170.116 185.888 -147.111 171.951C-124.979 158.542 -112.909 124.798 -87.028 125.333Z" stroke="#BFC0F0" stroke-width="1.5"/>
        <path fill-rule="evenodd" clip-rule="evenodd" d="M-88.1274 166.854C-69.6718 167.234 -61.6243 190.973 -46.5786 201.633C-32.5151 211.597 -13.461 213.689 -2.86573 227.263C8.99832 242.462 19.7899 262.166 15.2906 280.894C10.7997 299.587 -12.1003 306.32 -25.2387 320.389C-37.7483 333.786 -43.5255 353.465 -60.0071 361.53C-77.5822 370.131 -98.6548 371.079 -117.417 365.5C-136.142 359.933 -149.72 345.016 -163.145 330.865C-177.129 316.125 -193.488 301.66 -196.949 281.669C-200.441 261.503 -194.628 239.391 -181.74 223.461C-169.746 208.635 -147.132 209.776 -130.795 199.897C-115.078 190.393 -106.507 166.475 -88.1274 166.854Z" stroke="#BFC0F0" stroke-width="1.5"/>
        <path fill-rule="evenodd" clip-rule="evenodd" d="M374.197 -75.2165C396.707 -85.4443 423.049 -91.3256 446.432 -83.265C469.037 -75.4727 479.141 -50.3934 495.844 -33.2822C512.008 -16.723 533.966 -5.58885 543.036 15.6985C552.936 38.9331 557.063 66.0734 548.261 89.7364C539.494 113.304 518.193 130.132 496.043 142.033C475.944 152.831 452.717 154.528 429.928 153.311C409.439 152.217 391.435 142.907 372.325 135.428C350.552 126.907 323.51 125.501 310.038 106.39C296.415 87.065 300.872 60.783 303.12 37.2525C305.296 14.4651 310.559 -7.73778 322.786 -27.0851C335.587 -47.3401 352.382 -65.3043 374.197 -75.2165Z" stroke="#BFC0F0" stroke-width="1.5"/>
        <path fill-rule="evenodd" clip-rule="evenodd" d="M383.73 -49.9431C401.317 -57.9338 421.897 -62.5288 440.166 -56.2312C457.826 -50.1433 465.72 -30.5495 478.77 -17.1809C491.399 -4.24354 508.554 4.4553 515.64 21.0866C523.375 39.2392 526.599 60.4433 519.722 78.9306C512.873 97.3436 496.231 110.491 478.925 119.788C463.222 128.225 445.076 129.551 427.271 128.6C411.264 127.745 397.197 120.471 382.267 114.628C365.257 107.971 344.129 106.873 333.604 91.942C322.961 76.8435 326.443 56.31 328.199 37.9262C329.899 20.1229 334.011 2.77639 343.564 -12.3392C353.565 -28.164 366.686 -42.199 383.73 -49.9431Z" stroke="#BFC0F0" stroke-width="1.5"/>
        <path fill-rule="evenodd" clip-rule="evenodd" d="M393.733 -23.45C406.159 -29.0958 420.7 -32.3424 433.607 -27.8928C446.085 -23.5914 451.663 -9.74732 460.883 -0.30171C469.806 8.83921 481.927 14.9854 486.934 26.7363C492.399 39.5621 494.677 54.5439 489.818 67.6062C484.979 80.6159 473.22 89.9052 460.993 96.4743C449.898 102.435 437.076 103.372 424.497 102.7C413.186 102.096 403.248 96.9568 392.699 92.8283C380.68 88.1246 365.752 87.349 358.316 76.7994C350.796 66.1315 353.256 51.6235 354.497 38.6344C355.698 26.0554 358.603 13.7992 365.353 3.11922C372.419 -8.06185 381.69 -17.9783 393.733 -23.45Z" stroke="#BFC0F0" stroke-width="1.5"/>
        <path fill-rule="evenodd" clip-rule="evenodd" d="M402.638 0.16216C410.465 -3.39377 419.623 -5.43855 427.753 -2.63609C435.612 0.0730776 439.125 8.79247 444.932 14.7416C450.552 20.4988 458.186 24.3698 461.339 31.7709C464.781 39.8489 466.216 49.2849 463.156 57.5119C460.108 65.7058 452.702 71.5565 445.001 75.6939C438.013 79.4481 429.938 80.0382 422.015 79.6152C414.891 79.2349 408.631 75.9978 401.987 73.3975C394.418 70.435 385.016 69.9465 380.332 63.3021C375.596 56.5831 377.145 47.4456 377.927 39.2646C378.683 31.3421 380.513 23.6227 384.764 16.8962C389.215 9.85402 395.054 3.60835 402.638 0.16216Z" stroke="#BFC0F0" stroke-width="1.5"/>
        <path fill-rule="evenodd" clip-rule="evenodd" d="M335.077 171.264C363.491 170.731 391.25 174.924 417.208 186.485C446.534 199.545 475.341 215.465 493.593 241.862C513.755 271.021 539.196 309.228 524.332 341.41C508.389 375.929 449.828 363.292 424.435 391.6C399.801 419.061 417.168 471.314 387.786 493.626C358.557 515.823 314.852 513.14 280.152 501.168C246.03 489.396 219.92 460.796 201.946 429.509C185.803 401.408 191.075 367.615 185.128 335.761C178.85 302.134 151.283 267.925 166.016 237.049C180.779 206.11 222.945 201.968 254.905 189.532C280.975 179.388 307.105 171.79 335.077 171.264Z" stroke="#BFC0F0" stroke-width="1.5"/>
        <path fill-rule="evenodd" clip-rule="evenodd" d="M337.113 207.313C359.499 206.892 381.368 210.196 401.819 219.306C424.922 229.597 447.617 242.14 461.997 262.94C477.882 285.916 497.924 316.021 486.214 341.378C473.654 368.577 427.518 358.62 407.512 380.925C388.105 402.562 401.787 443.735 378.639 461.316C355.611 478.806 321.179 476.692 293.841 467.259C266.96 457.983 246.389 435.447 232.229 410.795C219.51 388.653 223.664 362.026 218.979 336.927C214.033 310.431 192.315 283.476 203.922 259.147C215.553 234.769 248.772 231.506 273.951 221.707C294.49 213.714 315.076 207.727 337.113 207.313Z" stroke="#BFC0F0" stroke-width="1.5"/>
        <path fill-rule="evenodd" clip-rule="evenodd" d="M339.6 248.824C355.045 248.534 370.134 250.811 384.245 257.089C400.186 264.181 415.845 272.826 425.767 287.16C436.727 302.994 450.556 323.741 442.477 341.217C433.81 359.961 401.977 353.099 388.173 368.471C374.783 383.383 384.223 411.757 368.252 423.873C352.363 435.927 328.606 434.47 309.743 427.969C291.195 421.576 277.002 406.046 267.231 389.056C258.456 373.797 261.322 355.447 258.089 338.149C254.677 319.889 239.691 301.313 247.7 284.546C255.725 267.746 278.646 265.497 296.019 258.744C310.19 253.235 324.395 249.109 339.6 248.824Z" stroke="#BFC0F0" stroke-width="1.5"/>
        <path fill-rule="evenodd" clip-rule="evenodd" d="M341.723 284.324C351.244 284.147 360.546 285.545 369.244 289.401C379.071 293.758 388.724 299.067 394.84 307.872C401.596 317.598 410.121 330.342 405.14 341.076C399.798 352.59 380.175 348.375 371.666 357.817C363.411 366.976 369.231 384.405 359.385 391.847C349.591 399.251 334.946 398.356 323.318 394.363C311.884 390.436 303.135 380.897 297.112 370.461C291.703 361.088 293.469 349.817 291.477 339.192C289.373 327.976 280.135 316.565 285.072 306.267C290.019 295.947 304.149 294.566 314.858 290.418C323.594 287.034 332.35 284.5 341.723 284.324Z" stroke="#BFC0F0" stroke-width="1.5"/>
        <path fill-rule="evenodd" clip-rule="evenodd" d="M118.33 -177.883C155.556 -177.195 166.946 -124.223 187.96 -93.5047C201.336 -73.9507 205.462 -50.664 218.766 -31.0606C235.95 -5.73943 277.969 6.99206 276.911 37.5697C275.888 67.1239 233.995 75.8256 214.302 97.896C195.006 119.521 190.568 157.831 162.647 165.628C134.673 173.44 109.935 145.752 83.1527 134.518C59.8369 124.737 34.6324 120.343 15.4462 103.882C-5.78247 85.668 -20.1813 61.9328 -31.3355 36.2886C-45.6789 3.31228 -76.7108 -34.9324 -58.3937 -65.8806C-39.3965 -97.9779 15.514 -76.1374 47.0255 -96.1086C78.2089 -115.872 81.4116 -178.565 118.33 -177.883Z" stroke="#BFC0F0" stroke-width="1.5"/>
        <path fill-rule="evenodd" clip-rule="evenodd" d="M114.644 -123.251C140.069 -122.781 147.849 -86.6143 162.201 -65.6413C171.337 -52.2908 174.155 -36.3918 183.241 -23.0076C194.977 -5.71956 223.676 2.97286 222.953 23.8498C222.255 44.0278 193.642 49.9689 180.192 65.0375C167.013 79.8019 163.982 105.958 144.912 111.282C125.806 116.615 108.911 97.7112 90.6187 90.041C74.6942 83.3635 57.4798 80.3634 44.3758 69.1243C29.8769 56.6888 20.0426 40.4836 12.4244 22.975C2.62803 0.460491 -18.5665 -25.651 -6.05608 -46.7809C6.91882 -68.6953 44.4221 -53.7838 65.9442 -67.4191C87.2422 -80.9124 89.4295 -123.716 114.644 -123.251Z" stroke="#BFC0F0" stroke-width="1.5"/>
        <path fill-rule="evenodd" clip-rule="evenodd" d="M110.642 -65.3404C123.533 -65.1018 127.478 -46.7247 134.755 -36.0679C139.387 -29.2842 140.816 -21.2056 145.423 -14.4048C151.374 -5.62042 165.926 -1.20362 165.559 9.40437C165.205 19.6573 150.697 22.676 143.877 30.3327C137.195 37.8348 135.658 51.1254 125.989 53.8303C116.301 56.5402 107.735 46.9349 98.4597 43.0375C90.3853 39.6445 81.6569 38.1201 75.0126 32.4093C67.661 26.0906 62.6746 17.8564 58.8119 8.9599C53.8447 -2.4802 43.0982 -15.748 49.4415 -26.4845C56.0203 -37.6197 75.0361 -30.0428 85.9487 -36.9712C96.7477 -43.8274 97.8568 -65.577 110.642 -65.3404Z" stroke="#BFC0F0" stroke-width="1.5"/>
    </g>
</svg>
