<svg width="103" height="15" viewBox="0 0 103 15" fill="none" xmlns="http://www.w3.org/2000/svg">
    <path d="M23.7612 13.8567V1.56055H32.2791V3.66135H26.3887V6.79969H31.7467V8.89188H26.3973V13.8567H23.7612Z" fill="#212121"/>
    <path d="M33.881 13.8568V0.686035H36.3539V13.8568H33.881Z" fill="#212121"/>
    <path d="M41.9658 4.05591C42.773 4.05591 43.4771 4.19311 44.0781 4.46749C44.6849 4.74189 45.1285 5.12489 45.4091 5.61651L45.5206 4.20168H47.882V13.8568H45.5206L45.4091 12.4334C44.8824 13.4738 43.7347 13.994 41.9658 13.994C41.3418 13.994 40.7494 13.8711 40.1884 13.6253C39.6331 13.3794 39.1465 13.0394 38.7286 12.6049C38.3165 12.1704 37.9931 11.6417 37.7584 11.0186C37.5237 10.3954 37.4063 9.73237 37.4063 9.02922C37.4063 8.32608 37.5237 7.66301 37.7584 7.0399C37.9931 6.41681 38.3165 5.88518 38.7286 5.44501C39.1465 5.01056 39.6331 4.67043 40.1884 4.42462C40.7494 4.17882 41.3418 4.05591 41.9658 4.05591ZM42.6356 11.9017C43.4083 11.9017 44.0667 11.6302 44.6105 11.0872C45.1428 10.5441 45.4091 9.85529 45.4091 9.02065C45.4091 8.18608 45.1428 7.50008 44.6105 6.96273C44.0724 6.42539 43.4141 6.15671 42.6356 6.15671C41.8571 6.15671 41.2073 6.42539 40.6864 6.96273C40.1541 7.50008 39.8878 8.18894 39.8878 9.02922C39.8878 9.85815 40.1541 10.5441 40.6864 11.0872C41.2187 11.6302 41.8685 11.9017 42.6356 11.9017Z" fill="#212121"/>
    <path d="M50.4027 4.20165V2.02368H52.8756V4.20165H55.2626V6.13096H52.8756V10.5126C52.8756 11.3015 53.1732 11.7388 53.7686 11.8246C54.2208 11.9218 54.7189 11.9161 55.2626 11.8074V13.8396C54.6215 13.9425 54.0205 13.994 53.4595 13.994C52.3547 13.994 51.5704 13.7167 51.1067 13.1622C50.6374 12.6077 50.4027 11.7531 50.4027 10.5984V6.13096H49.0889V4.20165H50.4027Z" fill="#212121"/>
    <path d="M60.9776 13.994C60.0159 13.994 59.14 13.7939 58.3501 13.3937C57.5658 12.9936 56.9362 12.4162 56.461 11.6617C55.9802 10.8957 55.7397 10.0182 55.7397 9.02922C55.7397 8.02887 55.9802 7.14851 56.461 6.38823C56.9419 5.62222 57.5773 5.042 58.3672 4.64757C59.1572 4.25313 60.0273 4.05591 60.9776 4.05591C61.9336 4.05591 62.8037 4.25599 63.5879 4.65614C64.3779 5.05629 65.0133 5.63365 65.4941 6.38823C65.975 7.14851 66.2154 8.02887 66.2154 9.02922C66.2154 10.0182 65.975 10.8957 65.4941 11.6617C65.0019 12.4334 64.3636 13.0136 63.5793 13.4023C62.7894 13.7968 61.9221 13.994 60.9776 13.994ZM60.9776 11.9017C61.7446 11.9017 62.4001 11.6302 62.944 11.0872C63.482 10.5498 63.7511 9.86101 63.7511 9.02065C63.7511 8.18608 63.482 7.50008 62.944 6.96273C62.4058 6.42539 61.7504 6.15671 60.9776 6.15671C60.1991 6.15671 59.5436 6.42539 59.0113 6.96273C58.4732 7.50008 58.2041 8.18608 58.2041 9.02065C58.2041 9.86101 58.4732 10.5498 59.0113 11.0872C59.5436 11.6302 60.1991 11.9017 60.9776 11.9017Z" fill="#212121"/>
    <path d="M76.7214 13.8568H74.2573V9.02922C74.2573 8.06886 74.0914 7.35144 73.7595 6.87699C73.4276 6.3968 72.9004 6.15671 72.1794 6.15671C71.3951 6.15671 70.7941 6.41395 70.3761 6.92843C69.9525 7.45436 69.7408 8.15458 69.7408 9.02922V13.8568H67.2678V4.20168H69.6377L69.7408 5.61651C70.3246 4.57611 71.4151 4.05591 73.012 4.05591C74.3346 4.05591 75.2823 4.47893 75.8545 5.32497C76.4325 6.17672 76.7214 7.41151 76.7214 9.02922V13.8568Z" fill="#212121"/>
    <path d="M79.3193 2.93254C78.9073 2.93254 78.5582 2.78964 78.2721 2.50381C77.986 2.21799 77.843 1.86929 77.843 1.4577C77.843 1.05754 77.986 0.714557 78.2721 0.428735C78.5582 0.142911 78.9073 0 79.3193 0C79.7206 0 80.0639 0.142911 80.35 0.428735C80.6361 0.714557 80.7792 1.05754 80.7792 1.4577C80.7792 1.86929 80.6361 2.21799 80.35 2.50381C80.0639 2.78964 79.7206 2.93254 79.3193 2.93254ZM78.0747 13.8567V4.2016H80.5474V13.8567H78.0747Z" fill="#212121"/>
    <path d="M86.7346 11.9532C87.2438 11.9532 87.7023 11.8274 88.1086 11.5759C88.5149 11.3244 88.8296 10.9642 89.0528 10.4955L91.3202 11.413C90.9189 12.2019 90.3038 12.8307 89.4741 13.2994C88.6379 13.7624 87.7252 13.994 86.7346 13.994C85.7732 13.994 84.897 13.7939 84.1073 13.3937C83.3227 12.9936 82.6932 12.4162 82.2183 11.6617C81.7369 10.8957 81.4966 10.0182 81.4966 9.02922C81.4966 8.02887 81.7369 7.14851 82.2183 6.38823C82.699 5.62222 83.3341 5.042 84.1245 4.64757C84.9142 4.25313 85.7847 4.05591 86.7346 4.05591C87.7252 4.05591 88.6379 4.28743 89.4741 4.75046C90.3038 5.21921 90.9189 5.84802 91.3202 6.63689L89.0528 7.56294C88.8296 7.09421 88.5149 6.73407 88.1086 6.48255C87.7023 6.23102 87.2438 6.10527 86.7346 6.10527C85.9563 6.10527 85.3004 6.37679 84.7683 6.91986C84.2304 7.45722 83.9614 8.15751 83.9614 9.02065C83.9614 9.88958 84.2304 10.5927 84.7683 11.13C85.3004 11.6788 85.9563 11.9532 86.7346 11.9532Z" fill="#212121"/>
    <path d="M96.4853 4.05591C97.2921 4.05591 97.9966 4.19311 98.5975 4.46749C99.204 4.74189 99.6482 5.12489 99.9286 5.61651L100.04 4.20168H102.401V13.8568H100.04L99.9286 12.4334C99.4022 13.4738 98.2541 13.994 96.4853 13.994C95.8615 13.994 95.2686 13.8711 94.7078 13.6253C94.1527 13.3794 93.6664 13.0394 93.2479 12.6049C92.8359 12.1704 92.5126 11.6417 92.278 11.0186C92.0434 10.3954 91.9261 9.73237 91.9261 9.02922C91.9261 8.32608 92.0434 7.66301 92.278 7.0399C92.5126 6.41681 92.8359 5.88518 93.2479 5.44501C93.6664 5.01056 94.1527 4.67043 94.7078 4.42462C95.2686 4.17882 95.8615 4.05591 96.4853 4.05591ZM97.1548 11.9017C97.928 11.9017 98.586 11.6302 99.1296 11.0872C99.6625 10.5441 99.9286 9.85529 99.9286 9.02065C99.9286 8.18608 99.6625 7.50008 99.1296 6.96273C98.5918 6.42539 97.9337 6.15671 97.1548 6.15671C96.3765 6.15671 95.7271 6.42539 95.2056 6.96273C94.6735 7.50008 94.4074 8.18894 94.4074 9.02922C94.4074 9.85815 94.6735 10.5441 95.2056 11.0872C95.7385 11.6302 96.388 11.9017 97.1548 11.9017Z" fill="#212121"/>
    <path fill-rule="evenodd" clip-rule="evenodd" d="M2.44013 1.09766H13.6466H16.956H17.1441L14.69 15.0001H6.1544L6.69544 11.9879H11.7528L12.1694 9.58988L12.1624 9.62316H7.10035L7.66778 6.61338H12.7784L13.1572 4.20724H5.33082L3.42068 14.9961L0 14.9772L1.91048 4.0633H1.91119L2.44013 1.09766Z" fill="#3A81FF"/>
</svg>
