<svg width="1024" height="992" viewBox="0 0 1024 992" fill="none" xmlns="http://www.w3.org/2000/svg">
    <path fill-rule="evenodd" clip-rule="evenodd" d="M490.353 121.373C536.227 146.033 577.322 175.77 625.07 196.577C674.919 218.3 727.728 226.396 778.139 246.782C860.708 280.172 986.66 272.523 1018.47 355.663C1047.89 432.586 925.386 491.047 901.762 569.942C880.149 642.118 916.242 722.981 887.607 792.673C856.462 868.47 810.13 951.626 733.237 980.086C655.296 1008.93 565.398 975.407 490.353 939.706C425.689 908.943 399.362 829.111 338.069 792.093C284.289 759.612 213.128 772.414 159.41 739.831C96.0291 701.386 4.89451 661.689 1.09306 587.698C-3.01578 507.724 130.25 475.857 141.777 396.611C154.849 306.739 40.1586 225.251 66.4582 138.32C89.7531 61.3216 180.995 4.32302 261.431 1.10727C348.667 -2.38031 413.466 80.044 490.353 121.373Z" stroke="black" stroke-opacity="0.04" stroke-width="2"/>
    <mask id="mask0_315_966" style="mask-type:alpha" maskUnits="userSpaceOnUse" x="34" y="42" width="957" height="927">
        <path fill-rule="evenodd" clip-rule="evenodd" d="M492.22 154.713C535.176 177.804 573.656 205.648 618.367 225.132C665.045 245.472 714.494 253.052 761.698 272.141C839.014 303.407 956.953 296.244 986.734 374.094C1014.29 446.121 899.577 500.862 877.456 574.737C857.218 642.319 891.015 718.036 864.201 783.293C835.038 854.267 791.654 932.132 719.652 958.781C646.669 985.793 562.491 954.4 492.22 920.97C431.67 892.165 407.018 817.413 349.625 782.751C299.267 752.337 232.633 764.324 182.332 733.814C122.983 697.816 37.6467 660.645 34.0871 591.362C30.2397 516.477 155.027 486.639 165.821 412.435C178.061 328.283 70.6673 251.98 95.2938 170.582C117.107 98.4829 202.544 45.1116 277.863 42.1004C359.548 38.8348 420.225 116.014 492.22 154.713Z" fill="#4F53CA"/>
    </mask>
    <g mask="url(#mask0_315_966)">
        <path fill-rule="evenodd" clip-rule="evenodd" d="M492.22 154.713C535.176 177.804 573.656 205.648 618.367 225.132C665.045 245.472 714.494 253.052 761.698 272.141C839.014 303.407 956.953 296.244 986.734 374.094C1014.29 446.121 899.577 500.862 877.456 574.737C857.218 642.319 891.015 718.036 864.201 783.293C835.038 854.267 791.654 932.132 719.652 958.781C646.669 985.793 562.491 954.4 492.22 920.97C431.67 892.165 407.018 817.413 349.625 782.751C299.267 752.337 232.633 764.324 182.332 733.814C122.983 697.816 37.6467 660.645 34.0871 591.362C30.2397 516.477 155.027 486.639 165.821 412.435C178.061 328.283 70.6673 251.98 95.2938 170.582C117.107 98.4829 202.544 45.1116 277.863 42.1004C359.548 38.8348 420.225 116.014 492.22 154.713Z" fill="#4F53CA"/>
        <g opacity="0.1">
            <path fill-rule="evenodd" clip-rule="evenodd" d="M692.821 823.86C700.11 839.172 700.001 855.888 700.956 872.821C701.924 889.99 706.776 908.05 698.417 923.086C689.802 938.584 672.024 945.267 656.212 953.307C638.243 962.444 620.607 974.819 600.547 972.853C578.777 970.719 554.425 961.705 544.294 942.335C534.293 923.213 547.164 900.7 551.782 879.616C555.116 864.392 560.279 850.623 567.414 836.764C575.543 820.976 581.555 803.585 596.145 793.451C613.338 781.511 634.914 769.74 654.876 776.019C674.789 782.282 683.854 805.022 692.821 823.86Z" stroke="#BFC0F0" stroke-width="1.5"/>
            <path fill-rule="evenodd" clip-rule="evenodd" d="M678.854 825.137C683.995 835.938 683.918 847.729 684.591 859.672C685.274 871.783 688.697 884.522 682.801 895.128C676.724 906.059 664.184 910.773 653.031 916.444C640.357 922.889 627.916 931.619 613.767 930.231C598.411 928.726 581.234 922.368 574.088 908.705C567.033 895.217 576.113 879.338 579.37 864.465C581.721 853.727 585.363 844.015 590.396 834.239C596.13 823.103 600.37 810.836 610.662 803.688C622.789 795.266 638.008 786.963 652.089 791.392C666.134 795.809 672.529 811.85 678.854 825.137Z" stroke="#BFC0F0" stroke-width="1.5"/>
            <path fill-rule="evenodd" clip-rule="evenodd" d="M658.752 841.172C661.859 847.698 661.812 854.823 662.219 862.04C662.632 869.358 664.7 877.056 661.137 883.464C657.465 890.07 649.888 892.918 643.149 896.345C635.49 900.24 627.973 905.515 619.423 904.676C610.144 903.767 599.764 899.925 595.446 891.669C591.183 883.519 596.67 873.923 598.638 864.936C600.059 858.448 602.259 852.579 605.3 846.672C608.765 839.942 611.328 832.53 617.546 828.211C624.874 823.122 634.071 818.104 642.579 820.781C651.066 823.45 654.93 833.143 658.752 841.172Z" stroke="#BFC0F0" stroke-width="1.5"/>
            <path fill-rule="evenodd" clip-rule="evenodd" d="M444.784 489.609C478.509 490.306 493.215 533.804 520.709 553.337C546.409 571.595 581.228 575.427 600.59 600.299C622.27 628.15 641.99 664.255 633.768 698.571C625.562 732.823 583.715 745.159 559.706 770.94C536.846 795.487 526.289 831.545 496.17 846.325C464.054 862.085 425.546 863.82 391.26 853.599C357.043 843.397 332.231 816.065 307.697 790.135C282.142 763.126 252.249 736.622 245.924 699.99C239.544 663.039 250.165 622.523 273.716 593.334C295.635 566.167 336.959 568.258 366.813 550.157C395.534 532.742 411.197 488.915 444.784 489.609Z" stroke="#BFC0F0" stroke-width="1.5"/>
            <path fill-rule="evenodd" clip-rule="evenodd" d="M443.573 532.22C469.561 532.757 480.894 566.248 502.08 581.287C521.884 595.344 548.715 598.296 563.635 617.446C580.342 638.889 595.538 666.688 589.202 693.11C582.878 719.482 550.631 728.98 532.13 748.83C514.515 767.73 506.38 795.493 483.171 806.872C458.422 819.006 428.749 820.343 402.328 812.472C375.961 804.618 356.841 783.574 337.936 763.609C318.244 742.813 295.208 722.407 290.334 694.202C285.418 665.752 293.603 634.557 311.751 612.082C328.641 591.166 360.485 592.775 383.49 578.838C405.622 565.43 417.692 531.686 443.573 532.22Z" stroke="#BFC0F0" stroke-width="1.5"/>
            <path fill-rule="evenodd" clip-rule="evenodd" d="M442.474 573.742C460.929 574.122 468.977 597.861 484.022 608.521C498.086 618.485 517.14 620.577 527.735 634.151C539.599 649.35 550.391 669.054 545.891 687.782C541.401 706.475 518.501 713.208 505.362 727.277C492.853 740.674 487.075 760.353 470.594 768.418C453.019 777.019 431.946 777.967 413.184 772.388C394.459 766.821 380.881 751.904 367.456 737.753C353.472 723.013 337.113 708.548 333.652 688.557C330.16 668.391 335.973 646.279 348.861 630.349C360.855 615.523 383.469 616.664 399.806 606.785C415.523 597.281 424.094 573.363 442.474 573.742Z" stroke="#BFC0F0" stroke-width="1.5"/>
            <path fill-rule="evenodd" clip-rule="evenodd" d="M441.369 615.26C452.197 615.485 456.919 629.471 465.747 635.752C473.998 641.623 485.178 642.855 491.395 650.853C498.356 659.808 504.687 671.418 502.047 682.452C499.413 693.466 485.976 697.432 478.267 705.722C470.928 713.615 467.538 725.209 457.868 729.962C447.556 735.029 435.192 735.587 424.183 732.301C413.197 729.02 405.23 720.232 397.353 711.894C389.148 703.209 379.55 694.687 377.519 682.908C375.471 671.027 378.881 657.999 386.443 648.613C393.48 639.878 406.749 640.55 416.334 634.729C425.556 629.13 430.585 615.037 441.369 615.26Z" stroke="#BFC0F0" stroke-width="1.5"/>
            <path fill-rule="evenodd" clip-rule="evenodd" d="M904.798 331.671C927.308 321.444 953.65 315.562 977.033 323.623C999.638 331.415 1009.74 356.494 1026.44 373.606C1042.61 390.165 1064.57 401.299 1073.64 422.586C1083.54 445.821 1087.66 472.961 1078.86 496.624C1070.09 520.192 1048.79 537.02 1026.64 548.92C1006.54 559.719 983.318 561.416 960.529 560.199C940.039 559.105 922.035 549.795 902.925 542.316C881.153 533.795 854.111 532.389 840.639 513.278C827.016 493.953 831.473 467.671 833.721 444.14C835.897 421.353 841.16 399.15 853.387 379.803C866.188 359.548 882.982 341.584 904.798 331.671Z" stroke="#BFC0F0" stroke-width="1.5"/>
            <path fill-rule="evenodd" clip-rule="evenodd" d="M914.331 356.944C931.918 348.954 952.498 344.359 970.767 350.656C988.427 356.744 996.321 376.338 1009.37 389.707C1022 402.644 1039.15 411.343 1046.24 427.974C1053.98 446.127 1057.2 467.331 1050.32 485.818C1043.47 504.231 1026.83 517.378 1009.53 526.676C993.823 535.112 975.677 536.438 957.872 535.488C941.865 534.633 927.798 527.359 912.868 521.516C895.858 514.858 874.73 513.76 864.205 498.829C853.562 483.731 857.044 463.197 858.8 444.814C860.5 427.01 864.612 409.664 874.165 394.548C884.166 378.723 897.287 364.688 914.331 356.944Z" stroke="#BFC0F0" stroke-width="1.5"/>
            <path fill-rule="evenodd" clip-rule="evenodd" d="M924.333 383.437C936.759 377.792 951.3 374.545 964.208 378.995C976.686 383.296 982.264 397.14 991.484 406.586C1000.41 415.727 1012.53 421.873 1017.53 433.624C1023 446.45 1025.28 461.431 1020.42 474.494C1015.58 487.503 1003.82 496.793 991.594 503.362C980.499 509.323 967.677 510.259 955.098 509.588C943.787 508.984 933.849 503.844 923.3 499.716C911.281 495.012 896.353 494.236 888.917 483.687C881.397 473.019 883.857 458.511 885.098 445.522C886.299 432.943 889.204 420.687 895.954 410.007C903.02 398.826 912.291 388.909 924.333 383.437Z" stroke="#BFC0F0" stroke-width="1.5"/>
            <path fill-rule="evenodd" clip-rule="evenodd" d="M933.239 407.05C941.066 403.494 950.224 401.449 958.354 404.251C966.213 406.961 969.725 415.68 975.533 421.629C981.153 427.386 988.787 431.257 991.94 438.658C995.382 446.736 996.817 456.172 993.757 464.399C990.709 472.593 983.303 478.444 975.602 482.581C968.614 486.336 960.539 486.926 952.615 486.503C945.492 486.122 939.232 482.885 932.588 480.285C925.019 477.322 915.617 476.834 910.933 470.19C906.197 463.471 907.746 454.333 908.528 446.152C909.284 438.23 911.114 430.51 915.365 423.784C919.816 416.741 925.655 410.496 933.239 407.05Z" stroke="#BFC0F0" stroke-width="1.5"/>
            <path fill-rule="evenodd" clip-rule="evenodd" d="M87.5848 822.929C58.873 828.07 27.7449 820.884 3.96992 803.994C-19.3909 787.399 -27.5141 757.974 -40.0872 732.232C-53.0165 705.762 -79.4183 679.343 -70.6506 651.22C-61.6628 622.392 -21.1105 619.47 1.36064 599.286C19.9705 582.571 28.3693 557.274 49.2615 543.514C75.4434 526.269 104.134 509.936 135.474 510.953C170.617 512.092 216.925 517.388 231.389 549.42C247.094 584.197 211.635 620.729 201.679 657.563C196.067 678.327 193.609 698.735 185.633 718.711C177.247 739.714 169.433 760.667 153.933 777.142C135.142 797.116 114.587 818.095 87.5848 822.929Z" stroke="#BFC0F0" stroke-width="1.5"/>
            <path fill-rule="evenodd" clip-rule="evenodd" d="M86.5073 795.299C62.8944 799.526 37.2943 793.617 17.7414 779.731C-1.47079 766.088 -8.15145 741.896 -18.4917 720.733C-29.1249 698.97 -50.8381 677.25 -43.6274 654.129C-36.2358 630.427 -2.88507 628.025 15.5955 611.431C30.9005 597.689 37.8077 576.891 54.9898 565.578C76.5221 551.4 100.118 537.973 125.892 538.808C154.794 539.745 192.878 544.099 204.774 570.434C217.689 599.026 188.528 629.06 180.34 659.344C175.724 676.414 173.703 693.193 167.143 709.616C160.246 726.884 153.82 744.11 141.073 757.655C125.619 774.076 108.714 791.324 86.5073 795.299Z" stroke="#BFC0F0" stroke-width="1.5"/>
            <path fill-rule="evenodd" clip-rule="evenodd" d="M85.2003 762.318C67.7074 765.452 48.7423 761.071 34.2571 750.774C20.0243 740.657 15.0752 722.718 7.41488 707.025C-0.462434 690.888 -16.548 674.782 -11.2062 657.637C-5.73028 640.062 18.9766 638.281 32.6674 625.976C44.0056 615.785 49.1227 600.363 61.8515 591.974C77.803 581.461 95.2834 571.504 114.377 572.124C135.789 572.819 164.002 576.047 172.815 595.575C182.383 616.777 160.779 639.048 154.713 661.504C151.294 674.162 149.796 686.604 144.937 698.782C139.828 711.587 135.067 724.361 125.624 734.404C114.175 746.581 101.651 759.371 85.2003 762.318Z" stroke="#BFC0F0" stroke-width="1.5"/>
            <path fill-rule="evenodd" clip-rule="evenodd" d="M84.0745 733.665C71.8856 735.85 58.6709 732.796 48.5777 725.617C38.6604 718.564 35.2118 706.058 29.8742 695.118C24.3854 683.868 13.1771 672.64 16.8992 660.687C20.7148 648.435 37.9303 647.193 47.47 638.615C55.3704 631.511 58.9359 620.759 67.8052 614.911C78.9202 607.582 91.1004 600.64 104.405 601.072C119.324 601.557 138.983 603.808 145.124 617.421C151.791 632.202 136.737 647.728 132.511 663.383C130.128 672.208 129.085 680.882 125.699 689.371C122.139 698.298 118.821 707.203 112.241 714.205C104.264 722.694 95.5375 731.61 84.0745 733.665Z" stroke="#BFC0F0" stroke-width="1.5"/>
            <path fill-rule="evenodd" clip-rule="evenodd" d="M865.678 578.152C894.092 577.619 921.851 581.812 947.809 593.373C977.135 606.433 1005.94 622.352 1024.19 648.75C1044.36 677.909 1069.8 716.116 1054.93 748.297C1038.99 782.817 980.429 770.18 955.036 798.488C930.402 825.948 947.769 878.201 918.387 900.514C889.158 922.711 845.453 920.028 810.753 908.056C776.631 896.284 750.521 867.683 732.547 836.396C716.404 808.295 721.676 774.503 715.729 742.649C709.451 709.022 681.884 674.812 696.617 643.937C711.38 612.998 753.546 608.856 785.506 596.42C811.576 586.276 837.706 578.677 865.678 578.152Z" stroke="#BFC0F0" stroke-width="1.5"/>
            <path fill-rule="evenodd" clip-rule="evenodd" d="M867.714 614.201C890.1 613.78 911.969 617.084 932.42 626.194C955.523 636.485 978.218 649.028 992.598 669.828C1008.48 692.803 1028.53 722.908 1016.82 748.266C1004.25 775.465 958.119 765.508 938.113 787.813C918.706 809.45 932.388 850.623 909.24 868.204C886.212 885.694 851.78 883.58 824.442 874.147C797.56 864.871 776.99 842.335 762.829 817.683C750.111 795.541 754.265 768.914 749.58 743.815C744.634 717.319 722.915 690.364 734.523 666.035C746.154 641.657 779.373 638.394 804.552 628.595C825.091 620.602 845.677 614.615 867.714 614.201Z" stroke="#BFC0F0" stroke-width="1.5"/>
            <path fill-rule="evenodd" clip-rule="evenodd" d="M870.201 655.712C885.646 655.422 900.735 657.699 914.846 663.977C930.787 671.069 946.446 679.713 956.368 694.048C967.328 709.882 981.157 730.629 973.078 748.104C964.411 766.849 932.578 759.987 918.774 775.359C905.384 790.27 914.824 818.645 898.853 830.761C882.964 842.814 859.207 841.358 840.344 834.857C821.796 828.464 807.603 812.933 797.832 795.944C789.057 780.684 791.923 762.334 788.69 745.037C785.278 726.777 770.292 708.2 778.301 691.434C786.326 674.634 809.247 672.385 826.62 665.632C840.791 660.123 854.996 655.997 870.201 655.712Z" stroke="#BFC0F0" stroke-width="1.5"/>
            <path fill-rule="evenodd" clip-rule="evenodd" d="M872.324 691.212C881.845 691.034 891.147 692.433 899.845 696.289C909.672 700.645 919.325 705.955 925.441 714.76C932.197 724.486 940.722 737.23 935.741 747.964C930.399 759.477 910.776 755.262 902.267 764.705C894.012 773.864 899.832 791.293 889.986 798.735C880.192 806.139 865.547 805.244 853.919 801.251C842.485 797.324 833.736 787.784 827.713 777.349C822.303 767.976 824.07 756.704 822.077 746.08C819.974 734.863 810.736 723.453 815.673 713.154C820.62 702.835 834.75 701.453 845.459 697.305C854.195 693.922 862.951 691.387 872.324 691.212Z" stroke="#BFC0F0" stroke-width="1.5"/>
            <path fill-rule="evenodd" clip-rule="evenodd" d="M246.706 230.875C274.827 232.865 302.278 228.599 329.388 236.327C364.846 246.436 407.957 251.137 427.468 282.407C446.965 313.653 440.689 357.003 425.668 390.629C411.955 421.326 373.354 430.137 350.468 454.773C328.733 478.168 326.697 524.206 295.444 530.806C263.516 537.548 242.27 495.481 211.697 484.077C184.379 473.888 150.981 485.419 127.486 468.16C102.322 449.674 77.1767 419.495 81.7451 388.617C86.5233 356.321 135.887 350.22 149.337 320.47C162.884 290.507 131.938 246.338 156.141 224.067C178.873 203.15 215.884 228.694 246.706 230.875Z" stroke="#BFC0F0" stroke-width="1.5"/>
            <path fill-rule="evenodd" clip-rule="evenodd" d="M250.153 265.987C271.337 267.489 292.015 264.269 312.436 270.102C339.146 277.73 371.62 281.278 386.318 304.875C401.005 328.456 396.277 361.17 384.962 386.545C374.632 409.711 345.555 416.36 328.315 434.951C311.943 452.607 310.409 487.349 286.867 492.33C262.816 497.418 246.811 465.672 223.782 457.066C203.203 449.377 178.046 458.079 160.347 445.054C141.391 431.104 122.45 408.329 125.891 385.027C129.491 360.655 166.675 356.051 176.807 333.6C187.012 310.988 163.701 277.656 181.932 260.85C199.056 245.064 226.935 264.341 250.153 265.987Z" stroke="#BFC0F0" stroke-width="1.5"/>
            <path fill-rule="evenodd" clip-rule="evenodd" d="M254.135 307.522C267.17 308.445 279.895 306.466 292.463 310.051C308.899 314.74 328.884 316.921 337.928 331.426C346.966 345.92 344.057 366.029 337.094 381.627C330.737 395.866 312.843 399.953 302.234 411.381C292.159 422.233 291.215 443.589 276.727 446.65C261.927 449.778 252.078 430.264 237.906 424.974C225.242 420.248 209.761 425.597 198.869 417.591C187.204 409.016 175.548 395.017 177.666 380.693C179.881 365.712 202.763 362.882 208.999 349.082C215.278 335.183 200.933 314.695 212.152 304.364C222.69 294.661 239.847 306.51 254.135 307.522Z" stroke="#BFC0F0" stroke-width="1.5"/>
            <path fill-rule="evenodd" clip-rule="evenodd" d="M648.931 229.005C686.157 229.692 697.547 282.664 718.561 313.383C731.937 332.937 736.063 356.224 749.367 375.827C766.55 401.148 808.57 413.88 807.512 444.457C806.488 474.012 764.595 482.713 744.902 504.784C725.607 526.409 721.169 564.719 693.248 572.516C665.274 580.327 640.536 552.64 613.754 541.405C590.438 531.625 565.233 527.231 546.047 510.77C524.818 492.556 510.42 468.82 499.265 443.176C484.922 410.2 453.89 371.955 472.207 341.007C491.204 308.91 546.115 330.75 577.626 310.779C608.81 291.016 612.012 228.322 648.931 229.005Z" stroke="#BFC0F0" stroke-width="1.5"/>
            <path fill-rule="evenodd" clip-rule="evenodd" d="M645.245 283.637C670.67 284.107 678.45 320.273 692.802 341.246C701.938 354.597 704.756 370.496 713.842 383.88C725.578 401.168 754.277 409.861 753.554 430.737C752.856 450.916 724.243 456.857 710.793 471.925C697.614 486.69 694.583 512.846 675.513 518.169C656.407 523.502 639.512 504.599 621.22 496.929C605.295 490.251 588.081 487.251 574.977 476.012C560.478 463.577 550.644 447.371 543.025 429.863C533.229 407.348 512.035 381.237 524.545 360.107C537.52 338.192 575.023 353.104 596.545 339.469C617.843 325.975 620.031 283.171 645.245 283.637Z" stroke="#BFC0F0" stroke-width="1.5"/>
            <path fill-rule="evenodd" clip-rule="evenodd" d="M641.243 341.547C654.134 341.786 658.079 360.163 665.356 370.82C669.988 377.603 671.417 385.682 676.024 392.483C681.975 401.267 696.527 405.684 696.16 416.292C695.806 426.545 681.298 429.564 674.478 437.22C667.796 444.722 666.259 458.013 656.59 460.718C646.902 463.428 638.335 453.823 629.061 449.925C620.986 446.532 612.258 445.008 605.614 439.297C598.262 432.978 593.276 424.744 589.413 415.848C584.446 404.407 573.699 391.14 580.042 380.403C586.621 369.268 605.637 376.845 616.55 369.916C627.349 363.06 628.458 341.311 641.243 341.547Z" stroke="#BFC0F0" stroke-width="1.5"/>
        </g>
    </g>
</svg>
