<svg width="156" height="268" viewBox="0 0 156 268" fill="none" xmlns="http://www.w3.org/2000/svg">
    <g filter="url(#filter0_bdd_89_5925)">
        <rect width="36.999" height="158.017" rx="18.4995" transform="matrix(0.987688 0.156434 -0.269424 0.963022 95.5735 25)" fill="url(#paint0_linear_89_5925)" fill-opacity="0.9"/>
    </g>
    <rect width="24.7228" height="24.6305" rx="12.3153" transform="matrix(0.987471 0.157198 -0.267754 0.963281 99.952 31.9031)" fill="#F7931A"/>
    <path d="M114.721 44.8822C115.401 43.343 114.398 42.2968 112.86 41.4604L114.002 39.4105L112.75 38.872L111.638 40.8679C111.309 40.7264 110.969 40.5881 110.631 40.451L111.751 38.4419L110.5 37.9036L109.358 39.9527C109.083 39.8416 108.814 39.7321 108.555 39.6206L108.558 39.6142L106.832 38.8707L106.09 40.2035C106.09 40.2035 107.024 40.5837 106.999 40.594C107.506 40.8124 107.508 41.1768 107.415 41.4506L106.114 43.786C106.149 43.8012 106.194 43.8223 106.241 43.8516C106.2 43.8337 106.155 43.8143 106.109 43.7949L104.286 47.0663C104.175 47.2158 103.94 47.429 103.586 47.2772C103.594 47.2982 102.676 46.8854 102.676 46.8854L101.597 48.2686L103.226 48.9695C103.529 49.1003 103.825 49.2337 104.116 49.3616L102.962 51.4351L104.212 51.9733L105.355 49.922C105.694 50.0768 106.025 50.2225 106.35 50.3617L105.212 52.4034L106.464 52.9419L107.617 50.8725C109.789 51.6576 111.556 51.7629 112.836 49.8717C113.868 48.349 113.513 47.3191 112.478 46.5191C113.409 46.463 114.224 46.0092 114.721 44.8822V44.8822ZM110.5 48.5617C109.637 50.1114 107.074 48.79 106.225 48.4257L107.756 45.6789C108.604 46.0443 111.4 46.9457 110.5 48.5617ZM112.076 44.4356C111.291 45.8451 109.163 44.7255 108.456 44.4215L109.844 41.9302C110.551 42.2342 112.895 42.9653 112.076 44.4356Z" fill="white"/>
    <rect width="24.7545" height="24.6087" rx="12.3043" transform="matrix(0.987327 0.157707 -0.266862 0.963421 91.6171 61.5955)" fill="url(#paint1_linear_89_5925)"/>
    <path d="M99.6509 77.2263L96.5838 75.0435L98.449 81.5653L103.616 76.1668L99.6509 77.2263Z" fill="white"/>
    <path d="M103.566 74.8965L101.897 69.1179L97.2959 73.9012L100.833 72.9589L103.566 74.8965Z" fill="white"/>
    <path d="M97.3782 74.6289L99.8791 76.4025L103.113 75.5418L100.609 73.7677L97.3782 74.6289Z" fill="white"/>
    <rect width="24.7228" height="24.6305" rx="12.3153" transform="matrix(0.987471 0.157198 -0.267754 0.963281 83.3379 91.2878)" fill="#A5A5A5"/>
    <g clip-path="url(#clip0_89_5925)">
        <path d="M88.8918 115.776C95.2191 116.787 101.727 112.63 103.427 106.493C105.127 100.355 101.376 94.5599 95.0485 93.5492C88.7212 92.5386 82.2136 96.6949 80.5135 102.833C78.8134 108.97 82.5645 114.765 88.8918 115.776Z" fill="#A5A5A5"/>
        <path d="M88.0509 108.388L90.4849 104.151L93.7176 103.58L94.8416 101.624L91.6099 102.191L94.4198 97.3017L92.5677 97.0058L89.358 102.59L86.1974 103.145L85.0735 105.101L88.2341 104.545L85.2401 109.754L95.5244 111.396L96.483 109.735L88.0509 108.388ZM88.0509 108.388L90.4849 104.151L93.7176 103.58L94.8416 101.624L91.6099 102.191L94.4198 97.3017L92.5677 97.0058L89.358 102.59L86.1974 103.145L85.0735 105.101L88.2341 104.545L85.2401 109.754L95.5244 111.396L96.483 109.735L88.0509 108.388ZM88.0509 108.388L90.4849 104.151L93.7176 103.58L94.8416 101.624L91.6099 102.191L94.4198 97.3017L92.5677 97.0058L89.358 102.59L86.1974 103.145L85.0735 105.101L88.2341 104.545L85.2401 109.754L95.5244 111.396L96.483 109.735L88.0509 108.388Z" fill="white"/>
    </g>
    <rect width="24.7228" height="24.6305" rx="12.3153" transform="matrix(0.987471 0.157198 -0.267754 0.963281 75.0309 120.98)" fill="#1273BF"/>
    <path d="M82.6762 133.757L77.1684 132.88L75.9535 134.8L81.4613 135.677L82.6762 133.757Z" fill="white"/>
    <path d="M91.9786 133.782C91.0612 135.32 90.1264 136.863 89.0444 138.305C88.1265 139.529 86.7955 140.076 85.2801 139.839C82.2035 139.357 79.1338 138.864 76.0593 138.375C75.9397 138.089 75.8395 137.79 75.7603 137.487C75.9785 137.146 76.2106 136.785 76.3746 136.524L76.6273 136.131L77.024 136.194C79.6494 136.608 82.2776 137.027 84.902 137.444C85.9701 137.614 85.9701 137.614 86.5664 136.687C87.1844 135.725 87.7844 134.756 88.4184 133.808C88.6373 133.479 88.5813 133.408 88.2217 133.354C85.4254 132.925 79.3155 131.948 79.3155 131.948L80.6534 129.858C80.6534 129.858 87.6971 130.971 91.0432 131.516C91.4742 131.584 91.8058 131.796 92.0142 132.092C92.217 132.38 92.2977 132.749 92.2238 133.144C92.1862 133.351 92.1063 133.566 91.9786 133.782Z" fill="white"/>
    <path d="M79.3085 131.959L79.3156 131.948L79.3117 131.948L79.3085 131.959Z" fill="white"/>
    <g filter="url(#filter1_ddd_89_5925)">
        <rect width="24.7228" height="24.6305" rx="12.3153" transform="matrix(0.987471 0.157198 -0.267754 0.963281 66.7239 150.673)" fill="white"/>
    </g>
    <path d="M70.3172 166.974C70.4093 166.643 70.4983 166.323 70.5842 166.014C70.67 165.705 70.751 165.414 70.827 165.14L71.1584 163.948C71.2344 163.675 71.3153 163.383 71.4012 163.074C71.487 162.766 71.576 162.445 71.6681 162.114L72.9842 162.324C72.8921 162.655 72.8031 162.975 72.7172 163.284C72.6314 163.593 72.5504 163.884 72.4744 164.158L72.143 165.35C72.067 165.623 71.9861 165.914 71.9002 166.223C71.8144 166.532 71.7254 166.852 71.6333 167.184L70.3172 166.974ZM69.023 164.883L69.3705 163.633C69.7102 163.687 70.0384 163.74 70.355 163.79C70.6717 163.84 70.9685 163.888 71.2456 163.932L72.3983 164.115C72.6787 164.16 72.9772 164.207 73.2938 164.258C73.6105 164.308 73.9387 164.36 74.2784 164.415L73.9309 165.665C73.5912 165.61 73.263 165.558 72.9464 165.508C72.6297 165.457 72.3312 165.41 72.0509 165.365L70.8981 165.182C70.6211 165.138 70.3242 165.09 70.0076 165.04C69.6909 164.99 69.3627 164.937 69.023 164.883ZM76.7243 168.649C76.1141 168.552 75.6353 168.385 75.2878 168.148C74.9436 167.912 74.7174 167.629 74.6093 167.3C74.5044 166.97 74.5052 166.614 74.6117 166.232C74.7101 165.878 74.8603 165.597 75.0623 165.391C75.2652 165.181 75.488 165.03 75.7307 164.938C75.9775 164.843 76.2149 164.788 76.4427 164.774L76.4735 164.663C76.2735 164.578 76.1014 164.459 75.9572 164.309C75.8164 164.159 75.718 163.98 75.6619 163.773C75.6067 163.563 75.6153 163.327 75.6878 163.066C75.7835 162.722 75.9644 162.437 76.2305 162.21C76.5009 161.981 76.8404 161.825 77.2492 161.743C77.6613 161.66 78.1262 161.66 78.644 161.743C79.1619 161.825 79.5858 161.967 79.9159 162.167C80.246 162.367 80.4721 162.613 80.5942 162.905C80.7206 163.194 80.7359 163.511 80.6402 163.855C80.5678 164.115 80.4503 164.334 80.2878 164.509C80.1295 164.682 79.9426 164.816 79.7272 164.909C79.5151 165.003 79.2964 165.059 79.071 165.077L79.0401 165.188C79.2411 165.27 79.4276 165.392 79.5996 165.554C79.775 165.716 79.8997 165.924 79.9738 166.178C80.0488 166.428 80.0376 166.729 79.9401 167.08C79.8337 167.463 79.6433 167.788 79.3688 168.057C79.0976 168.327 78.7416 168.517 78.3008 168.628C77.86 168.739 77.3345 168.746 76.7243 168.649ZM77.0691 167.409C77.3363 167.451 77.5651 167.446 77.7557 167.392C77.9496 167.339 78.1049 167.251 78.2216 167.129C78.3392 167.003 78.4222 166.853 78.4705 166.679C78.525 166.483 78.5216 166.31 78.4602 166.159C78.4021 166.008 78.2934 165.885 78.1341 165.789C77.979 165.691 77.7892 165.624 77.565 165.588C77.344 165.553 77.1362 165.557 76.9417 165.6C76.7515 165.64 76.588 165.72 76.4515 165.839C76.3183 165.959 76.2244 166.117 76.1699 166.313C76.1216 166.487 76.1178 166.649 76.1585 166.8C76.2001 166.948 76.2955 167.076 76.4446 167.184C76.5938 167.291 76.8019 167.366 77.0691 167.409ZM77.8727 164.518C78.1893 164.568 78.4561 164.532 78.6729 164.408C78.8898 164.285 79.0313 164.104 79.0974 163.866C79.1672 163.615 79.1281 163.409 78.98 163.248C78.8353 163.087 78.6128 162.983 78.3127 162.935C78.0125 162.887 77.7534 162.915 77.5354 163.018C77.3173 163.121 77.1734 163.298 77.1036 163.549C77.0589 163.71 77.0575 163.857 77.0993 163.992C77.1445 164.127 77.2319 164.24 77.3616 164.331C77.4912 164.422 77.6616 164.484 77.8727 164.518Z" fill="#212121"/>
    <defs>
        <filter id="filter0_bdd_89_5925" x="0.101067" y="0.482594" width="184.915" height="267.067" filterUnits="userSpaceOnUse" color-interpolation-filters="sRGB">
            <feFlood flood-opacity="0" result="BackgroundImageFix"/>
            <feGaussianBlur in="BackgroundImage" stdDeviation="12.333"/>
            <feComposite in2="SourceAlpha" operator="in" result="effect1_backgroundBlur_89_5925"/>
            <feColorMatrix in="SourceAlpha" type="matrix" values="0 0 0 0 0 0 0 0 0 0 0 0 0 0 0 0 0 0 127 0" result="hardAlpha"/>
            <feOffset dy="3.76093"/>
            <feGaussianBlur stdDeviation="3.58184"/>
            <feColorMatrix type="matrix" values="0 0 0 0 0 0 0 0 0 0 0 0 0 0 0 0 0 0 0.035 0"/>
            <feBlend mode="normal" in2="effect1_backgroundBlur_89_5925" result="effect2_dropShadow_89_5925"/>
            <feColorMatrix in="SourceAlpha" type="matrix" values="0 0 0 0 0 0 0 0 0 0 0 0 0 0 0 0 0 0 127 0" result="hardAlpha"/>
            <feOffset dy="30.0357"/>
            <feGaussianBlur stdDeviation="28.6054"/>
            <feColorMatrix type="matrix" values="0 0 0 0 0 0 0 0 0 0 0 0 0 0 0 0 0 0 0.07 0"/>
            <feBlend mode="normal" in2="effect2_dropShadow_89_5925" result="effect3_dropShadow_89_5925"/>
            <feBlend mode="normal" in="SourceGraphic" in2="effect3_dropShadow_89_5925" result="shape"/>
        </filter>
        <filter id="filter1_ddd_89_5925" x="1.32244" y="104.666" width="148.621" height="147.374" filterUnits="userSpaceOnUse" color-interpolation-filters="sRGB">
            <feFlood flood-opacity="0" result="BackgroundImageFix"/>
            <feColorMatrix in="SourceAlpha" type="matrix" values="0 0 0 0 0 0 0 0 0 0 0 0 0 0 0 0 0 0 127 0" result="hardAlpha"/>
            <feOffset dy="0.922677"/>
            <feGaussianBlur stdDeviation="2.05039"/>
            <feColorMatrix type="matrix" values="0 0 0 0 0 0 0 0 0 0 0 0 0 0 0 0 0 0 0.0282725 0"/>
            <feBlend mode="normal" in2="BackgroundImageFix" result="effect1_dropShadow_89_5925"/>
            <feColorMatrix in="SourceAlpha" type="matrix" values="0 0 0 0 0 0 0 0 0 0 0 0 0 0 0 0 0 0 127 0" result="hardAlpha"/>
            <feOffset dy="3.09908"/>
            <feGaussianBlur stdDeviation="6.88684"/>
            <feColorMatrix type="matrix" values="0 0 0 0 0 0 0 0 0 0 0 0 0 0 0 0 0 0 0.0417275 0"/>
            <feBlend mode="normal" in2="effect1_dropShadow_89_5925" result="effect2_dropShadow_89_5925"/>
            <feColorMatrix in="SourceAlpha" type="matrix" values="0 0 0 0 0 0 0 0 0 0 0 0 0 0 0 0 0 0 127 0" result="hardAlpha"/>
            <feOffset dy="13.8746"/>
            <feGaussianBlur stdDeviation="30.8325"/>
            <feColorMatrix type="matrix" values="0 0 0 0 0 0 0 0 0 0 0 0 0 0 0 0 0 0 0.07 0"/>
            <feBlend mode="normal" in2="effect2_dropShadow_89_5925" result="effect3_dropShadow_89_5925"/>
            <feBlend mode="normal" in="SourceGraphic" in2="effect3_dropShadow_89_5925" result="shape"/>
        </filter>
        <linearGradient id="paint0_linear_89_5925" x1="0" y1="0" x2="40.0502" y2="0.777161" gradientUnits="userSpaceOnUse">
            <stop stop-color="white"/>
            <stop offset="1" stop-color="#F4F9FF"/>
        </linearGradient>
        <linearGradient id="paint1_linear_89_5925" x1="12.3773" y1="0" x2="12.3773" y2="24.6087" gradientUnits="userSpaceOnUse">
            <stop stop-color="#4A819F"/>
            <stop offset="1" stop-color="#034681"/>
        </linearGradient>
        <clipPath id="clip0_89_5925">
            <rect width="23.2074" height="23.0706" fill="white" transform="matrix(0.987327 0.157707 -0.266862 0.963421 83.5918 91.7192)"/>
        </clipPath>
    </defs>
</svg>
