<svg width="107" height="320" viewBox="0 0 107 320" fill="none" xmlns="http://www.w3.org/2000/svg">
    <mask id="mask0_87_980" style="mask-type:alpha" maskUnits="userSpaceOnUse" x="0" y="0" width="560" height="542">
        <path fill-rule="evenodd" clip-rule="evenodd" d="M267.913 65.9014C293.029 79.4018 315.527 95.6823 341.669 107.074C368.96 118.966 397.872 123.398 425.472 134.559C470.677 152.84 539.634 148.652 557.046 194.169C573.157 236.282 506.087 268.288 493.153 311.481C481.321 350.996 501.081 395.266 485.403 433.421C468.352 474.918 442.986 520.444 400.888 536.025C358.217 551.819 308.999 533.463 267.913 513.918C232.511 497.076 218.097 453.37 184.54 433.104C155.097 415.321 116.137 422.33 86.7272 404.491C52.027 383.444 2.13218 361.71 0.0509468 321.202C-2.19858 277.418 70.7622 259.972 77.0731 216.587C84.23 167.384 21.4387 122.772 35.8373 75.1794C48.591 33.0246 98.5443 1.81927 142.582 0.0587275C190.342 -1.85063 225.819 43.2746 267.913 65.9014Z" fill="#4F53CA"/>
    </mask>
    <g mask="url(#mask0_87_980)">
        <path fill-rule="evenodd" clip-rule="evenodd" d="M267.913 65.9014C293.029 79.4018 315.527 95.6823 341.669 107.074C368.96 118.966 397.872 123.398 425.471 134.559C470.677 152.84 539.634 148.652 557.046 194.169C573.157 236.282 506.087 268.288 493.153 311.481C481.321 350.996 501.081 395.266 485.403 433.421C468.352 474.918 442.986 520.444 400.888 536.025C358.217 551.819 308.999 533.463 267.913 513.918C232.511 497.076 218.097 453.37 184.54 433.103C155.097 415.321 116.137 422.33 86.7272 404.491C52.027 383.444 2.13218 361.71 0.0509468 321.202C-2.19858 277.418 70.7622 259.972 77.0731 216.587C84.23 167.384 21.4387 122.772 35.8373 75.1794C48.591 33.0245 98.5443 1.81927 142.582 0.0587275C190.342 -1.85063 225.819 43.2746 267.913 65.9014Z" fill="#4F53CA"/>
        <g opacity="0.1">
            <path fill-rule="evenodd" clip-rule="evenodd" d="M31.33 456.595C14.5428 459.601 -3.65724 455.399 -17.5581 445.524C-31.2167 435.821 -35.9662 418.617 -43.3175 403.566C-50.877 388.089 -66.3136 372.643 -61.1873 356.2C-55.9323 339.344 -32.2222 337.636 -19.0837 325.835C-8.20282 316.062 -3.29221 301.271 8.92309 293.226C24.2312 283.143 41.0063 273.594 59.3299 274.188C79.8777 274.854 106.953 277.951 115.41 296.679C124.592 317.013 103.86 338.372 98.0388 359.909C94.7576 372.049 93.3203 383.981 88.6569 395.661C83.7536 407.941 79.185 420.192 70.1228 429.824C59.1359 441.502 47.1174 453.768 31.33 456.595Z" stroke="#BFC0F0" stroke-width="1.5"/>
            <path fill-rule="evenodd" clip-rule="evenodd" d="M30.7 440.44C16.894 442.911 1.92607 439.457 -9.50613 431.338C-20.7392 423.361 -24.6452 409.216 -30.691 396.842C-36.908 384.118 -49.6033 371.419 -45.3874 357.9C-41.0656 344.043 -21.5661 342.638 -10.7608 332.936C-1.81226 324.901 2.22628 312.741 12.2723 306.126C24.8618 297.837 38.6579 289.986 53.7275 290.475C70.6262 291.022 92.8932 293.568 99.8484 308.965C107.4 325.683 90.3494 343.243 85.5622 360.949C82.8637 370.93 81.6816 380.741 77.8464 390.343C73.8138 400.439 70.0565 410.511 62.6036 418.43C53.5679 428.031 43.6838 438.116 30.7 440.44Z" stroke="#BFC0F0" stroke-width="1.5"/>
            <path fill-rule="evenodd" clip-rule="evenodd" d="M29.9358 421.157C19.708 422.989 8.6195 420.428 0.150284 414.407C-8.17137 408.492 -11.0651 398.004 -15.5439 388.828C-20.1496 379.393 -29.5545 369.976 -26.4313 359.952C-23.2296 349.676 -8.78396 348.634 -0.779202 341.44C5.85006 335.482 8.8419 326.465 16.2842 321.56C25.6108 315.413 35.8312 309.591 46.9951 309.954C59.514 310.36 76.0098 312.248 81.1624 323.665C86.7566 336.061 74.1253 349.083 70.5789 362.213C68.5797 369.614 67.704 376.888 64.8628 384.008C61.8755 391.495 59.092 398.964 53.5707 404.836C46.8769 411.956 39.5545 419.433 29.9358 421.157Z" stroke="#BFC0F0" stroke-width="1.5"/>
            <path fill-rule="evenodd" clip-rule="evenodd" d="M124.365 110.432C140.807 111.595 156.857 109.101 172.708 113.619C193.44 119.53 218.646 122.278 230.053 140.561C241.453 158.831 237.784 184.176 229.001 203.837C220.983 221.784 198.414 226.936 185.033 241.34C172.325 255.019 171.135 281.937 152.861 285.796C134.194 289.738 121.771 265.142 103.896 258.474C87.9238 252.517 68.3968 259.259 54.6598 249.168C39.9464 238.359 25.2446 220.714 27.9157 202.66C30.7094 183.778 59.5712 180.211 67.4356 162.816C75.3562 145.297 57.2626 119.472 71.4135 106.451C84.7047 94.2211 106.344 109.156 124.365 110.432Z" stroke="#BFC0F0" stroke-width="1.5"/>
            <path fill-rule="evenodd" clip-rule="evenodd" d="M126.381 130.961C138.766 131.839 150.856 129.956 162.797 133.367C178.413 137.827 197.4 139.901 205.994 153.698C214.581 167.485 211.817 186.613 205.201 201.449C199.161 214.993 182.16 218.881 172.081 229.751C162.508 240.074 161.611 260.387 147.846 263.299C133.785 266.274 124.427 247.713 110.962 242.682C98.9301 238.186 84.2208 243.273 73.873 235.658C62.7896 227.502 51.715 214.186 53.7271 200.561C55.8315 186.312 77.5727 183.62 83.4968 170.493C89.4632 157.272 75.8336 137.783 86.4932 127.957C96.5052 118.728 112.806 129.998 126.381 130.961Z" stroke="#BFC0F0" stroke-width="1.5"/>
            <path fill-rule="evenodd" clip-rule="evenodd" d="M128.709 155.246C136.331 155.785 143.771 154.628 151.118 156.724C160.729 159.466 172.413 160.741 177.701 169.222C182.986 177.696 181.285 189.454 177.213 198.573C173.497 206.899 163.035 209.288 156.832 215.97C150.941 222.315 150.389 234.801 141.918 236.591C133.265 238.42 127.506 227.011 119.22 223.918C111.816 221.154 102.764 224.282 96.3961 219.601C89.5756 214.587 82.7605 206.402 83.9987 198.028C85.2937 189.269 98.6729 187.614 102.318 179.545C105.99 171.419 97.6027 159.439 104.162 153.399C110.324 147.726 120.355 154.654 128.709 155.246Z" stroke="#BFC0F0" stroke-width="1.5"/>
        </g>
    </g>
</svg>
