<svg xmlns="http://www.w3.org/2000/svg" display="none">

    <symbol id="user" viewBox="0 0 12 15">
        <path fill-rule="evenodd" clip-rule="evenodd"
              d="M3.61538 3.59932C3.61538 2.45581 4.54238 1.52881 5.6859 1.52881C6.82941 1.52881 7.75641 2.45581 7.75641 3.59932C7.75641 4.74283 6.82941 5.66983 5.6859 5.66983C4.54238 5.66983 3.61538 4.74283 3.61538 3.59932ZM5.6859 0.0288086C3.71396 0.0288086 2.11538 1.62738 2.11538 3.59932C2.11538 5.57126 3.71396 7.16983 5.6859 7.16983C7.65784 7.16983 9.25641 5.57126 9.25641 3.59932C9.25641 1.62738 7.65784 0.0288086 5.6859 0.0288086ZM1.5 12.0609C1.5 10.9173 2.427 9.99035 3.57051 9.99035H7.80128C8.94479 9.99035 9.87179 10.9173 9.87179 12.0609C9.87179 12.4255 9.57619 12.7211 9.21154 12.7211H2.16026C1.79561 12.7211 1.5 12.4255 1.5 12.0609ZM3.57051 8.49035C1.59857 8.49035 0 10.0889 0 12.0609C0 13.2539 0.967179 14.2211 2.16026 14.2211H9.21154C10.4046 14.2211 11.3718 13.2539 11.3718 12.0609C11.3718 10.0889 9.77322 8.49035 7.80128 8.49035H3.57051Z"/>
    </symbol>

    <symbol id="arrow-bottom" viewBox="0 0 16 18">
        <path fill-rule="evenodd" clip-rule="evenodd"
              d="M7.20452 16.7955C7.64386 17.2348 8.35617 17.2348 8.79551 16.7955L14.7955 10.7955C15.2348 10.3562 15.2348 9.64385 14.7955 9.20451C14.3562 8.76517 13.6439 8.76517 13.2045 9.20451L9.12501 13.284L9.12502 2C9.12502 1.37868 8.62134 0.875 8.00002 0.875C7.3787 0.875 6.87502 1.37868 6.87502 2L6.87501 13.284L2.79551 9.2045C2.35617 8.76516 1.64386 8.76516 1.20452 9.2045C0.76518 9.64384 0.76518 10.3562 1.20452 10.7955L7.20452 16.7955Z"/>
    </symbol>

</svg>