<svg width="16" height="16" viewBox="0 0 16 16" fill="none" xmlns="http://www.w3.org/2000/svg">
    <path fill-rule="evenodd" clip-rule="evenodd" d="M7.22331 0.517008C7.33829 0.206209 7.63499 0 7.96656 0C8.29813 0 8.5941 0.206209 8.70907 0.517008C9.1927 1.82326 9.80021 3.46554 10.1748 4.4773C10.3944 5.07072 10.8624 5.53952 11.4566 5.75908C12.4676 6.13293 14.1099 6.74118 15.4161 7.22406C15.7269 7.33904 15.9331 7.63575 15.9331 7.96731C15.9331 8.29814 15.7269 8.59483 15.4161 8.7098C14.1099 9.19269 12.4676 9.80094 11.4566 10.1748C10.8624 10.3951 10.3944 10.8632 10.1748 11.4566C9.80021 12.4683 9.1927 14.1106 8.70907 15.4161C8.5941 15.7277 8.29813 15.9339 7.96656 15.9339C7.63499 15.9339 7.33829 15.7277 7.22331 15.4161C6.74042 14.1106 6.13292 12.4683 5.75833 11.4566C5.53876 10.8632 5.07072 10.3951 4.47656 10.1748C3.46479 9.80094 1.82252 9.19269 0.517017 8.7098C0.206218 8.59483 0 8.29814 0 7.96731C0 7.63575 0.206218 7.33904 0.517017 7.22406C1.82252 6.74118 3.46479 6.13293 4.47656 5.75908C5.07072 5.53952 5.53876 5.07072 5.75833 4.4773C6.13292 3.46554 6.74042 1.82326 7.22331 0.517008Z" fill="#000045"/>
</svg>
