<svg width="236" height="147" viewBox="0 0 236 147" fill="none" xmlns="http://www.w3.org/2000/svg">
    <path d="M1.1717 143.059H228.714" stroke="#000045" stroke-width="0.49571" stroke-miterlimit="1.5" stroke-linecap="round" stroke-linejoin="round"/>
    <path fill-rule="evenodd" clip-rule="evenodd" d="M183.229 41.6866C183.229 41.1228 183.005 40.5941 182.606 40.1947C182.218 39.8071 181.678 39.584 181.126 39.584C177.108 39.584 168.369 39.584 164.352 39.584C163.788 39.584 163.26 39.8071 162.86 40.1947C162.473 40.5941 162.249 41.1228 162.249 41.6866C162.249 46.6318 162.249 58.9537 162.249 63.8989C162.249 64.451 162.473 64.9913 162.86 65.3789C163.26 65.7783 163.788 65.9896 164.352 65.9896C168.369 65.9896 177.108 65.9896 181.126 65.9896C181.678 65.9896 182.218 65.7783 182.606 65.3789C183.005 64.9913 183.229 64.451 183.229 63.8989C183.229 58.9537 183.229 46.6318 183.229 41.6866Z" fill="white" stroke="#3D61FF" stroke-width="0.809323" stroke-miterlimit="1.5" stroke-linecap="round" stroke-linejoin="round"/>
    <path d="M172.551 42.2276L175.875 36.4365" stroke="#000045" stroke-width="0.809323" stroke-miterlimit="1.5" stroke-linecap="round" stroke-linejoin="round"/>
    <path d="M165.54 50.458H173.605" stroke="#000045" stroke-width="0.738977" stroke-miterlimit="1.5" stroke-linecap="round" stroke-linejoin="round"/>
    <path d="M165.569 55.5522H179.963" stroke="#000045" stroke-width="0.809105" stroke-miterlimit="1.5" stroke-linecap="round" stroke-linejoin="round"/>
    <path d="M165.569 60.5884H179.963" stroke="#000045" stroke-width="0.809105" stroke-miterlimit="1.5" stroke-linecap="round" stroke-linejoin="round"/>
    <path d="M45.4116 56.6963V59.2613" stroke="#3D61FF" stroke-width="0.80942" stroke-miterlimit="1.5" stroke-linecap="round" stroke-linejoin="round"/>
    <path d="M45.4116 62.1909V64.7559" stroke="#3D61FF" stroke-width="0.80942" stroke-miterlimit="1.5" stroke-linecap="round" stroke-linejoin="round"/>
    <path d="M49.4464 60.7603H46.8814" stroke="#3D61FF" stroke-width="0.80942" stroke-miterlimit="1.5" stroke-linecap="round" stroke-linejoin="round"/>
    <path d="M43.9808 60.7603H41.4158" stroke="#3D61FF" stroke-width="0.80942" stroke-miterlimit="1.5" stroke-linecap="round" stroke-linejoin="round"/>
    <path d="M145.836 64.5605C146.648 64.5605 147.306 63.902 147.306 63.0897C147.306 62.2774 146.648 61.6187 145.836 61.6187C145.023 61.6187 144.365 62.2774 144.365 63.0897C144.365 63.902 145.023 64.5605 145.836 64.5605Z" stroke="#000045" stroke-width="0.809323" stroke-miterlimit="1.5" stroke-linecap="round" stroke-linejoin="round"/>
    <path d="M64.1443 44.0844C65.2606 44.0844 66.1655 43.1795 66.1655 42.0632C66.1655 40.9469 65.2606 40.042 64.1443 40.042C63.028 40.042 62.1231 40.9469 62.1231 42.0632C62.1231 43.1795 63.028 44.0844 64.1443 44.0844Z" stroke="#000045" stroke-width="0.809323" stroke-miterlimit="1.5" stroke-linecap="round" stroke-linejoin="round"/>
    <path d="M70.3358 12.7998V16.4001" stroke="#3D61FF" stroke-width="0.809157" stroke-miterlimit="1.5" stroke-linecap="round" stroke-linejoin="round"/>
    <path d="M70.3358 20.4692V24.0695" stroke="#3D61FF" stroke-width="0.809157" stroke-miterlimit="1.5" stroke-linecap="round" stroke-linejoin="round"/>
    <path d="M75.9731 18.4658H72.3728" stroke="#3D61FF" stroke-width="0.809157" stroke-miterlimit="1.5" stroke-linecap="round" stroke-linejoin="round"/>
    <path d="M68.3041 18.4658H64.7038" stroke="#3D61FF" stroke-width="0.809157" stroke-miterlimit="1.5" stroke-linecap="round" stroke-linejoin="round"/>
    <path fill-rule="evenodd" clip-rule="evenodd" d="M234.603 52.5855C234.603 51.7291 234.26 50.9123 233.663 50.3063C233.055 49.7134 232.237 49.3706 231.385 49.3706C223.853 49.3706 205.107 49.3706 197.575 49.3706C196.723 49.3706 195.905 49.7134 195.296 50.3063C194.699 50.9123 194.356 51.7291 194.356 52.5855C194.356 59.7397 194.356 76.96 194.356 84.1274C194.356 84.9838 194.699 85.8006 195.296 86.3935C195.905 86.9995 196.723 87.3423 197.575 87.3423C205.107 87.3423 223.853 87.3423 231.385 87.3423C232.237 87.3423 233.055 86.9995 233.663 86.3935C234.26 85.8006 234.603 84.9838 234.603 84.1274V52.5855Z" fill="white" stroke="#000045" stroke-width="0.803958" stroke-miterlimit="1.5" stroke-linecap="round" stroke-linejoin="round"/>
    <path fill-rule="evenodd" clip-rule="evenodd" d="M234.604 52.7653C234.604 51.8726 234.252 51.0033 233.606 50.369C232.971 49.7347 232.102 49.3706 231.21 49.3706C223.622 49.3706 205.368 49.3706 197.779 49.3706C196.875 49.3706 196.017 49.7347 195.371 50.369C194.737 51.0033 194.385 51.8726 194.385 52.7653V59.9776H234.604C234.604 59.9776 234.604 55.8781 234.604 52.7653Z" fill="#000045" stroke="#000045" stroke-width="0.809323" stroke-miterlimit="1.5" stroke-linecap="round" stroke-linejoin="round"/>
    <path d="M203.904 56.5046C204.815 56.5046 205.554 55.766 205.554 54.8548C205.554 53.9437 204.815 53.2051 203.904 53.2051C202.993 53.2051 202.254 53.9437 202.254 54.8548C202.254 55.766 202.993 56.5046 203.904 56.5046Z" fill="white"/>
    <path d="M225.08 56.5046C225.991 56.5046 226.73 55.766 226.73 54.8548C226.73 53.9437 225.991 53.2051 225.08 53.2051C224.169 53.2051 223.43 53.9437 223.43 54.8548C223.43 55.766 224.169 56.5046 225.08 56.5046Z" fill="white"/>
    <path fill-rule="evenodd" clip-rule="evenodd" d="M134.408 69.9741C134.408 69.9741 137.356 71.4542 142.877 82.7776C148.398 94.1011 154.73 109.818 154.73 109.818L147.541 139.031L131.86 116.584V69.9741H134.408Z" fill="white" stroke="#000045" stroke-width="0.809323" stroke-miterlimit="1.5" stroke-linecap="round" stroke-linejoin="round"/>
    <path fill-rule="evenodd" clip-rule="evenodd" d="M62.953 71.5978C62.953 71.5978 65.9367 68.7671 75.0636 63.1641L98.1686 64.8437L131.893 68.2971C132.221 99.7186 132.374 121.943 131.893 141.219L65.8194 139.48L62.953 71.5978Z" fill="white" stroke="#000045" stroke-width="0.809323" stroke-miterlimit="1.5" stroke-linecap="round" stroke-linejoin="round"/>
    <path fill-rule="evenodd" clip-rule="evenodd" d="M107.523 67.6851C107.206 91.3539 105.961 112.838 103.33 131.068H113.725C116.18 111.969 116.779 91.5067 116.404 70.3163L107.523 67.6851Z" fill="#3D61FF"/>
    <path fill-rule="evenodd" clip-rule="evenodd" d="M98.719 71.9771C98.719 71.9771 97.6147 89.367 97.2388 95.3793C97.2035 95.9063 97.3916 96.4214 97.744 96.7926C98.1081 97.1759 98.6015 97.3915 99.1301 97.3915C100.046 97.3915 100.798 96.6849 100.857 95.7746C101.186 90.1695 102.278 71.9771 102.278 71.9771H98.719Z" fill="#000045"/>
    <path fill-rule="evenodd" clip-rule="evenodd" d="M120.269 72.3308C120.269 72.3308 120.067 89.7256 120.004 95.7391C119.996 96.2664 120.219 96.7649 120.606 97.1077C121.006 97.4616 121.531 97.6388 122.081 97.5987C123.034 97.5292 123.777 96.7688 123.789 95.8582C123.826 90.2536 123.971 72.0608 123.971 72.0608L120.269 72.3308Z" fill="#000045"/>
    <path fill-rule="evenodd" clip-rule="evenodd" d="M100.855 40.0017C100.855 40.0017 86.5834 38.2516 83.2474 44.0896C81.8613 46.4976 81.4855 52.0888 81.4855 52.0888C81.4855 52.0888 73.5451 50.174 73.7448 64.0347L75.2599 63.1067C96.0979 76.7912 116.689 79.4811 134.297 69.8609C134.297 69.8609 137.057 60.2758 132.136 58.878C132.136 58.878 133.71 47.9541 125.018 47.2728L100.855 40.0017Z" fill="#3D61FF"/>
    <path d="M108.795 75.7148C111.012 75.9668 113.171 75.9863 115.294 75.7397" stroke="#000045" stroke-width="0.810163" stroke-miterlimit="1.5" stroke-linecap="round" stroke-linejoin="round"/>
    <path d="M140.659 139.968H113.546V143.541H140.659V139.968Z" fill="#000045"/>
    <path fill-rule="evenodd" clip-rule="evenodd" d="M211.925 103.406C212.409 102.366 212.288 101.032 211.61 99.9931C210.933 98.954 209.797 98.3608 208.564 98.3608H161.892C160.465 98.3608 159.159 99.1007 158.579 100.437C154.468 109.492 138.87 143.485 138.87 143.485H194.707C194.707 143.485 206.847 115.281 211.925 103.406Z" fill="#000045"/>
    <path d="M143.993 140.108C143.993 140.108 157.856 110.079 160.994 103.269C161.382 102.443 162.208 101.909 163.131 101.909C170.913 101.909 206.372 101.909 206.372 101.909" stroke="white" stroke-width="0.809248" stroke-miterlimit="1.5" stroke-linecap="round" stroke-linejoin="round"/>
    <path fill-rule="evenodd" clip-rule="evenodd" d="M27.2908 126.282V116.72H25.9753C25.4115 116.72 24.883 116.497 24.4836 116.11C24.096 115.71 23.8729 115.182 23.8729 114.618C23.8729 112.327 23.8729 108.991 23.8729 108.991H19.2092C17.3885 108.991 15.9088 107.511 15.9088 105.691V96.6106H18.4696C18.4696 96.6106 18.4696 101.638 18.4696 104.164C18.4696 104.539 18.6223 104.904 18.8807 105.174C19.1509 105.432 19.515 105.585 19.8791 105.585C21.2417 105.585 23.2736 105.585 24.6245 105.585C25.0004 105.585 25.3645 105.432 25.6229 105.174C25.8931 104.904 26.046 104.539 26.046 104.164V95.6709H28.5008V111.493C28.5008 112.245 29.0996 112.844 29.8397 112.844C30.6971 112.844 31.8016 112.844 32.6473 112.844C33.3991 112.844 33.9981 112.245 33.9981 111.493C33.9981 108.545 33.9981 101.779 33.9981 101.779H36.7351V114.618C36.7351 115.182 36.5116 115.71 36.124 116.11C35.7246 116.497 35.1961 116.72 34.6323 116.72C33.6573 116.72 32.706 116.72 32.706 116.72V126.282H27.2908Z" fill="white" stroke="#000045" stroke-width="0.809323" stroke-miterlimit="1.5" stroke-linecap="round" stroke-linejoin="round"/>
    <path fill-rule="evenodd" clip-rule="evenodd" d="M15.9749 95.7936C16.2803 96.1348 16.7151 96.3177 17.1614 96.3177C20.5914 96.3299 35.9554 96.3299 40.6422 96.3299C41.4644 96.3299 42.1576 95.7082 42.2399 94.8917C42.4983 92.3447 42.2751 87.5066 36.308 89.5174C36.308 89.5174 38.7628 81.267 35.65 79.5608C33.2655 78.2569 31.2685 80.5967 31.2685 80.5967C31.2685 80.5967 31.5974 71.9805 24.3969 72.7726C21.5425 73.0773 18.9231 77.5743 20.5793 82.0713C20.5793 82.0713 17.1613 80.0969 14.6006 82.7049C12.1456 85.2032 12.0633 91.4551 15.9749 95.7936Z" fill="white" stroke="#000045" stroke-width="0.808804" stroke-miterlimit="1.5" stroke-linecap="round" stroke-linejoin="round"/>
    <path fill-rule="evenodd" clip-rule="evenodd" d="M9.96583 86.9495C9.96583 86.9495 11.0936 82.3332 8.70906 81.9573C6.71218 81.6402 5.99556 84.8587 9.96583 86.9495Z" fill="white" stroke="#000045" stroke-width="0.809323" stroke-miterlimit="1.5" stroke-linecap="round" stroke-linejoin="round"/>
    <path fill-rule="evenodd" clip-rule="evenodd" d="M39.8931 86.0332C39.8931 86.0332 39.5056 79.9964 42.7192 80.2806C45.4109 80.5156 45.5897 84.7026 39.8931 86.0332Z" fill="white" stroke="#000045" stroke-width="0.809008" stroke-miterlimit="1.5" stroke-linecap="round" stroke-linejoin="round"/>
    <path fill-rule="evenodd" clip-rule="evenodd" d="M29.7527 101.03C29.8584 101.863 30.5751 102.488 31.4091 102.488C34.7098 102.488 43.2846 102.488 47.1726 102.488C47.7129 102.488 48.2182 102.231 48.5354 101.79C48.8525 101.361 48.9347 100.797 48.7703 100.294C48.2887 98.7995 47.2196 97.2555 44.8233 98.2726C44.8233 98.2726 45.5515 92.6111 41.1466 92.0842C39.5491 91.8881 37.4116 93.2239 37.3176 96.2262C37.3176 96.2262 35.5438 93.9961 32.4663 95.344C29.6354 96.5939 29.5178 99.3387 29.7527 101.03Z" fill="white" stroke="#000045" stroke-width="0.808635" stroke-miterlimit="1.5" stroke-linecap="round" stroke-linejoin="round"/>
    <path fill-rule="evenodd" clip-rule="evenodd" d="M1.00047 99.7364C0.989761 100.159 1.16125 100.57 1.4612 100.876C1.75045 101.169 2.15753 101.346 2.58603 101.346C6.60329 101.346 18.141 101.346 21.9869 101.346C22.7689 101.346 23.4437 100.77 23.5616 99.983C23.7758 98.4795 23.7222 96.1185 21.5475 95.0495C21.5475 95.0495 22.6189 88.2015 17.059 87.6259C14.0059 87.3088 12.6023 90.1395 12.6237 93.0056C12.6237 93.0056 11.0382 89.8224 8.89564 91.0558C6.81738 92.2539 8.00682 95.6369 8.00682 95.6369C8.00682 95.6369 0.968336 94.3918 1.00047 99.7364Z" fill="white" stroke="#000045" stroke-width="0.807668" stroke-miterlimit="1.5" stroke-linecap="round" stroke-linejoin="round"/>
    <path fill-rule="evenodd" clip-rule="evenodd" d="M43.121 126.37C43.2473 125.965 43.1573 125.524 42.9048 125.181C42.6523 124.838 42.2555 124.642 41.8227 124.642C36.9895 124.642 23.8245 124.642 19.0093 124.642C18.5765 124.642 18.1798 124.838 17.9273 125.181C17.6748 125.524 17.5848 125.965 17.711 126.37C18.739 129.901 21.0834 137.869 22.0392 141.154C22.2917 142.012 23.0671 142.601 23.9688 142.601C26.9985 142.601 33.7972 142.601 36.845 142.601C37.7287 142.601 38.5227 142.012 38.7752 141.154C39.731 137.881 42.0751 129.901 43.121 126.37Z" fill="#000045"/>
    <path fill-rule="evenodd" clip-rule="evenodd" d="M120.585 126.441C120.585 126.441 134.669 123.458 135.949 123.317C137.23 123.164 146.392 128.555 146.392 128.555L144.912 131.551L138.663 129.155L143.584 134.311L141.423 139.397L133.894 137.577C133.894 137.577 128.209 141.394 121.96 138.974L120.585 126.441Z" fill="white" stroke="#000045" stroke-width="0.809323" stroke-miterlimit="1.5" stroke-linecap="round" stroke-linejoin="round"/>
    <path fill-rule="evenodd" clip-rule="evenodd" d="M116.068 142.342C110.853 148.473 68.0962 145.936 60.9896 144.021C53.5424 142.013 51.4865 138.677 51.3691 130.396C51.1224 113.634 59.2864 76.292 62.3992 72.2747C65.512 68.2575 70.6331 72.2747 70.6331 72.2747C84.9989 85.3836 82.6497 120.235 82.6497 120.235C82.6497 120.235 109.502 121.938 113.707 123.935C114.177 124.158 114.565 124.534 114.905 125.039C116.468 125.086 119.016 125.192 120.767 125.392C121.659 125.591 122.352 126.308 122.505 127.224C122.928 129.797 123.609 135.047 122.986 139.147C122.857 139.945 122.294 140.615 121.53 140.897C120.402 141.308 118.5 141.907 116.068 142.342Z" fill="white" stroke="#000045" stroke-width="0.809323" stroke-miterlimit="1.5" stroke-linecap="round" stroke-linejoin="round"/>
    <path d="M115.177 127.778C115.177 127.778 116.257 133.468 116.069 140.013" stroke="#000045" stroke-width="0.80838" stroke-miterlimit="1.5" stroke-linecap="round" stroke-linejoin="round"/>
    <path d="M82.8663 120.273C82.8663 120.273 73.5164 119.051 64.6127 128.742" stroke="#000045" stroke-width="0.809323" stroke-miterlimit="1.5" stroke-linecap="round" stroke-linejoin="round"/>
    <path fill-rule="evenodd" clip-rule="evenodd" d="M122.116 51.927L120.284 60.2198C112.919 61.5472 105.73 59.6796 98.694 55.5683L100.479 44.6206L110.123 45.9597L122.116 51.927Z" fill="white" stroke="#000045" stroke-width="0.809323" stroke-miterlimit="1.5" stroke-linecap="round" stroke-linejoin="round"/>
    <path fill-rule="evenodd" clip-rule="evenodd" d="M100.841 30.6914C100.841 30.6914 98.2047 28.6808 94.9112 30.5234C91.6285 32.3644 92.3079 35.9911 93.2014 37.5552C94.1058 39.1186 96.9603 40.3927 99.1975 40.5929C99.1975 40.5929 99.5456 46.2166 103.084 49.6813C106.623 53.1459 114.094 55.5613 121.496 51.8512C124.604 50.2894 126.562 47.02 127.616 44.4947C128.659 41.9691 131.674 35.1803 131.674 35.1803L127.913 17.835L108.75 16.5923L102.479 30.4361L100.841 30.6914Z" fill="white" stroke="#000045" stroke-width="0.809042" stroke-miterlimit="1.5" stroke-linecap="round" stroke-linejoin="round"/>
    <path fill-rule="evenodd" clip-rule="evenodd" d="M100.571 30.4246C100.571 30.4246 100.777 33.4542 101.441 34.104C102.105 34.7548 104.529 29.0342 105.338 26.6793C105.338 26.6793 108.203 24.8695 109.728 22.7739C111.253 20.6784 112.981 20.0271 114.423 22.5582C114.423 22.5582 117.773 19.244 120.205 19.2073C122.647 19.169 123.195 21.0415 123.852 24.4812C124.519 27.9192 125.396 33.0365 131.289 34.9493L128.611 41.0062C128.611 41.0062 134.692 39.26 136.35 31.2062L137.837 32.8378C137.837 32.8378 140.26 16.5237 131.198 8.68732C122.125 0.852614 109.532 4.37199 105.86 7.71925C105.86 7.71925 96.5075 7.91534 93.4932 16.7369C90.4789 25.5584 92.6182 32.4324 92.6182 32.4324C92.6182 32.4324 95.0725 27.6147 100.571 30.4246Z" fill="#000045"/>
    <path d="M95.5749 32.1792C95.5749 32.1792 97.8926 33.2991 99.9945 35.8302" stroke="#000045" stroke-width="0.809042" stroke-miterlimit="1.5" stroke-linecap="round" stroke-linejoin="round"/>
    <path d="M96.0726 35.5144C96.0726 35.5144 97.4976 34.6596 98.5538 34.3154" stroke="#000045" stroke-width="0.809042" stroke-miterlimit="1.5" stroke-linecap="round" stroke-linejoin="round"/>
    <path d="M119.399 39.4003L119.299 43.1994" stroke="#000045" stroke-width="0.809042" stroke-miterlimit="1.5" stroke-linecap="round" stroke-linejoin="round"/>
    <path d="M111.025 30.087C111.025 30.087 114.927 28.1688 117.513 31.4839" stroke="#000045" stroke-width="0.809042" stroke-miterlimit="1.5" stroke-linecap="round" stroke-linejoin="round"/>
    <path d="M122.987 32.2629C122.987 32.2629 124.556 31.5672 126.297 31.7876" stroke="#000045" stroke-width="0.809042" stroke-miterlimit="1.5" stroke-linecap="round" stroke-linejoin="round"/>
    <path d="M114.761 36.7142C115.476 36.6027 115.99 35.9573 115.91 35.2726C115.829 34.5879 115.184 34.1232 114.468 34.2347C113.753 34.3462 113.239 34.9916 113.32 35.6763C113.401 36.361 114.046 36.8257 114.761 36.7142Z" fill="#000045"/>
    <path d="M125.807 38.66C126.522 38.5485 127.036 37.9031 126.955 37.2184C126.874 36.5337 126.229 36.069 125.514 36.1805C124.799 36.292 124.285 36.9374 124.366 37.6221C124.446 38.3068 125.092 38.7715 125.807 38.66Z" fill="#000045"/>
    <path d="M92.9136 48.5127C96.367 58.7907 116.136 63.5952 124.64 58.6852" stroke="#000045" stroke-width="0.809323" stroke-miterlimit="1.5" stroke-linecap="round" stroke-linejoin="round"/>
    <path d="M116.382 46.9448C115.072 47.3322 113.766 46.6532 113.468 45.4378" stroke="#000045" stroke-width="0.574027" stroke-miterlimit="1.5" stroke-linecap="round" stroke-linejoin="round"/>
</svg>
