<svg width="160" height="160" viewBox="0 0 160 160" fill="none" xmlns="http://www.w3.org/2000/svg">
    <path fill-rule="evenodd" clip-rule="evenodd" d="M80.467 151.121H95.2567L87.9785 74.1944L73.9493 73.3594L80.467 151.121Z" fill="#3D61FF"/>
    <path fill-rule="evenodd" clip-rule="evenodd" d="M94.7987 151.118C91.6004 126.682 88.4538 96.964 87.114 75.367L104.099 63.8281H108.568C108.568 63.8281 118.12 68.8062 120.99 70.7675L123.652 124.028L127.205 151.118H94.7987Z" fill="white" stroke="#000045" stroke-width="0.720043" stroke-miterlimit="1.5" stroke-linecap="round" stroke-linejoin="round"/>
    <path fill-rule="evenodd" clip-rule="evenodd" d="M54.4397 151.129L53.5841 104.832C53.5841 104.832 46.0118 121.524 37.584 125.707L29.1476 107.192C29.1476 107.192 38.3619 83.987 40.35 79.4593C42.3381 74.9316 44.8018 72.3263 47.9655 70.4981C51.1206 68.6691 55.6499 66.5625 55.6499 66.5625L72.4796 72.4646L75.5658 75.5402C77.2687 98.7121 79.8357 128.361 82.014 151.129H54.4397Z" fill="white" stroke="#000045" stroke-width="0.720043" stroke-miterlimit="1.5" stroke-linecap="round" stroke-linejoin="round"/>
    <path fill-rule="evenodd" clip-rule="evenodd" d="M91.4966 74.5615C91.4966 74.5615 92.4045 86.0848 92.7243 90.1388C92.7848 90.9168 93.4328 91.5219 94.2194 91.5219C94.6603 91.5219 95.0838 91.3404 95.3864 91.0119C95.6803 90.6834 95.8275 90.2512 95.7929 89.8104C95.4126 85.3155 94.4011 73.5156 94.4011 73.5156L91.4966 74.5615Z" fill="#000045"/>
    <path fill-rule="evenodd" clip-rule="evenodd" d="M69.2327 73.1529C69.2327 73.1529 69.3573 84.7112 69.4016 88.7776C69.4092 89.5578 70.0147 90.2055 70.7995 90.2588C71.2393 90.2887 71.6742 90.1363 71.9983 89.8291C72.3138 89.5213 72.49 89.1001 72.4854 88.6579C72.4106 84.1476 72.2014 72.3063 72.2014 72.3063L69.2327 73.1529Z" fill="#000045"/>
    <path fill-rule="evenodd" clip-rule="evenodd" d="M63.8014 50.2093C63.8014 50.2093 58.6149 50.4358 58.4766 59.1385C58.4766 59.1385 53.368 59.2639 54.4139 67.1489C71.0709 80.9369 93.3639 80.5652 108.474 63.8634L111.905 65.5178C111.905 65.5178 113.669 55.5064 107.324 55.2981C107.324 55.2981 106.546 43.0262 97.8759 43.0469C88.4021 43.0702 63.8014 50.2093 63.8014 50.2093Z" fill="#3D61FF"/>
    <path d="M76.6376 76.7191C80.0087 77.1288 83.2244 77.0157 86.2844 76.4062" stroke="#000045" stroke-width="0.720043" stroke-miterlimit="1.5" stroke-linecap="round" stroke-linejoin="round"/>
    <path fill-rule="evenodd" clip-rule="evenodd" d="M71.633 57.3843L73.2494 62.6848C81.2364 64.309 88.5059 62.913 93.4503 59.184L90.1828 48.9062L78.3145 54.5923L71.633 57.3843Z" fill="white" stroke="#000045" stroke-width="0.720043" stroke-miterlimit="1.5" stroke-linecap="round" stroke-linejoin="round"/>
    <path fill-rule="evenodd" clip-rule="evenodd" d="M59.9983 39.5312C59.9983 39.5312 56.2986 40.6463 57.0765 44.3425C58.0446 48.9134 63.3434 48.2444 63.3434 48.2444L59.9983 39.5312Z" fill="white" stroke="#000045" stroke-width="0.720043" stroke-miterlimit="1.5" stroke-linecap="round" stroke-linejoin="round"/>
    <path d="M68.3221 61.3973C82.0056 66.0814 94.6689 62.4787 98.8958 52.1094" stroke="#000045" stroke-width="0.720043" stroke-miterlimit="1.5" stroke-linecap="round" stroke-linejoin="round"/>
    <path fill-rule="evenodd" clip-rule="evenodd" d="M60.1449 40.13C60.1449 40.13 62.1848 47.6407 63.0579 50.0005C63.9223 52.3603 68.3137 58.2071 77.2515 58.3955C86.1894 58.5831 91.5832 49.6937 91.8771 45.5437C91.8771 45.5437 98.1095 46.6648 99.6394 40.8327C100.642 37.0406 95.7755 32.2165 90.883 35.7743L83.0602 25.2399L67.285 21.4062L57.4741 30.5559L60.1449 40.13Z" fill="white" stroke="#000045" stroke-width="0.720043" stroke-miterlimit="1.5" stroke-linecap="round" stroke-linejoin="round"/>
    <path fill-rule="evenodd" clip-rule="evenodd" d="M70.3961 50.1579C70.8897 52.0056 72.8001 53.1131 74.659 52.6165C76.5163 52.1204 77.62 50.2078 77.1264 48.3601L70.3961 50.1579Z" stroke="#000045" stroke-width="0.720079" stroke-miterlimit="1.5" stroke-linecap="round" stroke-linejoin="round"/>
    <path fill-rule="evenodd" clip-rule="evenodd" d="M59.4966 37.7359L60.2574 40.5876C60.2574 40.5876 53.4113 37.1828 54.8117 25.9171C56.212 14.6514 72.3848 3.50408 86.0769 11.0719C86.0769 11.0719 101.999 12.0322 96.6141 35.0425C96.6141 35.0425 94.1246 33.3517 90.8226 35.804C90.8226 35.804 90.7535 38.6608 90.3904 40.3265C90.3558 40.4363 90.2693 40.5228 90.1655 40.5556C90.0532 40.5885 89.9322 40.5634 89.8458 40.4882C89.3098 39.9116 88.2726 38.5986 87.2094 36.085C87.2094 36.085 80.6745 37.1464 75.0213 29.736C69.3682 22.3263 66.2477 25.5254 65.2537 28.6641C65.2537 28.6641 59.825 26.8834 59.8164 32.0854C59.8164 34.2299 60.6117 34.7918 59.4966 37.7359Z" fill="#000045"/>
    <path d="M92.1796 41.1802C92.1796 41.1802 94.0897 39.441 97.0114 37.8125" stroke="#000045" stroke-width="0.720043" stroke-miterlimit="1.5" stroke-linecap="round" stroke-linejoin="round"/>
    <path d="M94.1074 39.7656L95.9571 41.2567" stroke="#000045" stroke-width="0.720043" stroke-miterlimit="1.5" stroke-linecap="round" stroke-linejoin="round"/>
    <path d="M61.4196 38.6201C61.4196 38.6201 64.0085 34.4366 67.854 37.1678" stroke="#000045" stroke-width="0.71477" stroke-miterlimit="1.5" stroke-linecap="round" stroke-linejoin="round"/>
    <path d="M75.1792 34.3573C75.1792 34.3573 76.5906 33.2013 78.3048 33.1507" stroke="#000045" stroke-width="0.714771" stroke-miterlimit="1.5" stroke-linecap="round" stroke-linejoin="round"/>
    <path d="M77.4395 40.813C78.1386 40.813 78.7056 40.2463 78.7056 39.5472C78.7056 38.8481 78.1386 38.2812 77.4395 38.2812C76.7404 38.2812 76.1734 38.8481 76.1734 39.5472C76.1734 40.2463 76.7404 40.813 77.4395 40.813Z" fill="#000045"/>
    <path d="M65.7086 42.8443C66.4077 42.8443 66.9746 42.2775 66.9746 41.5784C66.9746 40.8793 66.4077 40.3125 65.7086 40.3125C65.0094 40.3125 64.4425 40.8793 64.4425 41.5784C64.4425 42.2775 65.0094 42.8443 65.7086 42.8443Z" fill="#000045"/>
    <path d="M71.6514 42.6562L71.0242 46.6348" stroke="#000045" stroke-width="0.720078" stroke-miterlimit="1.5" stroke-linecap="round" stroke-linejoin="round"/>
    <path fill-rule="evenodd" clip-rule="evenodd" d="M79.6287 88.4172C79.6287 88.4172 73.9841 85.2535 72.1861 84.3692C70.5265 83.5523 66.0229 81.394 60.8538 82.6491C60.1536 82.8159 59.7042 83.4944 59.8253 84.2024C59.929 84.8645 60.4996 85.3572 61.1739 85.3745C62.7384 85.4263 65.5477 85.7202 67.2679 87.1033C67.2679 87.1033 64.7784 87.6565 64.3289 89.5236C63.8708 91.3907 63.3347 95.0125 63.8015 97.5971C64.0954 99.2481 69.6448 99.4296 72.1861 98.9715C72.1861 98.9715 75.7388 100.329 76.0499 100.406C76.3611 100.493 79.205 92.1082 79.205 92.1082L79.6287 88.4172Z" fill="white" stroke="#000045" stroke-width="0.720043" stroke-miterlimit="1.5" stroke-linecap="round" stroke-linejoin="round"/>
    <path d="M63.566 91.4581L67.1283 90.8676" stroke="#000045" stroke-width="0.732632" stroke-miterlimit="1.5" stroke-linecap="round" stroke-linejoin="round"/>
    <path d="M64.1156 95.3588L66.4458 94.9726" stroke="#000045" stroke-width="0.675896" stroke-miterlimit="1.5" stroke-linecap="round" stroke-linejoin="round"/>
    <path fill-rule="evenodd" clip-rule="evenodd" d="M85.221 89.4657C84.7974 89.3101 80.458 87.6332 79.3775 88.1864C78.2884 88.7483 75.4793 94.2631 75.6522 100.573C75.6695 101.135 75.9199 101.662 76.3521 102.025C77.545 103.028 80.026 105.103 80.7261 105.69C79.8617 108.517 84.8491 112.649 87.5201 114.3C90.217 115.959 117.515 129.652 127.749 126.28C137.992 122.909 138.088 114.343 134.924 102.682C131.76 91.0303 126.747 75.3259 120.895 70.7031C120.895 70.7031 109.061 76.3157 113.902 97.3404C113.902 97.3404 97.3398 90.7537 92.6288 89.3274C90.5975 88.7137 87.0016 87.4344 85.221 89.4657Z" fill="white" stroke="#000045" stroke-width="0.720043" stroke-miterlimit="1.5" stroke-linecap="round" stroke-linejoin="round"/>
    <path d="M84.953 91.25C84.2615 96.0993 83.57 99.2543 81.6251 103.991" stroke="#000045" stroke-width="0.720043" stroke-miterlimit="1.5" stroke-linecap="round" stroke-linejoin="round"/>
    <path d="M113.816 97.3438C113.816 97.3438 121.422 100.862 124.534 103.213C128.977 106.567 129.997 111.952 129.634 115.617" stroke="#000045" stroke-width="0.720043" stroke-miterlimit="1.5" stroke-linecap="round" stroke-linejoin="round"/>
    <path fill-rule="evenodd" clip-rule="evenodd" d="M60.3264 76.3071C60.1016 75.3139 59.2198 74.6094 58.1998 74.6094C55.4683 74.6094 50.1871 74.6094 47.1703 74.6094C46.6344 74.6094 46.1242 74.8583 45.7957 75.2836C45.4673 75.7089 45.3549 76.2622 45.4932 76.7825C46.7811 81.7148 49.8845 93.6287 50.8872 97.4753C51.0774 98.1928 51.7254 98.6941 52.4688 98.6941C54.9064 98.6941 60.309 98.6941 63.2826 98.6941C63.7926 98.6941 64.2681 98.4608 64.5879 98.0718C64.8991 97.6742 65.0201 97.1554 64.9077 96.6627C63.8618 92.0036 61.2945 80.6239 60.3264 76.3071Z" fill="white" stroke="#000045" stroke-width="0.720043" stroke-miterlimit="1.5" stroke-linecap="round" stroke-linejoin="round"/>
    <path d="M48.3781 78.2009C48.8305 78.2009 49.1973 77.8342 49.1973 77.3817C49.1973 76.9293 48.8305 76.5625 48.3781 76.5625C47.9257 76.5625 47.559 76.9293 47.559 77.3817C47.559 77.8342 47.9257 78.2009 48.3781 78.2009Z" fill="#000045"/>
    <path fill-rule="evenodd" clip-rule="evenodd" d="M44.6808 86.46C44.6808 86.46 44.8536 85.224 44.8277 83.5237C44.8018 81.8243 44.7412 79.9019 46.0118 78.7444L47.585 84.1175C47.585 84.1175 51.5613 79.7644 53.2728 77.8904C53.705 77.4193 54.4312 77.3674 54.9239 77.7737C55.3475 78.1255 55.4511 78.7393 55.1572 79.2086C53.9471 81.1483 50.9994 85.8549 50.9994 85.8549C50.9994 85.8549 54.9499 84.7053 57.0849 84.0821C57.4307 83.9801 57.811 84.0242 58.1222 84.2031C58.442 84.3821 58.6753 84.6794 58.7617 85.0338C58.9432 85.708 58.5545 86.4081 57.8889 86.6156C55.918 87.2466 52.1838 88.4222 52.1838 88.4222C52.1838 88.4222 55.9524 87.2294 57.9145 86.607C58.5628 86.4082 59.2545 86.7539 59.4792 87.3936C59.5916 87.7134 59.5657 88.0592 59.4188 88.3617C59.2718 88.6642 59.0123 88.8976 58.6925 89.01C56.6525 89.7015 52.7369 91.024 52.7369 91.024C52.7369 91.024 56.0218 90.03 57.7592 89.5027C58.347 89.3212 58.9691 89.641 59.1679 90.2202C59.3754 90.7993 59.099 91.439 58.5372 91.6983C56.6614 92.5627 52.7369 94.3693 52.7369 94.3693C52.7369 94.3693 51.5872 97.7318 49.9449 98.7691H48.1468L43.9893 91.024L44.6808 86.46Z" fill="white" stroke="#000045" stroke-width="0.720043" stroke-miterlimit="1.5" stroke-linecap="round" stroke-linejoin="round"/>
    <path fill-rule="evenodd" clip-rule="evenodd" d="M44.6291 86.4062C44.6291 86.4062 42.7706 88.1091 42.0531 89.6304C42.0531 89.6304 39.4945 89.959 37.6879 92.5522C35.8727 95.1367 32.0436 101.058 29.8567 105.57C27.6697 110.073 27.1339 112.269 27.7217 116.729C28.3095 121.19 30.5653 127.578 37.2557 126.048C40.3503 125.339 44.7155 119.003 47.8014 110.903C50.1957 104.602 49.3056 102.726 49.3056 102.726C49.3056 102.726 50.4378 100.133 49.9451 98.819C49.9451 98.819 45.6491 96.8655 44.6291 86.4062Z" fill="white" stroke="#000045" stroke-width="0.720043" stroke-miterlimit="1.5" stroke-linecap="round" stroke-linejoin="round"/>
    <path d="M45.623 115.917C46.3923 114.361 47.127 112.675 47.8012 110.903C50.1956 104.602 49.3054 102.726 49.3054 102.726C49.3054 102.726 50.4377 100.133 49.945 98.819C49.945 98.819 45.6489 96.8655 44.6289 86.4062C44.6289 86.4062 42.7704 88.1091 42.0529 89.6304C42.0529 89.6304 39.4943 89.959 37.6877 92.5522C36.7974 93.8142 35.4317 95.8714 34.014 98.1794" stroke="#000045" stroke-width="0.720043" stroke-miterlimit="1.5" stroke-linecap="round" stroke-linejoin="round"/>
    <path d="M42.252 91.4844C43.4189 97.0684 44.6897 99.3764 48.009 101.736" stroke="#000045" stroke-width="0.720043" stroke-miterlimit="1.5" stroke-linecap="round" stroke-linejoin="round"/>
    <path fill-rule="evenodd" clip-rule="evenodd" d="M109.431 9.07462C109.503 8.87947 109.689 8.75 109.897 8.75C110.106 8.75 110.291 8.87947 110.364 9.07462C110.667 9.89479 111.049 10.9259 111.284 11.5612C111.422 11.9338 111.716 12.2282 112.089 12.366C112.723 12.6007 113.755 12.9827 114.575 13.2858C114.77 13.358 114.899 13.5443 114.899 13.7525C114.899 13.9602 114.77 14.1465 114.575 14.2187C113.755 14.5219 112.723 14.9038 112.089 15.1386C111.716 15.2769 111.422 15.5708 111.284 15.9434C111.049 16.5786 110.667 17.6098 110.364 18.4295C110.291 18.6251 110.106 18.7546 109.897 18.7546C109.689 18.7546 109.503 18.6251 109.431 18.4295C109.128 17.6098 108.746 16.5786 108.511 15.9434C108.373 15.5708 108.079 15.2769 107.706 15.1386C107.071 14.9038 106.04 14.5219 105.22 14.2187C105.025 14.1465 104.895 13.9602 104.895 13.7525C104.895 13.5443 105.025 13.358 105.22 13.2858C106.04 12.9827 107.071 12.6007 107.706 12.366C108.079 12.2282 108.373 11.9338 108.511 11.5612C108.746 10.9259 109.128 9.89479 109.431 9.07462Z" fill="#000045"/>
    <path fill-rule="evenodd" clip-rule="evenodd" d="M9.07273 78.8519C9.13014 78.6967 9.2783 78.5938 9.44387 78.5938C9.60945 78.5938 9.75724 78.6967 9.81465 78.8519C10.0562 79.5042 10.3595 80.3243 10.5466 80.8295C10.6562 81.1259 10.8899 81.36 11.1866 81.4696C11.6915 81.6563 12.5116 81.96 13.1639 82.2012C13.3191 82.2586 13.4221 82.4067 13.4221 82.5723C13.4221 82.7375 13.3191 82.8857 13.1639 82.9431C12.5116 83.1842 11.6915 83.4879 11.1866 83.6746C10.8899 83.7846 10.6562 84.0184 10.5466 84.3147C10.3595 84.8199 10.0562 85.64 9.81465 86.2919C9.75724 86.4475 9.60945 86.5505 9.44387 86.5505C9.2783 86.5505 9.13014 86.4475 9.07273 86.2919C8.83159 85.64 8.52823 84.8199 8.34117 84.3147C8.23153 84.0184 7.99781 83.7846 7.70111 83.6746C7.19587 83.4879 6.37579 83.1842 5.72388 82.9431C5.56867 82.8857 5.4657 82.7375 5.4657 82.5723C5.4657 82.4067 5.56867 82.2586 5.72388 82.2012C6.37579 81.96 7.19587 81.6563 7.70111 81.4696C7.99781 81.36 8.23153 81.1259 8.34117 80.8295C8.52823 80.3243 8.83159 79.5042 9.07273 78.8519Z" fill="#000045"/>
    <path fill-rule="evenodd" clip-rule="evenodd" d="M147.045 62.6551C147.097 62.5149 147.231 62.4219 147.381 62.4219C147.53 62.4219 147.664 62.5149 147.716 62.6551C147.934 63.2443 148.208 63.9851 148.377 64.4415C148.476 64.7091 148.687 64.9206 148.955 65.0196C149.411 65.1883 150.152 65.4626 150.741 65.6804C150.881 65.7323 150.974 65.8661 150.974 66.0157C150.974 66.1649 150.881 66.2987 150.741 66.3506C150.152 66.5684 149.411 66.8428 148.955 67.0114C148.687 67.1108 148.476 67.3219 148.377 67.5896C148.208 68.046 147.934 68.7868 147.716 69.3756C147.664 69.5162 147.53 69.6092 147.381 69.6092C147.231 69.6092 147.097 69.5162 147.045 69.3756C146.828 68.7868 146.554 68.046 146.385 67.5896C146.286 67.3219 146.074 67.1108 145.806 67.0114C145.35 66.8428 144.609 66.5684 144.02 66.3506C143.88 66.2987 143.787 66.1649 143.787 66.0157C143.787 65.8661 143.88 65.7323 144.02 65.6804C144.609 65.4626 145.35 65.1883 145.806 65.0196C146.074 64.9206 146.286 64.7091 146.385 64.4415C146.554 63.9851 146.828 63.2443 147.045 62.6551Z" fill="#000045"/>
    <path d="M49.2546 19.0391L40.2289 13.8281" stroke="#3D61FF" stroke-width="0.714944" stroke-miterlimit="1.5" stroke-linecap="round" stroke-linejoin="round"/>
    <path d="M51.386 14.9551L48.5703 10.0781" stroke="#3D61FF" stroke-width="0.67161" stroke-miterlimit="1.5" stroke-linecap="round" stroke-linejoin="round"/>
    <path d="M46.796 22.8906H40.7104" stroke="#3D61FF" stroke-width="0.683774" stroke-miterlimit="1.5" stroke-linecap="round" stroke-linejoin="round"/>
    <path d="M142.961 94.458L150.335 87.9871" stroke="#3D61FF" stroke-width="0.627753" stroke-miterlimit="1.5" stroke-linecap="round" stroke-linejoin="round"/>
    <path d="M19.4824 110.077L9.15942 107.311" stroke="#000045" stroke-width="0.674682" stroke-miterlimit="1.5" stroke-linecap="round" stroke-linejoin="round"/>
    <path d="M36.9511 136.66C37.7546 136.66 38.406 136.008 38.406 135.205C38.406 134.401 37.7546 133.75 36.9511 133.75C36.1476 133.75 35.4962 134.401 35.4962 135.205C35.4962 136.008 36.1476 136.66 36.9511 136.66Z" stroke="#3D61FF" stroke-width="0.720043" stroke-miterlimit="1.5" stroke-linecap="round" stroke-linejoin="round"/>
    <path d="M125.101 61.5035C125.904 61.5035 126.556 60.8521 126.556 60.0486C126.556 59.2451 125.904 58.5938 125.101 58.5938C124.297 58.5938 123.646 59.2451 123.646 60.0486C123.646 60.8521 124.297 61.5035 125.101 61.5035Z" stroke="#000045" stroke-width="0.720043" stroke-miterlimit="1.5" stroke-linecap="round" stroke-linejoin="round"/>
    <path d="M13.4933 151.094H152.964" stroke="#000045" stroke-width="0.720043" stroke-miterlimit="1.5" stroke-linecap="round" stroke-linejoin="round"/>
</svg>
