<svg width="204" height="204" viewBox="0 0 204 204" fill="none" xmlns="http://www.w3.org/2000/svg">
    <g clip-path="url(#clip0_48_3263)">
        <path fill-rule="evenodd" clip-rule="evenodd" d="M187.383 163.655C187.466 164.052 187.315 164.455 186.997 164.705C186.678 164.954 186.25 165.004 185.885 164.828C182.592 163.268 176.218 160.244 176.218 160.244L185.247 153.171C185.247 153.171 186.656 160.084 187.383 163.655Z" fill="#000045"/>
        <path fill-rule="evenodd" clip-rule="evenodd" d="M176.839 170.774C176.87 171.179 176.668 171.56 176.321 171.766C175.973 171.973 175.542 171.967 175.202 171.746C172.136 169.776 166.203 165.959 166.203 165.959L176.065 160.103C176.065 160.103 176.576 167.139 176.839 170.774Z" fill="white" stroke="#3D61FF" stroke-width="0.774715" stroke-miterlimit="1.5" stroke-linecap="round" stroke-linejoin="round"/>
        <path fill-rule="evenodd" clip-rule="evenodd" d="M165.284 176.684C165.247 177.088 164.985 177.43 164.608 177.576C164.231 177.721 163.807 177.644 163.508 177.369C160.814 174.915 155.601 170.162 155.601 170.162L166.302 166.034C166.302 166.034 165.631 173.057 165.284 176.684Z" fill="#000045"/>
        <path fill-rule="evenodd" clip-rule="evenodd" d="M152.813 180.353C152.708 180.744 152.392 181.037 151.995 181.116C151.599 181.195 151.194 181.046 150.947 180.725C148.711 177.847 144.384 172.275 144.384 172.275L155.633 170.032C155.633 170.032 153.774 176.837 152.813 180.353Z" fill="white" stroke="#3D61FF" stroke-width="0.774714" stroke-miterlimit="1.5" stroke-linecap="round" stroke-linejoin="round"/>
        <path fill-rule="evenodd" clip-rule="evenodd" d="M139.879 182.064C139.705 182.43 139.34 182.66 138.936 182.665C138.531 182.671 138.161 182.452 137.976 182.091C136.3 178.855 133.057 172.589 133.057 172.589L144.526 172.426C144.526 172.426 141.462 178.781 139.879 182.064Z" fill="#000045"/>
        <path fill-rule="evenodd" clip-rule="evenodd" d="M126.291 183.619L121.494 171.722L132.927 172.641L126.291 183.619Z" fill="white" stroke="#3D61FF" stroke-width="0.774715" stroke-miterlimit="1.5" stroke-linecap="round" stroke-linejoin="round"/>
        <path fill-rule="evenodd" clip-rule="evenodd" d="M16.3713 120.052C16.2956 120.447 16.446 120.853 16.7609 121.099C17.0798 121.349 17.5093 121.398 17.8708 121.227C21.904 119.312 30.8816 115.055 30.8816 115.055L19.2492 105.942C19.2492 105.942 17.2643 115.678 16.3713 120.052Z" fill="#000045"/>
        <path fill-rule="evenodd" clip-rule="evenodd" d="M29.8036 129.6C29.7851 130.002 29.992 130.382 30.3388 130.581C30.6902 130.783 31.1223 130.77 31.4556 130.548C35.1739 128.077 43.4509 122.58 43.4509 122.58L30.6357 115.223C30.6357 115.223 30.0624 125.143 29.8036 129.6Z" fill="white" stroke="#3D61FF" stroke-width="0.774501" stroke-miterlimit="1.5" stroke-linecap="round" stroke-linejoin="round"/>
        <path fill-rule="evenodd" clip-rule="evenodd" d="M45.0127 136.842C45.0558 137.242 45.3181 137.585 45.6912 137.729C46.0693 137.875 46.4943 137.797 46.79 137.527C50.0883 134.518 57.431 127.824 57.431 127.824L43.6445 122.506C43.6445 122.506 44.5894 132.397 45.0127 136.842Z" fill="#000045"/>
        <path fill-rule="evenodd" clip-rule="evenodd" d="M61.1737 141.633C61.2843 142.02 61.6014 142.314 61.9936 142.392C62.391 142.471 62.7964 142.322 63.0418 142.006C65.7789 138.479 71.8729 130.631 71.8729 130.631L57.3815 127.741C57.3815 127.741 59.9989 137.326 61.1737 141.633Z" fill="white" stroke="#3D61FF" stroke-width="0.774501" stroke-miterlimit="1.5" stroke-linecap="round" stroke-linejoin="round"/>
        <path fill-rule="evenodd" clip-rule="evenodd" d="M77.9631 143.742C78.1422 144.102 78.5074 144.334 78.9073 144.339C79.3124 144.345 79.6838 144.124 79.8678 143.769C81.9188 139.803 86.4862 130.979 86.4862 130.979L71.7109 130.769C71.7109 130.769 76.0256 139.72 77.9631 143.742Z" fill="#000045"/>
        <path fill-rule="evenodd" clip-rule="evenodd" d="M95.1953 145.236L101.375 129.91L86.6462 131.094L95.1953 145.236Z" fill="white" stroke="#3D61FF" stroke-width="0.774501" stroke-miterlimit="1.5" stroke-linecap="round" stroke-linejoin="round"/>
        <path d="M188.822 148.717C188.822 148.717 161.768 184.004 110.77 168.878" stroke="#000045" stroke-width="0.774983" stroke-miterlimit="1.5" stroke-linecap="round" stroke-linejoin="round"/>
        <path d="M14.6301 100.207C14.6301 100.207 49.4841 145.668 115.186 126.181" stroke="#3D61FF" stroke-width="0.774379" stroke-miterlimit="1.5" stroke-linecap="round" stroke-linejoin="round"/>
        <path fill-rule="evenodd" clip-rule="evenodd" d="M59.1469 177.525L58.7759 179.657L63.3734 177.953L61.7076 176.583C66.048 174.07 67.7516 167.664 65.4767 161.515C63.0019 154.824 56.7389 150.969 51.4943 152.901C46.2496 154.843 44.0033 161.858 46.4781 168.549C48.753 174.688 54.2164 178.448 59.1469 177.525Z" fill="white" stroke="#000045" stroke-width="0.774838" stroke-miterlimit="1.5" stroke-linecap="round" stroke-linejoin="round"/>
        <path fill-rule="evenodd" clip-rule="evenodd" d="M161.256 152.487L161.569 154.287L157.689 152.849L159.095 151.692C155.432 149.571 153.994 144.165 155.914 138.976C158.003 133.329 163.288 130.075 167.715 131.706C172.141 133.345 174.037 139.265 171.948 144.912C170.028 150.093 165.417 153.266 161.256 152.487Z" fill="white" stroke="#3D61FF" stroke-width="0.774423" stroke-miterlimit="1.5" stroke-linecap="round" stroke-linejoin="round"/>
        <path fill-rule="evenodd" clip-rule="evenodd" d="M104.924 113.279C104.924 113.279 98.4286 113.261 91.5784 117.01L101.114 131.978C101.114 131.978 107.654 130.905 110.1 118.437C112.537 105.968 110.1 117.559 110.1 117.559L104.924 113.279Z" fill="#000045"/>
        <path fill-rule="evenodd" clip-rule="evenodd" d="M125.41 114.076C125.41 114.076 131.906 114.058 138.756 117.807L129.22 132.775C129.22 132.775 122.68 131.702 120.235 119.234C117.798 106.765 120.235 118.356 120.235 118.356L125.41 114.076Z" fill="#000045"/>
        <path fill-rule="evenodd" clip-rule="evenodd" d="M108.283 116.877L107.254 124.074L113.538 127.99L121.779 126.12L123.764 116.443L108.283 116.877Z" fill="white" stroke="#000045" stroke-width="0.774379" stroke-miterlimit="1.5" stroke-linecap="round" stroke-linejoin="round"/>
        <path fill-rule="evenodd" clip-rule="evenodd" d="M102.07 102.027C102.07 102.027 98.1087 101.469 96.9832 104.889C95.9021 108.142 98.8972 110.756 102.07 110.579C102.07 110.579 104.977 119.857 114.069 120.336C124.712 120.894 129.701 112.52 129.701 112.52C129.701 112.52 135.497 112.821 136.197 108.505C136.932 104.003 131.367 103.33 131.367 103.33L130.818 99.2888L124.278 91.2422L107.378 94.096L103.169 97.8533L102.07 102.027Z" fill="white" stroke="#000045" stroke-width="0.774379" stroke-miterlimit="1.5" stroke-linecap="round" stroke-linejoin="round"/>
        <path fill-rule="evenodd" clip-rule="evenodd" d="M104.932 97.4507C104.396 97.1228 101.885 119.526 101.537 120.651C101.367 121.201 100.384 100.641 102.537 93.2236C105.45 83.2186 117.361 80.3298 126.653 84.2822C135.937 88.2346 136.518 98.7889 134.409 104.434L131.327 103.424C131.327 103.424 124.161 122.814 123.705 122.61C122.686 122.149 129.048 101.563 129.048 101.563L123.124 99.356V95.3948L120.828 99.0015C120.828 99.0015 108.578 96.6797 104.932 97.4507Z" fill="#000045"/>
        <path d="M130.152 107.317L133.67 106.98" stroke="#000045" stroke-width="0.774379" stroke-miterlimit="1.5" stroke-linecap="round" stroke-linejoin="round"/>
        <path d="M131.347 107.379L132.207 109.355" stroke="#000045" stroke-width="0.774379" stroke-miterlimit="1.5" stroke-linecap="round" stroke-linejoin="round"/>
        <path d="M98.8499 105.387L101.172 106.414" stroke="#000045" stroke-width="0.774379" stroke-miterlimit="1.5" stroke-linecap="round" stroke-linejoin="round"/>
        <path d="M114.972 108.275L113.766 110.703" stroke="#000045" stroke-width="0.774379" stroke-miterlimit="1.5" stroke-linecap="round" stroke-linejoin="round"/>
        <path d="M119.083 107.5C119.083 107.5 120.466 105.772 123.284 106.614" stroke="#000045" stroke-width="0.774379" stroke-miterlimit="1.5" stroke-linecap="round" stroke-linejoin="round"/>
        <path d="M111.515 106.349C111.515 106.349 110.736 104.278 107.796 104.204" stroke="#000045" stroke-width="0.774379" stroke-miterlimit="1.5" stroke-linecap="round" stroke-linejoin="round"/>
        <path d="M119.93 101.561C119.93 101.561 123.076 99.9035 125.442 102.899" stroke="#000045" stroke-width="0.774379" stroke-miterlimit="1.5" stroke-linecap="round" stroke-linejoin="round"/>
        <path d="M113.425 101.513C113.425 101.513 111.35 98.6256 107.896 100.25" stroke="#000045" stroke-width="0.774379" stroke-miterlimit="1.5" stroke-linecap="round" stroke-linejoin="round"/>
        <path fill-rule="evenodd" clip-rule="evenodd" d="M103.807 121.747C102.655 122.81 100.856 122.748 99.7838 121.605C98.6938 120.453 98.7471 118.645 99.8991 117.555C100.989 116.536 102.611 116.474 103.426 117.724C103.657 118.087 103.586 118.539 103.4 118.893C103.249 119.159 103.036 119.408 102.753 119.408C102.575 119.416 102.398 119.301 102.221 119.106C101.875 118.734 101.29 118.707 100.918 119.053C100.546 119.399 100.519 119.983 100.865 120.364C101.494 121.029 102.168 121.268 102.779 121.26C103.692 121.242 104.543 120.648 105.021 119.78C105.518 118.858 105.588 117.662 104.968 116.713C103.497 114.462 100.59 114.374 98.6318 116.217C96.7442 117.998 96.6557 120.976 98.4369 122.872C100.218 124.76 103.204 124.848 105.092 123.067C105.101 123.058 105.11 123.05 105.119 123.05L112.447 116.146C112.819 115.792 112.837 115.207 112.483 114.835C112.137 114.471 111.553 114.454 111.18 114.799L103.825 121.729C103.816 121.729 103.816 121.738 103.807 121.747Z" fill="white" stroke="#3D61FF" stroke-width="0.774379" stroke-miterlimit="2" stroke-linejoin="round"/>
        <path d="M111.986 114.352L112.975 115.221" stroke="#000045" stroke-width="1.45526" stroke-miterlimit="1.5" stroke-linecap="round" stroke-linejoin="round"/>
        <path d="M130.401 63.75L133.414 69.0585" stroke="#3D61FF" stroke-width="0.774379" stroke-miterlimit="1.5" stroke-linecap="round" stroke-linejoin="round"/>
        <path d="M152.191 34.7637C152.191 34.7637 154.991 43.195 159.305 41.0213C160.526 40.4057 160.4 38.0837 158.758 37.6772C156.535 37.1263 152.896 41.304 163.786 46.6207" stroke="#000045" stroke-width="0.774379" stroke-miterlimit="1.5" stroke-linecap="round" stroke-linejoin="round"/>
        <path d="M98.7751 70.125C98.7751 70.125 105.184 70.7412 105.009 67.2448C104.959 66.2549 103.383 65.6577 102.632 66.6269C101.615 67.9387 103.317 71.5754 110.034 65.9169" stroke="#000045" stroke-width="0.774789" stroke-miterlimit="1.5" stroke-linecap="round" stroke-linejoin="round"/>
        <path d="M175.661 32.8711L175.989 41.6796" stroke="#000045" stroke-width="0.774379" stroke-miterlimit="1.5" stroke-linecap="round" stroke-linejoin="round"/>
        <path fill-rule="evenodd" clip-rule="evenodd" d="M128.882 41.0707L129.467 43.3572C129.467 43.3572 133.038 45.2357 136.237 43.8799L135.874 40.4414C135.874 40.4414 132.188 41.9569 128.882 41.0707Z" fill="white" stroke="#3D61FF" stroke-width="0.774379" stroke-miterlimit="1.5" stroke-linecap="round" stroke-linejoin="round"/>
        <path fill-rule="evenodd" clip-rule="evenodd" d="M81.6921 59.3366C81.6921 59.3366 84.6874 58.991 87.408 56.2793L88.4092 58.3885C88.4092 58.3885 87.3371 62.8812 83.172 63.8472L81.6921 59.3366Z" fill="white" stroke="#3D61FF" stroke-width="0.774379" stroke-miterlimit="1.5" stroke-linecap="round" stroke-linejoin="round"/>
        <path fill-rule="evenodd" clip-rule="evenodd" d="M144.135 83.3818L145.703 80.8828C145.703 80.8828 146.208 84.4186 149.044 85.8365L147.892 86.4038C147.892 86.4038 146.022 86.7138 144.135 83.3818Z" fill="white" stroke="#000045" stroke-width="0.774379" stroke-miterlimit="1.5" stroke-linecap="round" stroke-linejoin="round"/>
        <path d="M106.483 45.3985C107.082 45.3985 107.567 44.9134 107.567 44.3147C107.567 43.7159 107.082 43.2305 106.483 43.2305C105.884 43.2305 105.399 43.7159 105.399 44.3147C105.399 44.9134 105.884 45.3985 106.483 45.3985Z" stroke="#000045" stroke-width="0.774379" stroke-miterlimit="1.5" stroke-linecap="round" stroke-linejoin="round"/>
        <path d="M170.196 27.0704C170.794 27.0704 171.28 26.5853 171.28 25.9865C171.28 25.3878 170.794 24.9023 170.196 24.9023C169.597 24.9023 169.112 25.3878 169.112 25.9865C169.112 26.5853 169.597 27.0704 170.196 27.0704Z" stroke="#000045" stroke-width="0.774379" stroke-miterlimit="1.5" stroke-linecap="round" stroke-linejoin="round"/>
        <path d="M87.4302 91.9602C87.9861 91.9602 88.4365 91.5098 88.4365 90.9539C88.4365 90.398 87.9861 89.9473 87.4302 89.9473C86.8743 89.9473 86.4236 90.398 86.4236 90.9539C86.4236 91.5098 86.8743 91.9602 87.4302 91.9602Z" stroke="#000045" stroke-width="0.774379" stroke-miterlimit="1.5" stroke-linecap="round" stroke-linejoin="round"/>
        <path d="M162.314 27.4271C162.314 27.4271 164.268 27.822 163.332 29.7394C162.395 31.6538 163.384 32.3103 164.54 32.4833C165.695 32.6532 167.005 33.5709 165.757 35.2483C164.505 36.9278 165.663 38.2895 167.116 38.3354" stroke="#3D61FF" stroke-width="0.744617" stroke-miterlimit="1.5" stroke-linecap="round" stroke-linejoin="round"/>
        <path d="M32.8711 203.701H169.131" stroke="#000045" stroke-width="0.774275" stroke-miterlimit="1.5" stroke-linecap="round" stroke-linejoin="round"/>
        <path fill-rule="evenodd" clip-rule="evenodd" d="M88.7271 203.647L90.8626 144.991L102.392 126.478L104.457 126.194C104.457 126.194 105.529 123.607 106.3 123.057C106.3 123.057 116.544 122.287 122.216 124.369C122.597 124.52 122.854 124.883 122.854 125.3C122.854 125.743 122.854 126.23 122.854 126.23L118.379 203.647H88.7271Z" fill="white" stroke="#000045" stroke-width="0.774379" stroke-miterlimit="1.5" stroke-linecap="round" stroke-linejoin="round"/>
        <path fill-rule="evenodd" clip-rule="evenodd" d="M121.989 126.604C121.989 126.604 125.702 128.003 128.094 128.916C129.335 129.377 130.283 130.423 130.62 131.708C131.94 136.679 135.228 149.006 135.228 149.006L133.757 203.693H114.775C114.793 193.448 115.165 154.642 119.897 132.116C120.367 129.873 120.97 128.216 121.989 126.604Z" fill="#3D61FF"/>
        <path fill-rule="evenodd" clip-rule="evenodd" d="M99.243 124.611C99.243 124.611 94.9186 125.683 92.455 126.286C91.3916 126.552 90.4963 127.252 89.9824 128.209C87.7846 132.312 81.8914 143.354 81.8914 143.354L81.9004 143.372C81.9004 143.372 74.5894 185.581 71.0713 203.606H92.4194C94.2538 180.193 98.339 147.98 103.869 126.242C103.869 126.242 100.812 125.879 99.4116 124.762L99.243 124.611Z" fill="#3D61FF"/>
        <path d="M106.42 126.207C106.42 126.207 115.911 125.866 119.764 126.991" stroke="#000045" stroke-width="0.774404" stroke-miterlimit="1.5" stroke-linecap="round" stroke-linejoin="round"/>
        <path fill-rule="evenodd" clip-rule="evenodd" d="M48.3853 76.0238C48.3853 76.0238 48.8992 78.7178 53.2769 80.7383L57.1232 79.3294L55.2889 69.7409L53.2769 68.7305L48.3853 76.0238Z" fill="white" stroke="#000045" stroke-width="0.774379" stroke-miterlimit="1.5" stroke-linecap="round" stroke-linejoin="round"/>
        <path d="M52.0921 32.6719C52.0921 32.6719 50.8602 40.7453 53.3061 50.4579C55.752 60.1705 55.3177 69.5375 48.5207 80.1008C41.7237 90.673 44.6568 100.616 44.6568 100.616" stroke="#3D61FF" stroke-width="0.774379" stroke-miterlimit="1.5" stroke-linecap="round" stroke-linejoin="round"/>
        <path d="M41.8468 38.1504C41.8468 38.1504 40.2608 44.2474 47.0667 51.9129C53.8637 59.5784 57.0097 65.0641 50.0797 78.1797C43.1497 91.3041 51.7811 101.655 51.7811 101.655" stroke="#000045" stroke-width="0.774379" stroke-miterlimit="1.5" stroke-linecap="round" stroke-linejoin="round"/>
        <path d="M60.9903 39.4453C60.9903 39.4453 59.5812 41.3683 59.7939 53.1988C60.0155 65.0294 53.3514 70.3464 48.7433 78.0031C44.1351 85.6508 40.67 90.9948 39.9434 98.4653" stroke="#000045" stroke-width="0.774379" stroke-miterlimit="1.5" stroke-linecap="round" stroke-linejoin="round"/>
        <path fill-rule="evenodd" clip-rule="evenodd" d="M50.4141 64.4473C50.4141 64.4473 47.9858 65.1208 48.1453 67.3097C48.1453 67.3097 46.1867 68.7719 46.7184 70.4114C46.7184 70.4114 45.3185 71.8024 45.9388 73.5393C45.9388 73.5393 45.1679 74.8775 45.9388 75.9587C46.7098 77.0398 48.8986 78.1566 49.9887 76.4817C49.9887 76.4817 51.3357 75.4449 51.0787 74.1333C51.0787 74.1333 52.3457 73.4065 52.4343 72.1038C52.4343 72.1038 54.1358 71.253 54.1181 69.4452V68.4261L50.4141 64.4473Z" fill="white" stroke="#000045" stroke-width="0.774379" stroke-miterlimit="1.5" stroke-linecap="round" stroke-linejoin="round"/>
        <path fill-rule="evenodd" clip-rule="evenodd" d="M60.3441 75.7195C60.3441 75.7195 57.9602 68.8782 57.5969 67.2831C57.2602 65.8209 53.7509 64.8548 51.243 63.7027C51.0658 63.623 50.853 63.6318 50.6847 63.747C50.5163 63.8534 50.4189 64.0485 50.4278 64.2434C50.4721 65.236 51.0836 66.9108 54.1498 68.4528C54.1498 68.4528 53.1838 71.6872 54.1498 74.6028L55.9222 77.926L60.3441 75.7195Z" fill="white" stroke="#000045" stroke-width="0.774379" stroke-miterlimit="1.5" stroke-linecap="round" stroke-linejoin="round"/>
        <path d="M48.2234 67.3359C48.2234 67.3359 50.0459 70.0433 52.4387 72.0041" stroke="#000045" stroke-width="0.773789" stroke-miterlimit="1.5" stroke-linecap="round" stroke-linejoin="round"/>
        <path d="M46.7292 70.5234C46.7292 70.5234 48.4399 72.3741 50.9541 74.007" stroke="#000045" stroke-width="0.767178" stroke-miterlimit="1.5" stroke-linecap="round" stroke-linejoin="round"/>
        <path d="M45.895 73.5117C45.895 73.5117 47.3605 75.0317 50.0587 76.0105" stroke="#000045" stroke-width="0.763696" stroke-miterlimit="1.5" stroke-linecap="round" stroke-linejoin="round"/>
        <path fill-rule="evenodd" clip-rule="evenodd" d="M60.1013 37.9786L58.258 39.4937L63.3359 41.3547L62.9105 39.0063C68.3428 39.9989 74.3421 35.8516 76.8146 29.09C79.5175 21.717 77.0186 14.0072 71.2406 11.898C65.4627 9.78006 58.5858 14.0515 55.883 21.4245C53.4105 28.1861 55.3071 35.2314 60.1013 37.9786Z" fill="white" stroke="#000045" stroke-width="0.774379" stroke-miterlimit="1.5" stroke-linecap="round" stroke-linejoin="round"/>
        <path fill-rule="evenodd" clip-rule="evenodd" d="M40.4536 37.2912C35.2871 36.857 30.8828 31.6196 30.3068 24.8846C29.6776 17.5381 33.8427 11.1754 39.5941 10.688C45.3454 10.2006 50.5209 15.7567 51.1501 23.1032C51.7262 29.8382 48.2699 35.7491 43.2541 37.0607L44.539 38.8863L39.4878 39.3118L40.4536 37.2912Z" fill="white" stroke="#000045" stroke-width="0.774379" stroke-miterlimit="1.5" stroke-linecap="round" stroke-linejoin="round"/>
        <path fill-rule="evenodd" clip-rule="evenodd" d="M50.6771 31.1628C44.8282 29.6563 40.7784 22.7972 41.4164 14.9456C42.1076 6.39393 48.1069 -0.11074 54.8065 0.429834C61.506 0.979269 66.3801 8.3612 65.6889 16.9129C65.0597 24.7645 59.9555 30.888 53.9383 31.4197L55.0637 33.7681L49.1882 33.2897L50.6771 31.1628Z" fill="white" stroke="#3D61FF" stroke-width="0.774379" stroke-miterlimit="1.5" stroke-linecap="round" stroke-linejoin="round"/>
        <path d="M44.9025 9.35708C46.3832 6.3542 48.7451 4.13255 51.4684 3.27766" stroke="#3D61FF" stroke-width="0.774644" stroke-miterlimit="1.5" stroke-linecap="round" stroke-linejoin="round"/>
        <path d="M76.0708 23.0932C75.99 20.0309 74.8779 17.2804 72.9423 15.5274" stroke="#000045" stroke-width="0.774593" stroke-miterlimit="1.5" stroke-linecap="round" stroke-linejoin="round"/>
        <path d="M32.4682 19.683C33.2964 16.9298 34.9816 14.7132 37.1668 13.6029" stroke="#000045" stroke-width="0.774284" stroke-miterlimit="1.5" stroke-linecap="round" stroke-linejoin="round"/>
        <path fill-rule="evenodd" clip-rule="evenodd" d="M81.9007 143.449L99.2523 124.715C97.09 122.651 82.6363 105.707 82.6363 105.707L69.2639 82.595C69.2639 82.595 67.0749 78.0223 63.7429 78.6338C63.7429 78.6338 62.0327 76.2499 61.2705 75.1953C61.049 74.894 60.6679 74.7432 60.2957 74.8318C58.7449 75.2306 54.6152 76.6839 52.1605 81.2743C51.9655 81.6377 51.9299 82.0631 52.0629 82.453C52.3819 83.419 53.0024 85.2622 53.0024 85.2622C53.0024 85.2622 52.1072 88.2489 53.3035 91.0404C54.4999 93.8319 64.5937 114.719 64.5937 114.719L81.9007 143.449Z" fill="#3D61FF"/>
        <path d="M54.6731 83.8659C54.6731 83.8659 58.3596 81.0391 61.5144 79.4883" stroke="#000045" stroke-width="0.774379" stroke-miterlimit="1.5" stroke-linecap="round" stroke-linejoin="round"/>
        <path d="M82.8501 142.724L86.4392 138.656" stroke="#000045" stroke-width="0.774379" stroke-miterlimit="1.5" stroke-linecap="round" stroke-linejoin="round"/>
        <path fill-rule="evenodd" clip-rule="evenodd" d="M174.992 69.045C174.992 69.045 174.248 67.7336 173.406 68.2564C172.573 68.7704 174.319 70.5959 174.709 71.8631C175.098 73.1304 176.348 75.9929 175.843 78.5185L178.28 82.7809L180.46 85.5724L184.784 80.4945L174.992 69.045Z" fill="white" stroke="#000045" stroke-width="0.774379" stroke-miterlimit="1.5" stroke-linecap="round" stroke-linejoin="round"/>
        <path fill-rule="evenodd" clip-rule="evenodd" d="M178.688 48.4365L164.96 56.3622C164.96 56.3622 181.641 77.3697 184.677 81.1872C184.948 81.5286 185.433 81.6197 185.804 81.4053C186.595 80.949 187.899 80.1961 188.673 79.749C189.037 79.5391 189.198 79.1068 189.063 78.7083C187.499 74.1569 178.688 48.4365 178.688 48.4365Z" fill="white" stroke="#000045" stroke-width="0.774482" stroke-miterlimit="1.5" stroke-linecap="round" stroke-linejoin="round"/>
        <path d="M172.896 54.3153C176.686 52.1271 179.269 49.5046 178.664 48.4578C178.06 47.4111 174.498 48.3365 170.708 50.5246C166.918 52.7128 164.335 55.3352 164.939 56.382C165.543 57.4287 169.106 56.5035 172.896 54.3153Z" fill="white" stroke="#000045" stroke-width="0.774854" stroke-miterlimit="1.5" stroke-linecap="round" stroke-linejoin="round"/>
        <path d="M181.955 60.3638C181.459 62.5261 180.236 66.0885 177.205 69.7573" stroke="#3D61FF" stroke-width="0.774379" stroke-miterlimit="1.5" stroke-linecap="round" stroke-linejoin="round"/>
        <path d="M184.357 67.1372C183.789 69.0691 182.708 71.6655 180.679 74.3773" stroke="#3D61FF" stroke-width="0.774379" stroke-miterlimit="1.5" stroke-linecap="round" stroke-linejoin="round"/>
        <path d="M179.375 52.7935C179.003 54.9823 177.656 60.0426 172.835 64.8989" stroke="#3D61FF" stroke-width="0.774379" stroke-miterlimit="1.5" stroke-linecap="round" stroke-linejoin="round"/>
        <path fill-rule="evenodd" clip-rule="evenodd" d="M184.055 64.1489C184.055 64.1489 185.8 64.7425 185.34 66.5946C185.34 66.5946 186.873 67.7468 186.297 69.2445C186.297 69.2445 187.635 69.785 187.28 71.3447C187.28 71.3447 188.379 71.7878 187.927 73.0108C187.466 74.2426 186.146 75.3147 185.534 75.1906C184.923 75.0665 184.64 74.2069 185.792 72.9751C185.792 72.9751 184.542 74.012 183.851 73.3739C182.982 72.5675 184.197 71.3713 184.197 71.3713C184.197 71.3713 183.115 71.9295 182.672 71.2737C182.052 70.3521 183.363 68.9696 183.363 68.9696C183.363 68.9696 182.282 69.7316 181.742 69.5367C180.217 68.9784 182.22 65.7529 184.055 64.1489Z" fill="white" stroke="#000045" stroke-width="0.774379" stroke-miterlimit="1.5" stroke-linecap="round" stroke-linejoin="round"/>
        <path d="M183.359 68.9543L185.276 66.6949" stroke="#000045" stroke-width="0.754001" stroke-miterlimit="1.5" stroke-linecap="round" stroke-linejoin="round"/>
        <path d="M184.184 71.3553L186.225 69.272" stroke="#000045" stroke-width="0.758875" stroke-miterlimit="1.5" stroke-linecap="round" stroke-linejoin="round"/>
        <path d="M185.571 73.1747L187.192 71.3639" stroke="#000045" stroke-width="0.804106" stroke-miterlimit="1.5" stroke-linecap="round" stroke-linejoin="round"/>
        <path fill-rule="evenodd" clip-rule="evenodd" d="M121.984 126.555C123.393 124.295 125.582 122.124 129.286 118.508C139.229 108.822 146.017 103.718 146.017 103.718C146.017 103.718 161.809 85.4623 164.805 82.6619C167.8 79.8705 169.935 81.1731 169.935 81.1731C169.935 81.1731 172.461 79.1085 173.79 78.0185C174.287 77.6197 174.987 77.5842 175.51 77.9475C177.105 79.0818 180.348 81.8468 181.279 86.2157C181.376 86.6411 181.296 87.0928 181.066 87.465C180.224 88.8297 178.124 92.2241 178.124 92.2241C178.124 92.2241 178.346 94.5634 176.201 97.8334C174.056 101.112 158.902 120.989 158.902 120.989L135.233 148.612L135.224 148.958L121.984 126.555Z" fill="#3D61FF"/>
        <path d="M171.291 82.3774C171.291 82.3774 175.181 85.8246 177.29 90.5657" stroke="#000045" stroke-width="0.774379" stroke-miterlimit="1.5" stroke-linecap="round" stroke-linejoin="round"/>
        <path d="M128.932 138.557L134.406 147.485" stroke="#000045" stroke-width="0.815924" stroke-miterlimit="1.5" stroke-linecap="round" stroke-linejoin="round"/>
    </g>
    <defs>
        <clipPath id="clip0_48_3263">
            <rect width="204" height="204" fill="white"/>
        </clipPath>
    </defs>
</svg>
