<svg width="224" height="146" viewBox="0 0 224 146" fill="none" xmlns="http://www.w3.org/2000/svg">
    <path fill-rule="evenodd" clip-rule="evenodd" d="M223.387 10.6747C223.387 8.10909 222.372 5.64865 220.562 3.83383C218.739 2.01902 216.287 1 213.72 1C180.161 1 68.9958 1 35.437 1C32.8694 1 30.4049 2.01902 28.5947 3.83383C26.7717 5.64865 25.7573 8.10909 25.7573 10.6747C25.7573 36.8972 25.7573 109.118 25.7573 135.341C25.7573 137.907 26.7717 140.367 28.5947 142.182C30.4049 143.996 32.8694 145.016 35.437 145.016H213.72C216.287 145.016 218.739 143.996 220.562 142.182C222.372 140.367 223.387 137.907 223.387 135.341V10.6747Z" fill="white" stroke="#000045" stroke-width="0.535276" stroke-miterlimit="1.5" stroke-linecap="round" stroke-linejoin="round"/>
    <path fill-rule="evenodd" clip-rule="evenodd" d="M203.027 145.04C202.706 144.531 199.471 138.866 200.152 122.798C200.177 122.236 200.46 121.714 200.909 121.383C201.371 121.052 201.949 120.945 202.488 121.094C207.084 122.468 217.432 127.217 220.102 142.621C218.407 144.127 216.161 145.04 213.708 145.04H203.027Z" fill="white" stroke="#000045" stroke-width="0.535348" stroke-miterlimit="1.5" stroke-linecap="round" stroke-linejoin="round"/>
    <path fill-rule="evenodd" clip-rule="evenodd" d="M191.842 145.064C191.842 145.064 208.338 133.689 203.794 105.205C203.665 104.412 203.178 103.723 202.459 103.343C201.752 102.963 200.905 102.936 200.173 103.269C193.408 106.351 177.809 116.574 178.58 145.064H191.842Z" fill="white" stroke="#000045" stroke-width="0.535348" stroke-miterlimit="1.5" stroke-linecap="round" stroke-linejoin="round"/>
    <path d="M185.277 143.832C185.277 143.832 190.646 122.365 197.941 112.771" stroke="#000045" stroke-width="0.535348" stroke-miterlimit="1.5" stroke-linecap="round" stroke-linejoin="round"/>
    <path d="M189.444 117.552L190.864 126.282" stroke="#000045" stroke-width="0.535348" stroke-miterlimit="1.5" stroke-linecap="round" stroke-linejoin="round"/>
    <path d="M183.148 129.285L186.434 139.083" stroke="#000045" stroke-width="0.535348" stroke-miterlimit="1.5" stroke-linecap="round" stroke-linejoin="round"/>
    <path d="M188.585 132.803L195.483 129.546" stroke="#000045" stroke-width="0.535348" stroke-miterlimit="1.5" stroke-linecap="round" stroke-linejoin="round"/>
    <path d="M194.18 119.183L199.801 117.552" stroke="#000045" stroke-width="0.535348" stroke-miterlimit="1.5" stroke-linecap="round" stroke-linejoin="round"/>
    <path d="M205.49 127.112C205.49 127.112 211.609 135.956 213.045 144.324" stroke="#000045" stroke-width="0.587984" stroke-miterlimit="1.5" stroke-linecap="round" stroke-linejoin="round"/>
    <path d="M209.852 128.331L209.571 134.249" stroke="#000045" stroke-width="0.582552" stroke-miterlimit="1.5" stroke-linecap="round" stroke-linejoin="round"/>
    <path d="M205.304 136.649L211.445 139" stroke="#000045" stroke-width="0.619559" stroke-miterlimit="1.5" stroke-linecap="round" stroke-linejoin="round"/>
    <path d="M215.649 136.499L212.97 143.588" stroke="#000045" stroke-width="0.587984" stroke-miterlimit="1.5" stroke-linecap="round" stroke-linejoin="round"/>
    <path d="M37.325 14.5857C39.0125 14.5857 40.3805 13.2177 40.3805 11.5301C40.3805 9.84262 39.0125 8.47461 37.325 8.47461C35.6374 8.47461 34.2694 9.84262 34.2694 11.5301C34.2694 13.2177 35.6374 14.5857 37.325 14.5857Z" fill="#000045" stroke="#000045" stroke-width="0.534533" stroke-miterlimit="1.5" stroke-linecap="round" stroke-linejoin="round"/>
    <path d="M48.1295 14.5857C49.817 14.5857 51.185 13.2177 51.185 11.5301C51.185 9.84262 49.817 8.47461 48.1295 8.47461C46.442 8.47461 45.0739 9.84262 45.0739 11.5301C45.0739 13.2177 46.442 14.5857 48.1295 14.5857Z" fill="#000045" stroke="#000045" stroke-width="0.534533" stroke-miterlimit="1.5" stroke-linecap="round" stroke-linejoin="round"/>
    <path d="M58.934 14.5857C60.6215 14.5857 61.9895 13.2177 61.9895 11.5301C61.9895 9.84262 60.6215 8.47461 58.934 8.47461C57.2465 8.47461 55.8784 9.84262 55.8784 11.5301C55.8784 13.2177 57.2465 14.5857 58.934 14.5857Z" fill="#000045" stroke="#000045" stroke-width="0.534533" stroke-miterlimit="1.5" stroke-linecap="round" stroke-linejoin="round"/>
    <path fill-rule="evenodd" clip-rule="evenodd" d="M215.252 40.8618C215.252 39.872 214.449 39.0684 213.459 39.0684C207.705 39.0684 189.755 39.0684 184.002 39.0684C183.012 39.0684 182.208 39.872 182.208 40.8618C182.208 46.7558 182.208 65.4878 182.208 71.3818C182.208 72.3729 183.012 73.1753 184.002 73.1753C189.755 73.1753 207.705 73.1753 213.459 73.1753C214.449 73.1753 215.252 72.3729 215.252 71.3818C215.252 65.4878 215.252 46.7558 215.252 40.8618Z" fill="white" stroke="#3D61FF" stroke-width="0.495605" stroke-miterlimit="1.5" stroke-linecap="round" stroke-linejoin="round"/>
    <path fill-rule="evenodd" clip-rule="evenodd" d="M210.952 45.2946C210.952 44.3037 210.149 43.501 209.158 43.501C204.637 43.501 192.814 43.501 188.293 43.501C187.303 43.501 186.499 44.3037 186.499 45.2946C186.499 49.9364 186.499 62.3047 186.499 66.9465C186.499 67.9374 187.303 68.7402 188.293 68.7402C192.814 68.7402 204.637 68.7402 209.158 68.7402C210.149 68.7402 210.952 67.9374 210.952 66.9465V45.2946Z" fill="white" stroke="#3D61FF" stroke-width="0.495684" stroke-miterlimit="1.5" stroke-linecap="round" stroke-linejoin="round"/>
    <path fill-rule="evenodd" clip-rule="evenodd" d="M198.726 31.5068L206.657 39.0584H190.796L198.726 31.5068Z" fill="white" stroke="#3D61FF" stroke-width="0.470915" stroke-miterlimit="1.5" stroke-linecap="round" stroke-linejoin="round"/>
    <path fill-rule="evenodd" clip-rule="evenodd" d="M61.814 63.8509H71.7725C73.8574 63.8509 75.5482 62.1614 75.5482 60.0752C75.5482 54.5189 75.5482 44.1958 75.5482 38.6382C75.5482 36.5533 73.8574 34.8626 71.7725 34.8626C59.0063 34.8626 17.5406 34.8626 4.77569 34.8626C2.6895 34.8626 0.999992 36.5533 0.999992 38.6382C0.999992 44.1958 0.999992 54.5189 0.999992 60.0752C0.999992 62.1614 2.6895 63.8509 4.77569 63.8509H49.9966L60.2247 74.9289C60.4801 75.2062 60.8794 75.2986 61.2312 75.1613C61.5829 75.0239 61.814 74.685 61.814 74.3076V63.8509Z" fill="white" stroke="#3D61FF" stroke-width="0.535348" stroke-miterlimit="1.5" stroke-linecap="round" stroke-linejoin="round"/>
    <path fill-rule="evenodd" clip-rule="evenodd" d="M34.6311 52.8422C34.6311 53.2462 34.7915 53.6334 35.0769 53.9188C35.3628 54.2047 35.75 54.3647 36.1536 54.3647C41.7314 54.3647 61.0113 54.3647 66.5891 54.3647C66.9927 54.3647 67.3804 54.2047 67.6658 53.9188C67.9512 53.6334 68.1116 53.2462 68.1116 52.8422C68.1116 52.4382 67.9512 52.051 67.6658 51.7656C67.3804 51.4798 66.9927 51.3193 66.5891 51.3193C61.0113 51.3193 41.7314 51.3193 36.1536 51.3193C35.75 51.3193 35.3628 51.4798 35.0769 51.7656C34.7915 52.051 34.6311 52.4382 34.6311 52.8422Z" stroke="#3D61FF" stroke-width="0.529193" stroke-miterlimit="1.5" stroke-linecap="round" stroke-linejoin="round"/>
    <path fill-rule="evenodd" clip-rule="evenodd" d="M8.79855 44.5854C8.79855 44.9894 8.95891 45.3766 9.24494 45.662C9.53005 45.9478 9.91717 46.1079 10.3216 46.1079C18.6164 46.1079 58.2938 46.1079 66.5895 46.1079C66.993 46.1079 67.3801 45.9478 67.6662 45.662C67.9513 45.3766 68.1116 44.9894 68.1116 44.5854C68.1116 44.1814 67.9513 43.7941 67.6662 43.5088C67.3801 43.2229 66.993 43.0624 66.5895 43.0624C58.2938 43.0624 18.6164 43.0624 10.3216 43.0624C9.91717 43.0624 9.53005 43.2229 9.24494 43.5088C8.95891 43.7941 8.79855 44.1814 8.79855 44.5854Z" stroke="#3D61FF" stroke-width="0.465865" stroke-miterlimit="1.5" stroke-linecap="round" stroke-linejoin="round"/>
    <path fill-rule="evenodd" clip-rule="evenodd" d="M145.402 63.1779C145.402 63.1779 158.417 59.4671 166.977 69.6911L164.895 73.9494H162.493L163.993 75.4328L158.825 85.7108C158.825 85.7108 144.063 87.7736 140.773 70.5152V69.4029L144.66 63.1779H145.402Z" fill="#000045" stroke="white" stroke-width="0.607068" stroke-miterlimit="1.5" stroke-linecap="round" stroke-linejoin="round"/>
    <path fill-rule="evenodd" clip-rule="evenodd" d="M113.536 72.456C113.536 72.456 115.327 75.3065 114.701 81.7775L95.6155 90.1731L92.005 76.5541C92.005 76.5541 96.8816 68.4089 106.504 68.4351L113.536 72.456Z" fill="#000045" stroke="white" stroke-width="0.607068" stroke-miterlimit="1.5" stroke-linecap="round" stroke-linejoin="round"/>
    <path fill-rule="evenodd" clip-rule="evenodd" d="M140.978 54.4399C140.978 54.4399 143.132 57.5743 143.642 62.211L139.435 69.0664C139.435 69.0664 137.819 69.7128 134.194 69.0664V59.231L140.978 54.4399Z" fill="#000045" stroke="white" stroke-width="0.607068" stroke-miterlimit="1.5" stroke-linecap="round" stroke-linejoin="round"/>
    <path fill-rule="evenodd" clip-rule="evenodd" d="M107.947 59.7622C107.947 59.7622 106.796 62.7641 107.029 66.9553L107.248 67.6075L113.93 71.3737C113.93 71.3737 115.298 71.56 117.293 69.6791L115.153 64.6887L107.947 59.7622Z" fill="#000045" stroke="white" stroke-width="0.607068" stroke-miterlimit="1.5" stroke-linecap="round" stroke-linejoin="round"/>
    <path fill-rule="evenodd" clip-rule="evenodd" d="M139.654 70.2058C139.129 69.7968 138.998 69.0557 139.348 68.4924C140.323 66.9579 142.157 64.0231 143.133 62.4712C143.307 62.2048 143.57 62.017 143.875 61.9544C144.181 61.8904 144.501 61.9544 144.763 62.1335C145.331 62.5163 145.477 63.2748 145.113 63.8455C144.108 65.4148 142.186 68.3978 141.196 69.9409C141.036 70.1928 140.774 70.3645 140.483 70.4155C140.192 70.465 139.886 70.3893 139.654 70.2058Z" fill="white" stroke="#000045" stroke-width="0.607068" stroke-miterlimit="1.5" stroke-linecap="round" stroke-linejoin="round"/>
    <path fill-rule="evenodd" clip-rule="evenodd" d="M114.434 72.14C114.74 71.5257 114.537 70.824 113.969 70.5162C112.398 69.69 109.423 68.0939 107.844 67.2527C107.567 67.1119 107.242 67.0826 106.933 67.1826C106.622 67.2812 106.355 67.4969 106.191 67.7822C105.834 68.396 106.03 69.12 106.616 69.4267C108.228 70.2683 111.306 71.8616 112.894 72.688C113.152 72.8236 113.468 72.8393 113.759 72.7367C114.05 72.6329 114.299 72.4144 114.434 72.14Z" fill="white" stroke="#000045" stroke-width="0.607068" stroke-miterlimit="1.5" stroke-linecap="round" stroke-linejoin="round"/>
    <path fill-rule="evenodd" clip-rule="evenodd" d="M105.738 44.1899C104.646 44.7475 103.641 45.3849 102.752 46.1298C101.82 46.9377 101.34 48.1695 101.514 49.3997C101.951 52.5606 102.593 55.5632 103.583 58.3048C103.903 59.1956 104.573 59.9236 105.418 60.3367C106.539 60.8912 107.486 61.0709 108.273 60.9265V50.183L105.738 44.1899Z" fill="white" stroke="#000045" stroke-width="0.605732" stroke-miterlimit="1.5" stroke-linecap="round" stroke-linejoin="round"/>
    <path fill-rule="evenodd" clip-rule="evenodd" d="M143.259 43.2895C143.259 43.2895 141.454 23.8211 124.16 23V25.3104C124.16 25.3104 135.675 27.9046 139.445 43.2895H143.259Z" fill="white" stroke="#000045" stroke-width="0.607068" stroke-miterlimit="1.5" stroke-linecap="round" stroke-linejoin="round"/>
    <path fill-rule="evenodd" clip-rule="evenodd" d="M135.399 61.9302C135.399 61.9302 135.428 71.5181 136.156 75.8491L134.191 78.6181C134.191 78.6181 129.168 80.9255 122.326 80.4727L117.158 79.4274L116.546 78.0008C116.546 78.0008 116.779 70.2981 116.546 67.9019L135.399 61.9302Z" fill="white" stroke="#000045" stroke-width="0.607068" stroke-miterlimit="1.5" stroke-linecap="round" stroke-linejoin="round"/>
    <path fill-rule="evenodd" clip-rule="evenodd" d="M105.44 45.6946C105.44 45.6946 106.022 57.3904 108.992 62.8963C111.685 67.9101 117.93 70.4795 123.098 69.7021C128.252 68.9247 133.828 64.9621 136.303 60.8887V43.2736L129.067 30.8848L107.915 40.3372L105.44 45.6946Z" fill="white" stroke="#000045" stroke-width="0.607068" stroke-miterlimit="1.5" stroke-linecap="round" stroke-linejoin="round"/>
    <path fill-rule="evenodd" clip-rule="evenodd" d="M123.125 48.828C123.125 48.828 126.604 45.6412 130.054 48.6067L123.125 48.828Z" fill="white"/>
    <path d="M123.125 48.828C123.125 48.828 126.604 45.6412 130.054 48.6067" stroke="#000045" stroke-width="0.607068" stroke-miterlimit="1.5" stroke-linecap="round" stroke-linejoin="round"/>
    <path fill-rule="evenodd" clip-rule="evenodd" d="M109.179 49.8138C109.179 49.8138 112.658 46.6271 116.108 49.5926L109.179 49.8138Z" fill="white"/>
    <path d="M109.179 49.8138C109.179 49.8138 112.658 46.6271 116.108 49.5926" stroke="#000045" stroke-width="0.607068" stroke-miterlimit="1.5" stroke-linecap="round" stroke-linejoin="round"/>
    <path d="M125.674 53.2066C126.286 53.2066 126.783 52.7104 126.783 52.0984C126.783 51.4864 126.286 50.9902 125.674 50.9902C125.062 50.9902 124.566 51.4864 124.566 52.0984C124.566 52.7104 125.062 53.2066 125.674 53.2066Z" fill="#000045"/>
    <path d="M112.326 54.5864C112.938 54.5864 113.434 54.0903 113.434 53.4783C113.434 52.8663 112.938 52.3701 112.326 52.3701C111.714 52.3701 111.218 52.8663 111.218 53.4783C111.218 54.0903 111.714 54.5864 112.326 54.5864Z" fill="#000045"/>
    <path d="M118.73 55.1299L118.261 58.6127" stroke="#000045" stroke-width="0.607068" stroke-miterlimit="1.5" stroke-linecap="round" stroke-linejoin="round"/>
    <path fill-rule="evenodd" clip-rule="evenodd" d="M118.441 63.0246C118.991 64.4832 120.736 65.134 122.336 64.4662C123.933 63.7991 124.781 62.0656 124.231 60.607L118.441 63.0246Z" fill="white" stroke="#000045" stroke-width="0.607068" stroke-miterlimit="1.5" stroke-linecap="round" stroke-linejoin="round"/>
    <path fill-rule="evenodd" clip-rule="evenodd" d="M102.979 45.7638C110.549 46.4845 118.032 46.1758 125.442 44.5657L127.626 35.3607L128.936 44.5657C130.829 44.854 132.706 44.8321 134.57 44.5657C134.861 51.9888 135.662 58.6433 136.885 64.6194C136.9 64.7169 136.987 64.7882 137.089 64.7897C137.19 64.7897 137.278 64.7198 137.307 64.6223C137.729 62.7021 138.661 58.569 138.661 58.569C138.661 58.569 146.071 35.0841 129.81 24.9459C127.67 23.608 125.18 22.9325 122.661 23.0053C115.659 23.2193 100.926 25.9955 102.979 45.7638Z" fill="#000045"/>
    <path fill-rule="evenodd" clip-rule="evenodd" d="M137.723 43.9169C137.804 43.0638 138.511 42.4117 139.364 42.416C140.747 42.4175 142.162 42.7261 143.658 43.47C144.317 43.7932 144.783 44.4032 144.928 45.1194C145.571 48.4488 145.894 51.6254 145.926 54.6433C145.926 55.2867 145.668 55.9011 145.202 56.3451C143.69 57.779 142.13 58.587 140.521 58.8534C139.653 59.0019 138.833 58.4488 138.64 57.5957C137.659 53.1598 137.321 48.6046 137.723 43.9169Z" fill="white" stroke="#000045" stroke-width="0.604422" stroke-miterlimit="1.5" stroke-linecap="round" stroke-linejoin="round"/>
    <path fill-rule="evenodd" clip-rule="evenodd" d="M137.598 79.1782C137.598 79.1782 146.639 80.535 153.772 83.1569C160.92 85.7788 166.248 88.9146 168.694 95.7059C175.274 113.989 175.027 145.031 175.027 145.031H80.4429C80.4429 145.031 81.4914 96.0713 90.9105 89.4533C100.315 82.8352 108.555 81.6735 115.106 80.7025L137.598 79.1782Z" fill="#3D61FF"/>
    <path fill-rule="evenodd" clip-rule="evenodd" d="M107.46 82.0264C119.107 79.6709 133.781 77.4698 143.943 80.3508C143.943 80.3508 140.085 102.683 140.07 118.17L109.833 116.139L107.46 82.0264Z" fill="white" stroke="#000045" stroke-width="0.607068" stroke-miterlimit="1.5" stroke-linecap="round" stroke-linejoin="round"/>
    <path fill-rule="evenodd" clip-rule="evenodd" d="M138.224 79.4269C138.224 79.4269 138.399 77.3874 136.113 75.9258C129.824 79.6672 123.273 80.296 116.474 78.0905C116.474 78.0905 115.019 78.0498 114.495 80.858C122.56 84.6067 130.479 84.3053 138.224 79.4269Z" fill="white" stroke="#000045" stroke-width="0.607068" stroke-miterlimit="1.5" stroke-linecap="round" stroke-linejoin="round"/>
    <path d="M154.619 102.438C154.619 102.438 151.62 108.149 152.013 128.765" stroke="#000045" stroke-width="0.607068" stroke-miterlimit="1.5" stroke-linecap="round" stroke-linejoin="round"/>
    <path fill-rule="evenodd" clip-rule="evenodd" d="M122.349 97.1157L109.552 106.645L106.641 113.681C106.641 113.681 114.007 130.638 112.974 144.988H145.292C145.292 144.988 151.072 107.727 122.349 97.1157Z" fill="white"/>
    <path d="M145.496 143.294C146.209 135.894 147.403 106.37 122.349 97.1157L109.552 106.645L106.641 113.681C106.641 113.681 113.454 129.338 113.061 143.294" stroke="#000045" stroke-width="0.607068" stroke-miterlimit="1.5" stroke-linecap="round" stroke-linejoin="round"/>
    <path fill-rule="evenodd" clip-rule="evenodd" d="M118.197 113.202C118.197 113.202 107.424 108.239 103.668 107.704C101.368 107.376 100.669 107.492 99.0679 109.439C97.481 111.384 96.1705 113.391 96.0977 114.298C96.0103 115.207 98.1945 121.278 99.8396 122.414C101.47 123.551 110.437 122.725 110.437 122.725L113.451 123.908L117.061 118.255L118.197 113.202Z" fill="white" stroke="#000045" stroke-width="0.607068" stroke-miterlimit="1.5" stroke-linecap="round" stroke-linejoin="round"/>
    <path d="M96.7235 116.583L98.7474 113.673" stroke="#000045" stroke-width="0.607068" stroke-miterlimit="1.5" stroke-linecap="round" stroke-linejoin="round"/>
    <path d="M97.8322 119.465L99.1567 117.418" stroke="#000045" stroke-width="0.607068" stroke-miterlimit="1.5" stroke-linecap="round" stroke-linejoin="round"/>
    <path fill-rule="evenodd" clip-rule="evenodd" d="M105.488 101.649C105.488 101.649 99.4176 111.772 99.403 124.395C99.403 130.013 100.043 132.854 102.737 132.767C105.43 132.681 106.07 129.158 105.838 126.091C105.838 126.091 109.186 110.895 112.432 105.74L105.488 101.649Z" fill="white" stroke="#000045" stroke-width="0.607068" stroke-miterlimit="1.5" stroke-linecap="round" stroke-linejoin="round"/>
    <path fill-rule="evenodd" clip-rule="evenodd" d="M111.412 85.0968C111.412 85.0968 116.842 83.3382 123.029 86.6152C123.029 86.6152 124.544 84.3966 126.698 83.4532C127.252 83.2188 127.892 83.4649 128.154 84.0108C128.635 85.0633 129.217 87.2427 128.969 91.3772C128.969 91.3772 131.065 108.572 116.624 108.869C102.182 109.167 103.376 94.9118 105.414 89.1221C105.414 89.1221 105.385 85.1638 106.768 82.0775C106.87 81.8432 107.074 81.6655 107.321 81.5869C107.569 81.5083 107.831 81.5374 108.064 81.6655C108.938 82.1751 110.306 83.2101 111.412 85.0968Z" fill="white" stroke="#000045" stroke-width="0.607068" stroke-miterlimit="1.5" stroke-linecap="round" stroke-linejoin="round"/>
    <path d="M100.623 99.4026L106.198 98.1011" stroke="#000045" stroke-width="0.607068" stroke-miterlimit="1.5" stroke-linecap="round" stroke-linejoin="round"/>
    <path d="M102.649 102.316L106.173 100.762" stroke="#000045" stroke-width="0.607068" stroke-miterlimit="1.5" stroke-linecap="round" stroke-linejoin="round"/>
    <path d="M126.494 100.565L130.541 103.538" stroke="#000045" stroke-width="0.607068" stroke-miterlimit="1.5" stroke-linecap="round" stroke-linejoin="round"/>
    <path d="M125.022 103.621L126.55 106.288" stroke="#000045" stroke-width="0.607068" stroke-miterlimit="1.5" stroke-linecap="round" stroke-linejoin="round"/>
    <path d="M110.25 97.3424C110.759 97.3424 111.172 96.7621 111.172 96.0462C111.172 95.3303 110.759 94.75 110.25 94.75C109.74 94.75 109.327 95.3303 109.327 96.0462C109.327 96.7621 109.74 97.3424 110.25 97.3424Z" fill="#000045"/>
    <path d="M120.462 98.4904C120.98 98.5533 121.451 98.0351 121.514 97.3331C121.577 96.6311 121.208 96.0111 120.69 95.9482C120.172 95.8854 119.701 96.4035 119.638 97.1056C119.575 97.8076 119.943 98.4276 120.462 98.4904Z" fill="#000045"/>
    <path fill-rule="evenodd" clip-rule="evenodd" d="M114.98 101.013C114.882 101.127 114.714 101.167 114.55 101.119C114.387 101.07 114.26 100.943 114.227 100.79C114.152 100.523 114.083 100.232 114.022 99.98C113.986 99.8401 114.038 99.6999 114.132 99.6048C114.242 99.5129 114.39 99.4813 114.537 99.5249C114.783 99.5975 115.045 99.6749 115.29 99.7475C115.437 99.7911 115.551 99.9 115.604 100.04C115.642 100.174 115.623 100.324 115.528 100.425C115.36 100.61 115.151 100.818 114.98 101.013Z" fill="#000045"/>
    <path d="M111.938 102.142C111.938 102.142 112.375 103.748 114.224 102.596C114.224 102.596 114.676 104.39 116.655 103.4" stroke="#000045" stroke-width="0.607068" stroke-miterlimit="1.5" stroke-linecap="round" stroke-linejoin="round"/>
    <path fill-rule="evenodd" clip-rule="evenodd" d="M131.384 144.947C131.384 144.947 125.212 140.183 121.485 135.49C117.743 130.798 117.875 130.41 117.816 128.71C117.816 128.71 114.002 126.181 113.492 124.41C112.968 122.638 116.622 112.722 118.966 112.406C120.378 112.219 124.251 113.929 124.251 113.929C124.251 113.929 147.354 120.671 164.111 144.947H131.384Z" fill="#3D61FF"/>
    <path d="M129.841 143.696C127.759 141.974 124.047 138.716 121.485 135.49C117.743 130.798 117.875 130.41 117.816 128.71C117.816 128.71 114.002 126.181 113.492 124.41C112.968 122.638 116.622 112.722 118.966 112.406C120.378 112.219 124.251 113.929 124.251 113.929C124.251 113.929 146.146 120.32 162.771 143.06" stroke="#000045" stroke-width="0.607068" stroke-miterlimit="1.5" stroke-linecap="round" stroke-linejoin="round"/>
    <path d="M118.049 127.202C118.049 127.202 119.141 119.193 122.678 115.349" stroke="#000045" stroke-width="0.607068" stroke-miterlimit="1.5" stroke-linecap="round" stroke-linejoin="round"/>
    <path fill-rule="evenodd" clip-rule="evenodd" d="M124.779 109.928C124.779 109.928 120.281 127.926 122.96 134.212C124.226 137.213 128.565 136.409 128.521 130.542C128.521 130.542 130.239 118.59 132.175 113.424L124.779 109.928Z" fill="white"/>
    <path d="M124.779 109.928C124.779 109.928 120.281 127.926 122.96 134.212C124.226 137.213 128.565 136.409 128.521 130.542C128.521 130.542 130.239 118.59 132.175 113.424" stroke="#000045" stroke-width="0.607068" stroke-miterlimit="1.5" stroke-linecap="round" stroke-linejoin="round"/>
    <path fill-rule="evenodd" clip-rule="evenodd" d="M81.421 91.9765L81.537 90.6939C81.537 90.6939 78.8004 85.2201 79.2663 78.8073C79.2663 78.8073 78.3925 72.3669 78.0431 69.7843C77.9703 69.1918 78.3638 68.6371 78.9461 68.5148C79.5576 68.3838 80.1687 68.7579 80.3434 69.3664C80.9694 71.6375 82.3525 76.6877 82.3525 76.6877C82.3525 76.6877 82.5563 69.8003 82.6436 66.73C82.6728 65.9235 83.3277 65.283 84.1284 65.283C84.8709 65.283 85.468 65.8493 85.5262 66.5801C85.73 69.5194 86.2103 76.4329 86.2103 76.4329C86.2103 76.4329 87.6225 68.7798 88.1757 65.7794C88.2921 65.1068 88.9035 64.6366 89.5877 64.6948C90.4029 64.7632 91.0001 65.4678 90.9565 66.2787C90.7527 69.3985 90.2866 76.4329 90.2866 76.4329C90.2866 76.4329 93.1252 69.9139 94.2752 67.2599C94.5518 66.6427 95.2506 66.3457 95.8766 66.5873C96.3716 66.7722 96.6482 67.2803 96.5317 67.7869C96.0076 70.3054 94.5232 77.3675 94.5232 77.3675L94.9599 79.3081C94.9599 79.3081 97.6094 74.6321 99.7203 74.5055C100.434 74.4632 101.54 74.9101 100.419 76.6877C99.3128 78.4667 98.3373 80.5732 97.6094 82.4686C96.8815 84.3655 94.4354 88.7359 92.6011 91.4626L91.9027 94.4877H85.4387L81.421 91.9765Z" fill="white" stroke="#000045" stroke-width="0.607068" stroke-miterlimit="1.5" stroke-linecap="round" stroke-linejoin="round"/>
    <path d="M93.609 79.7695C93.609 79.7695 89.4306 81.0885 87.9456 85.7412" stroke="#000045" stroke-width="0.607068" stroke-miterlimit="1.5" stroke-linecap="round" stroke-linejoin="round"/>
    <path fill-rule="evenodd" clip-rule="evenodd" d="M68.2617 145.02C68.2617 145.02 67.0246 135.988 69.9944 122.635C72.9643 109.281 74.2307 101.587 75.4827 99.1095C76.7347 96.6332 78.5399 96.6754 78.5399 96.6754C78.5399 96.6754 79.0782 93.9589 79.6459 92.7578C80.2137 91.5568 81.3346 91.7068 82.9215 91.9979C84.1298 92.2221 89.1668 93.5018 91.4379 94.0841C92.2531 94.2923 92.8791 94.9532 93.0393 95.783C93.1994 96.7875 93.2727 98.4165 92.8505 100.947C92.8505 100.947 94.6846 101.775 94.7282 104.235C94.7719 106.696 94.2189 122.056 92.8505 131.906C91.482 141.756 90.0259 145.02 90.0259 145.02H68.2617Z" fill="#3D61FF"/>
    <path d="M68.1019 143.325C67.8981 140.115 67.7816 132.571 69.9944 122.635C72.9643 109.281 74.2307 101.587 75.4827 99.1095C76.7347 96.6332 78.5399 96.6754 78.5399 96.6754C78.5399 96.6754 79.0782 93.9589 79.6459 92.7578C80.2137 91.5568 81.3347 91.7068 82.9215 91.9979C84.1298 92.2221 89.1669 93.5018 91.4379 94.0841C92.2532 94.2923 92.8792 94.9532 93.0393 95.783C93.1994 96.7875 93.2727 98.4165 92.8505 100.947C92.8505 100.947 94.6846 101.775 94.7282 104.235C94.7719 106.696 94.2189 122.056 92.8505 131.906C92.0061 137.905 91.1472 141.462 90.594 143.325" stroke="#000045" stroke-width="0.607068" stroke-miterlimit="1.5" stroke-linecap="round" stroke-linejoin="round"/>
    <path d="M79.9378 96.8198C79.9378 96.8198 86.2127 97.6001 91.4972 100.32" stroke="#000045" stroke-width="0.607068" stroke-miterlimit="1.5" stroke-linecap="round" stroke-linejoin="round"/>
</svg>
