<svg width="48" height="48" viewBox="0 0 48 48" fill="none" xmlns="http://www.w3.org/2000/svg">
    <rect width="48" height="48" rx="8" fill="#FF8C00" fill-opacity="0.2"/>
    <path d="M33.7954 29.1675C33.7568 28.8378 33.5629 28.082 33.0588 27.8879C32.8064 27.7909 32.5938 27.868 32.4975 28.0428C32.3421 28.3146 32.4583 28.8378 32.7492 29.3037C33.0395 29.769 33.3111 30.0017 33.5051 30.0017C33.699 30.0017 33.8731 29.769 33.7954 29.1675Z" fill="#FF8C00"/>
    <path d="M31.0827 30.4863C30.7725 30.2151 30.4238 30.0794 30.1136 30.0794C29.8426 30.0794 29.6294 30.1759 29.4933 30.3507C29.1452 30.7768 29.3 31.5531 29.8426 32.0184C30.0751 32.2318 30.4238 32.3481 30.7533 32.3481C31.0827 32.3481 31.373 32.2125 31.5477 31.9992C31.8578 31.5724 31.6832 30.9908 31.0827 30.4863Z" fill="#FF8C00"/>
    <path d="M10 22.3415C10 29.7106 15.968 35.6837 23.332 35.6837C25.2894 35.6837 27.2263 35.3154 30.0751 35.2955C32.6137 35.2955 35.404 36.1876 38.4654 38.9029C38.7756 39.1741 39.1821 38.8251 38.9111 38.4954C35.9075 34.6753 33.1172 33.958 30.3269 33.3372C26.9168 32.5808 25.1726 30.6804 23.9517 28.5666C23.7193 28.1398 23.603 28.2176 23.5832 28.7607C23.5612 29.5597 23.6197 30.359 23.7578 31.1463H23.3513C18.4873 31.1463 14.5339 27.1899 14.5339 22.3222C14.5339 17.4546 18.4873 13.4982 23.3507 13.4982C28.2147 13.4982 32.168 17.4546 32.168 22.3222C32.168 22.6712 32.1481 23.0202 32.1096 23.3499C31.4507 23.2336 30.1913 23.2143 29.3 23.292C28.9705 23.3306 29.0091 23.4855 29.2614 23.5247C32.168 24.0672 34.164 25.8711 34.6289 29.1482C34.6482 29.226 34.7452 29.2453 34.7843 29.1874C35.966 27.1899 36.6634 24.8429 36.6634 22.3415C36.6634 14.9731 30.6948 9 23.3314 9C15.9686 9 10 14.9725 10 22.3415Z" fill="#FF8C00"/>
</svg>
