<svg width="48" height="48" viewBox="0 0 48 48" fill="none" xmlns="http://www.w3.org/2000/svg">
    <rect width="48" height="48" rx="8" fill="#F7931A"/>
    <path d="M33.8271 20.1831C34.2644 17.2602 32.0389 15.6889 28.9958 14.6406L29.983 10.6811L27.5728 10.0805L26.6118 13.9356C25.9782 13.7778 25.3274 13.6288 24.6807 13.4812L25.6487 9.60065L23.2399 9L22.2521 12.9581C21.7276 12.8387 21.2128 12.7206 20.713 12.5964L20.7158 12.584L17.3919 11.7541L16.7508 14.3283C16.7508 14.3283 18.539 14.7381 18.5013 14.7635C19.4774 15.0072 19.6538 15.6532 19.6243 16.1653L18.4999 20.676C18.5671 20.6931 18.6543 20.7179 18.7504 20.7563C18.6701 20.7364 18.5843 20.7144 18.4958 20.6931L16.9196 27.012C16.8002 27.3086 16.4975 27.7534 15.8151 27.5845C15.8392 27.6195 14.0633 27.1472 14.0633 27.1472L12.8668 29.9061L16.0032 30.688C16.5867 30.8342 17.1585 30.9873 17.7214 31.1314L16.724 35.1362L19.1314 35.7369L20.1192 31.7747C20.7769 31.9531 21.4153 32.1179 22.0399 32.273L21.0556 36.2167L23.4657 36.8174L24.4631 32.8201C28.573 33.5979 31.6634 33.2842 32.9643 29.567C34.0125 26.574 32.9121 24.8476 30.7497 23.7218C32.3245 23.3587 33.5107 22.3228 33.8271 20.1831ZM28.3204 27.9051C27.5755 30.898 22.5362 29.2801 20.9025 28.8744L22.226 23.5687C23.8597 23.9765 29.0988 24.7838 28.3204 27.9051ZM29.0658 20.1399C28.3863 22.8623 24.192 21.4791 22.8314 21.14L24.0314 16.328C25.3919 16.6671 29.7736 17.3 29.0658 20.1399Z" fill="white"/>
</svg>
