<svg width="48" height="48" viewBox="0 0 48 48" fill="none" xmlns="http://www.w3.org/2000/svg">
    <rect width="48" height="48" rx="8" fill="#DADAF9"/>
    <path d="M8 15.9358C8 14.5134 9.16919 13.3604 10.5915 13.3604H37.4728C38.8952 13.3604 40 14.5134 40 15.9358V32.0646C40 33.4869 38.8952 34.64 37.4728 34.64H10.5915C9.16919 34.64 8 33.4869 8 32.0646V15.9358Z" fill="#5138EE"/>
    <path d="M11.8793 34.64H10.5915C9.16926 34.64 8 33.4869 8 32.0646V15.9358C8 14.5135 9.16926 13.3604 10.5915 13.3604H11.8793C10.457 13.3604 9.28773 14.5135 9.28773 15.9358V32.0646C9.28773 33.4869 10.457 34.64 11.8793 34.64Z" fill="#3925B9"/>
    <path d="M12.8475 23.694C12.0444 23.694 11.3933 23.0429 11.3933 22.2398V20.2056C11.3933 19.4025 12.0444 18.7515 12.8475 18.7515H17.1374C17.9405 18.7515 18.5915 19.4025 18.5915 20.2056V22.2398C18.5915 23.0429 17.9405 23.694 17.1374 23.694H12.8475Z" fill="white"/>
    <path d="M14.1354 23.6938H12.8476C12.0441 23.6938 11.3932 23.0428 11.3932 22.2399V20.2053C11.3932 19.4024 12.0441 18.7515 12.8476 18.7515H14.1354C13.3318 18.7515 12.6809 19.4024 12.6809 20.2053V22.2399C12.6809 23.0428 13.3318 23.6938 14.1354 23.6938Z" fill="#E6E6E6"/>
    <path d="M15.2565 31.0722H12.3591C11.8257 31.0722 11.3933 30.6398 11.3933 30.1064C11.3933 29.573 11.8257 29.1406 12.3591 29.1406H15.2565C15.7898 29.1406 16.2223 29.573 16.2223 30.1064C16.2223 30.6399 15.7898 31.0722 15.2565 31.0722Z" fill="#B4D2D7"/>
    <path d="M22.3389 31.0722H19.4416C18.9082 31.0722 18.4758 30.6398 18.4758 30.1064C18.4758 29.573 18.9082 29.1406 19.4416 29.1406H22.3389C22.8723 29.1406 23.3047 29.573 23.3047 30.1064C23.3047 30.6399 22.8723 31.0722 22.3389 31.0722Z" fill="#B4D2D7"/>
    <path d="M29.4214 31.0722H26.5241C25.9907 31.0722 25.5583 30.6398 25.5583 30.1064C25.5583 29.573 25.9907 29.1406 26.5241 29.1406H29.4214C29.9548 29.1406 30.3872 29.573 30.3872 30.1064C30.3872 30.6399 29.9548 31.0722 29.4214 31.0722Z" fill="#B4D2D7"/>
    <path d="M33.6066 31.0722C33.0732 31.0722 32.6408 30.6398 32.6408 30.1064C32.6408 29.573 33.0732 29.1406 33.6066 29.1406H36.504C37.0373 29.1406 37.4698 29.573 37.4698 30.1064C37.4698 30.6398 37.0373 31.0722 36.504 31.0722H33.6066Z" fill="#B4D2D7"/>
    <path d="M13.6467 31.0722H12.359C11.8258 31.0722 11.3932 30.6395 11.3932 30.1064C11.3932 29.8399 11.5013 29.5984 11.6765 29.4239C11.8509 29.2488 12.0924 29.1406 12.359 29.1406H13.6467C13.3801 29.1406 13.1387 29.2488 12.9642 29.4239C12.7891 29.5984 12.6809 29.8399 12.6809 30.1064C12.6809 30.6395 13.1136 31.0722 13.6467 31.0722Z" fill="#9BB9C3"/>
    <path d="M20.7292 31.0722H19.4414C18.9083 31.0722 18.4756 30.6395 18.4756 30.1064C18.4756 29.8399 18.5838 29.5984 18.7589 29.4239C18.9334 29.2488 19.1749 29.1406 19.4414 29.1406H20.7292C20.4626 29.1406 20.2212 29.2488 20.0467 29.4239C19.8715 29.5984 19.7634 29.8399 19.7634 30.1064C19.7634 30.6395 20.196 31.0722 20.7292 31.0722Z" fill="#9BB9C3"/>
    <path d="M27.8117 31.0722H26.5239C25.9908 31.0722 25.5581 30.6395 25.5581 30.1064C25.5581 29.8399 25.6663 29.5984 25.8414 29.4239C26.0159 29.2488 26.2574 29.1406 26.5239 29.1406H27.8117C27.5451 29.1406 27.3036 29.2488 27.1292 29.4239C26.954 29.5984 26.8459 29.8399 26.8459 30.1064C26.8459 30.6395 27.2785 31.0722 27.8117 31.0722Z" fill="#9BB9C3"/>
    <path d="M34.8942 31.0722H33.6065C33.0733 31.0722 32.6407 30.6395 32.6407 30.1064C32.6407 29.8399 32.7488 29.5984 32.924 29.4239C33.0984 29.2488 33.3399 29.1406 33.6065 29.1406H34.8942C34.6276 29.1406 34.3862 29.2488 34.2117 29.4239C34.0366 29.5984 33.9284 29.8399 33.9284 30.1064C33.9284 30.6395 34.3611 31.0722 34.8942 31.0722Z" fill="#9BB9C3"/>
    <path d="M33.7186 26.9621C33.6131 26.9621 33.5069 26.9278 33.4179 26.8569C33.2094 26.6906 33.1751 26.3868 33.3413 26.1782C33.4667 26.0209 33.5875 25.8588 33.7002 25.6967C34.6334 24.3537 35.1066 22.908 35.1066 21.3999C35.1066 19.9185 34.6496 18.4961 33.7481 17.1723C33.6325 17.0027 33.5082 16.8333 33.3791 16.669C33.2143 16.4592 33.2507 16.1557 33.4604 15.991C33.6699 15.8261 33.9736 15.8625 34.1384 16.0723C34.281 16.2536 34.4182 16.4408 34.5462 16.6285C35.559 18.1158 36.0724 19.7211 36.0724 21.3999C36.0724 23.0847 35.5264 24.7611 34.4933 26.2479C34.3685 26.4273 34.2351 26.6063 34.0966 26.7802C34.0013 26.8998 33.8606 26.9621 33.7186 26.9621Z" fill="#6CBFF8"/>
    <path d="M32.2958 25.5425C32.195 25.5425 32.0934 25.5112 32.0066 25.4461C31.7932 25.2862 31.7499 24.9835 31.9097 24.7701C31.9607 24.702 32.0112 24.6322 32.0598 24.5623C32.7572 23.5593 33.1109 22.4952 33.1109 21.3999C33.1109 20.3247 32.7698 19.2789 32.097 18.2914C32.0482 18.2198 31.9972 18.1479 31.9458 18.0781C31.7875 17.8635 31.8332 17.5612 32.0479 17.4029C32.2625 17.2446 32.5647 17.2903 32.7231 17.5049C32.7816 17.5843 32.8396 17.666 32.8952 17.7476C33.6791 18.8984 34.0767 20.1272 34.0767 21.3999C34.0767 22.6962 33.6649 23.9458 32.8526 25.1138C32.7976 25.1929 32.7403 25.2723 32.6826 25.3493C32.5877 25.4758 32.4427 25.5425 32.2958 25.5425Z" fill="#6CBFF8"/>
    <path d="M30.8646 24.1149C30.7719 24.1149 30.6782 24.0882 30.5954 24.0325C30.3741 23.8836 30.3155 23.5835 30.4645 23.3623C30.9023 22.7118 31.1151 22.07 31.1151 21.4C31.1151 20.7475 30.9129 20.1216 30.497 19.4862C30.3509 19.2631 30.4134 18.9638 30.6366 18.8177C30.8597 18.6717 31.159 18.734 31.3051 18.9573C31.8271 19.7547 32.0809 20.5537 32.0809 21.4C32.0809 22.2683 31.8142 23.0866 31.2656 23.9016C31.1724 24.0401 31.0199 24.1149 30.8646 24.1149Z" fill="#6CBFF8"/>
    <path d="M29.4081 22.6615C29.3367 22.6615 29.2642 22.6456 29.1957 22.6119C28.9563 22.4945 28.8574 22.2051 28.975 21.9657C29.1029 21.7049 29.1193 21.5263 29.1193 21.3998C29.1193 21.2831 29.1055 21.1188 28.9983 20.8833C28.8878 20.6406 28.995 20.3542 29.2378 20.2437C29.4806 20.1333 29.7668 20.2403 29.8774 20.4831C30.0636 20.8922 30.0852 21.2022 30.0852 21.3998C30.0852 21.6127 30.0599 21.9472 29.842 22.3912C29.7581 22.5622 29.5865 22.6615 29.4081 22.6615Z" fill="#6CBFF8"/>
</svg>
