<svg width="79" height="79" viewBox="0 0 79 79" fill="none" xmlns="http://www.w3.org/2000/svg">
    <path d="M29.5506 4.48096C23.2827 6.26775 17.6089 9.70354 13.1211 14.43C15.7187 17.1499 18.7207 19.4524 22.0209 21.2561C23.6873 14.2202 26.3042 8.40627 29.5506 4.48096Z" fill="#5138EE"/>
    <path d="M13.1211 64.5704C17.6089 69.2968 23.2827 72.7326 29.5506 74.5194C26.3042 70.5941 23.6873 64.7679 22.0209 57.7319C18.7182 59.5369 15.7158 61.8439 13.1211 64.5704Z" fill="#5138EE"/>
    <path d="M19.9967 39.5001C19.9837 34.7974 20.3719 30.1021 21.157 25.4653C17.1744 23.4459 13.5539 20.7806 10.4426 17.5776C0.715742 29.9214 0.715742 49.1159 10.4426 61.4103C13.5547 58.2082 17.175 55.543 21.157 53.5226C20.3718 48.89 19.9836 44.1988 19.9967 39.5001Z" fill="#5138EE"/>
    <path d="M65.8783 14.43C61.3904 9.70354 55.7167 6.26775 49.4487 4.48096C52.6951 8.40627 55.312 14.2202 56.9784 21.2561C60.2787 19.4524 63.2806 17.1499 65.8783 14.43Z" fill="#5138EE"/>
    <path d="M39.4998 25.7368C44.1933 25.7394 48.8426 24.8297 53.189 23.0582C47.1282 -3.40678 31.859 -3.40678 25.8105 23.0582C30.1569 24.8297 34.8062 25.7394 39.4998 25.7368Z" fill="#5138EE"/>
    <path d="M25.0454 27.1562C23.8358 35.341 23.8358 43.659 25.0454 51.8438C31.1439 49.4746 37.7279 48.6273 44.2276 49.375C46.6966 45.5904 50.4701 42.8449 54.8308 41.6602C54.9864 36.8088 54.6931 31.9535 53.9544 27.1562C44.646 30.7114 34.3538 30.7114 25.0454 27.1562Z" fill="#5138EE"/>
    <path d="M42.2526 53.3621C36.6429 52.9286 31.0093 53.8077 25.7983 55.9296C29.2176 70.8902 37.3151 81.9379 46.0051 72.248C43.7269 69.7356 42.1743 66.6512 41.5133 63.3247C40.8524 59.9982 41.1079 56.5546 42.2526 53.3621Z" fill="#5138EE"/>
    <path d="M59.0032 39.5001V41.0308C62.0467 40.8674 65.0835 41.4579 67.844 42.7499C70.6046 44.0419 73.0035 45.9954 74.8279 48.437C76.1478 43.1533 76.2732 37.6418 75.1948 32.3036C74.1165 26.9654 71.8616 21.9347 68.5943 17.5776C65.4829 20.7806 61.8625 23.4459 57.8799 25.4653C58.6526 30.1031 59.0284 34.7984 59.0032 39.5001Z" fill="#5138EE"/>
    <path d="M71.3098 48.2149C68.2581 45.1884 64.1343 43.4902 59.8363 43.4902C55.5384 43.4902 51.4145 45.1884 48.3628 48.2149C38.1792 58.2627 45.5361 76.0377 59.8302 75.9142C74.1242 76.0377 81.4687 58.2627 71.3098 48.2149ZM59.8302 72.2111C49.6219 72.3345 43.6845 60.2624 49.77 52.2389L67.2734 69.7424C65.1241 71.3477 62.5128 72.2138 59.8302 72.2111ZM69.8903 67.1255L52.3869 49.622C64.1011 41.2653 78.1977 55.547 69.8903 67.1255Z" fill="#FF223D"/>
</svg>
